STARTFONT 2.1
COMMENT $Xorg: $
COMMENT ISO10646-1 extension by Markus Kuhn <mkuhn@acm.org>, 2001-03-20
COMMENT  (c) Copyright Bigelow & Holmes 1986, 1985. Lucida is a registered
COMMENT  trademark of Bigelow & Holmes. See LEGAL NOTICE file for terms 
COMMENT  of the license. 
FONT -B&H-Lucida-Bold-R-Normal-Sans-34-240-100-100-P-216-ISO10646-1
SIZE 24 100 100
FONTBOUNDINGBOX 68 53 -24 -14
STARTPROPERTIES 22
COMMENT Begin LogicalFontDescription
FONTNAME_REGISTRY ""
FOUNDRY "B&H"
FAMILY_NAME "Lucida"
WEIGHT_NAME "Bold"
SLANT "R"
SETWIDTH_NAME "Normal"
ADD_STYLE_NAME "Sans"
PIXEL_SIZE 34
POINT_SIZE 240
RESOLUTION_X 100
RESOLUTION_Y 100
SPACING "P"
AVERAGE_WIDTH 216
CHARSET_REGISTRY "ISO10646"
CHARSET_ENCODING "1"
COMMENT END LogicalFontDescription
FONT_ASCENT 31
FONT_DESCENT 8
DEFAULT_CHAR 0
COPYRIGHT "Copyright Bigelow & Holmes 1986, 1985."
FACE_NAME "Lucida Sans Bold"
X_HEIGHT 18
CAP_HEIGHT 25
ENDPROPERTIES
CHARS 756
STARTCHAR char0
ENCODING 0
SWIDTH 813 0
DWIDTH 28 0
BBX 21 25 3 0
BITMAP
AAAAA8
000000
800008
000000
800008
000000
800008
000000
800008
000000
800008
000000
800008
000000
800008
000000
800008
000000
800008
000000
800008
000000
800008
000000
AAAAA8
ENDCHAR
STARTCHAR space
ENCODING 32
SWIDTH 343 0
DWIDTH 12 0
BBX 1 1 0 0
BITMAP
00
ENDCHAR
STARTCHAR exclam
ENCODING 33
SWIDTH 265 0
DWIDTH 12 0
BBX 7 25 2 0
BITMAP
FE
FE
FE
FE
FE
FE
FE
FE
FC
FC
FC
7C
7C
7C
78
78
78
00
00
00
FE
FE
FE
FE
FE
ENDCHAR
STARTCHAR quotedbl
ENCODING 34
SWIDTH 530 0
DWIDTH 18 0
BBX 16 11 1 15
BITMAP
FE7F
FE7F
FC7F
FC7E
FC7E
FC7E
7C3E
7C3E
783C
783C
783C
ENDCHAR
STARTCHAR numbersign
ENCODING 35
SWIDTH 687 0
DWIDTH 23 0
BBX 21 25 1 0
BITMAP
00E1E0
00E1C0
00E1C0
00E1C0
01C3C0
01C380
01C380
3FFFF8
3FFFF8
3FFFF0
038700
038700
070700
070E00
070E00
FFFFE0
FFFFE0
FFFFE0
0E1C00
0E1C00
1C1C00
1C3800
1C3800
1C3800
383800
ENDCHAR
STARTCHAR dollar
ENCODING 36
SWIDTH 687 0
DWIDTH 23 0
BBX 17 33 3 -4
BITMAP
01E000
01E000
01E000
01E000
07FE00
1FFF00
3FFF00
7FFF00
7EE100
7CE000
7EE000
7EE000
7FE000
3FE000
3FE000
1FF800
07FC00
03FE00
01FF00
01FF00
01FF80
01DF80
01DF80
81DF80
E1DF80
FFFF00
FFFF00
FFFE00
3FF800
01E000
01E000
01E000
01E000
ENDCHAR
STARTCHAR percent
ENCODING 37
SWIDTH 898 0
DWIDTH 30 0
BBX 29 25 1 0
BITMAP
0F8007E0
3FE00F80
7FF00F80
7FF01F00
FDF83E00
F8F87C00
F8F87C00
F8F8F800
FDF9F000
7FF3E000
7FF3E000
3FE7C000
0F8F8000
001F0F80
003F3FE0
003E7FF0
007CFFF8
00F8FDF8
01F8F8F8
01F0F8F8
03E0FDF8
07C0FFF8
0F807FF0
0F803FE0
3F000F80
ENDCHAR
STARTCHAR ampersand
ENCODING 38
SWIDTH 792 0
DWIDTH 27 0
BBX 25 25 1 0
BITMAP
00FE0000
03FF8000
07FFC000
0FFFE000
0FE7E000
0FE7E000
0FE7E000
07EFC000
07FFC000
03FF0000
03FE1F80
0FFE1F80
3FFF1F80
7FFF1F80
7E7F9F00
FE3FDF00
FE3FFE00
FE1FFE00
FE1FFC00
FF0FF800
7F87F000
7FFFF800
3FFFFC00
0FFEFE00
03F87F00
ENDCHAR
STARTCHAR quotesingle
ENCODING 39
SWIDTH 265 0
DWIDTH 9 0
BBX 7 12 1 14
BITMAP
FE
FE
FE
FC
FC
FC
7C
7C
7C
78
78
78
ENDCHAR
STARTCHAR parenleft
ENCODING 40
SWIDTH 386 0
DWIDTH 13 0
BBX 10 32 1 -6
BITMAP
0040
01C0
03C0
07C0
0FC0
1F80
1F80
3F00
3F00
7F00
7E00
7E00
FE00
FE00
FE00
FE00
FE00
FE00
FE00
FE00
7E00
7E00
7F00
3F00
3F00
1F80
1F80
0FC0
07C0
03C0
01C0
0040
ENDCHAR
STARTCHAR parenright
ENCODING 41
SWIDTH 386 0
DWIDTH 13 0
BBX 10 32 2 -6
BITMAP
8000
E000
F000
F800
FC00
7E00
7E00
3F00
3F00
3F80
1F80
1F80
1FC0
1FC0
1FC0
1FC0
1FC0
1FC0
1FC0
1FC0
1F80
1F80
3F80
3F00
3F00
7E00
7E00
FC00
F800
F000
E000
8000
ENDCHAR
STARTCHAR asterisk
ENCODING 42
SWIDTH 464 0
DWIDTH 16 0
BBX 13 13 1 12
BITMAP
0F80
0700
4710
6730
7DF0
F8F8
F8F8
0880
1DC0
3DE0
7DF0
18C0
0880
ENDCHAR
STARTCHAR plus
ENCODING 43
SWIDTH 687 0
DWIDTH 23 0
BBX 20 21 2 0
BITMAP
00F000
00F000
00F000
00F000
00F000
00F000
00F000
00F000
FFFFF0
FFFFF0
FFFFF0
FFFFF0
00F000
00F000
00F000
00F000
00F000
00F000
00F000
00F000
00F000
ENDCHAR
STARTCHAR comma
ENCODING 44
SWIDTH 343 0
DWIDTH 12 0
BBX 7 13 2 -6
BITMAP
FE
FE
FE
FE
FE
FE
FE
1E
1E
3C
3C
F8
E0
ENDCHAR
STARTCHAR hyphen
ENCODING 45
SWIDTH 289 0
DWIDTH 10 0
BBX 7 4 1 9
BITMAP
FE
FE
FE
FE
ENDCHAR
STARTCHAR period
ENCODING 46
SWIDTH 343 0
DWIDTH 12 0
BBX 7 7 2 0
BITMAP
FE
FE
FE
FE
FE
FE
FE
ENDCHAR
STARTCHAR slash
ENCODING 47
SWIDTH 596 0
DWIDTH 20 0
BBX 20 32 0 -6
BITMAP
0001F0
0003F0
0003E0
0007E0
0007C0
000FC0
000F80
001F80
001F00
003F00
003E00
007E00
007C00
00FC00
00F800
01F800
01F800
01F000
03F000
03E000
07E000
07C000
0FC000
0F8000
1F8000
1F0000
3F0000
3E0000
7E0000
7C0000
FC0000
F80000
ENDCHAR
STARTCHAR zero
ENCODING 48
SWIDTH 687 0
DWIDTH 23 0
BBX 21 25 1 0
BITMAP
01FC00
07FF00
0FFF80
1FFFC0
3F8FE0
3F07E0
7F07F0
7E03F0
FE03F8
FE03F8
FE03F8
FE03F8
FE03F8
FE03F8
FE03F8
FE03F8
FE03F8
7E03F0
7F07F0
3F07E0
3F8FE0
1FFFC0
0FFF80
07FF00
01FC00
ENDCHAR
STARTCHAR one
ENCODING 49
SWIDTH 687 0
DWIDTH 23 0
BBX 10 25 5 0
BITMAP
FFC0
FFC0
FFC0
FFC0
1FC0
1FC0
1FC0
1FC0
1FC0
1FC0
1FC0
1FC0
1FC0
1FC0
1FC0
1FC0
1FC0
1FC0
1FC0
1FC0
1FC0
1FC0
1FC0
1FC0
1FC0
ENDCHAR
STARTCHAR two
ENCODING 50
SWIDTH 687 0
DWIDTH 23 0
BBX 18 25 2 0
BITMAP
0FF800
7FFE00
7FFF00
7FFF80
707FC0
403FC0
001FC0
001FC0
001FC0
003F80
003F80
007F00
00FE00
01FC00
03F800
07F000
0FC000
1F8000
3F0000
FE0000
FFFFC0
FFFFC0
FFFFC0
FFFFC0
FFFFC0
ENDCHAR
STARTCHAR three
ENCODING 51
SWIDTH 687 0
DWIDTH 23 0
BBX 18 25 3 0
BITMAP
1FF000
FFFC00
FFFF00
FFFF00
C07F80
003F80
003F80
003F80
007F00
00FF00
3FFC00
3FF000
3FFC00
3FFE00
00FF00
003F80
001FC0
001FC0
001FC0
003FC0
C07FC0
FFFF80
FFFF00
FFFE00
7FF000
ENDCHAR
STARTCHAR four
ENCODING 52
SWIDTH 687 0
DWIDTH 23 0
BBX 21 25 1 0
BITMAP
000FE0
001FE0
003FE0
007FE0
00FFE0
01FFE0
03FFE0
07EFE0
07CFE0
0F8FE0
1F0FE0
3E0FE0
7E0FE0
FC0FE0
FFFFF8
FFFFF8
FFFFF8
FFFFF8
FFFFF8
000FE0
000FE0
000FE0
000FE0
000FE0
000FE0
ENDCHAR
STARTCHAR five
ENCODING 53
SWIDTH 687 0
DWIDTH 23 0
BBX 17 25 4 0
BITMAP
FFFF00
FFFF00
FFFF00
FFFF00
FFFF00
F00000
F00000
F00000
F00000
FFC000
FFF000
FFFC00
FFFE00
03FF00
00FF00
007F80
003F80
003F80
003F80
007F80
C0FF00
FFFF00
FFFE00
FFF800
3FE000
ENDCHAR
STARTCHAR six
ENCODING 54
SWIDTH 687 0
DWIDTH 23 0
BBX 20 25 1 0
BITMAP
00FF80
03FFE0
0FFFE0
1FFFE0
3FE060
3F8000
7F0000
7F0000
7E0000
FE3E00
FEFF80
FFFFC0
FFFFE0
FF0FE0
FF0FF0
FE07F0
FE07F0
7E07F0
7E07F0
7F0FF0
3F0FE0
1FFFC0
1FFF80
07FF00
01FC00
ENDCHAR
STARTCHAR seven
ENCODING 55
SWIDTH 687 0
DWIDTH 23 0
BBX 18 25 4 0
BITMAP
FFFFC0
FFFFC0
FFFFC0
FFFFC0
FFFFC0
000FC0
001F80
001F00
003E00
007E00
00FC00
01F800
01F000
03F000
07E000
07C000
0FC000
1FC000
1F8000
3F8000
3F8000
3F0000
7F0000
7F0000
7F0000
ENDCHAR
STARTCHAR eight
ENCODING 56
SWIDTH 687 0
DWIDTH 23 0
BBX 20 25 2 0
BITMAP
03FC00
0FFF80
1FFFC0
3FFFE0
7F0FE0
7E07E0
7E07E0
7F07E0
3F87C0
3FEF80
1FFF00
07FE00
0FFF80
1FFFC0
3F3FE0
7E0FE0
FE07F0
FE03F0
FE03F0
FF03F0
FF87E0
7FFFE0
3FFFC0
1FFF00
03FC00
ENDCHAR
STARTCHAR nine
ENCODING 57
SWIDTH 687 0
DWIDTH 23 0
BBX 20 25 2 0
BITMAP
03F800
0FFE00
1FFF80
3FFF80
7F0FC0
7F0FE0
FE07E0
FE07E0
FE07F0
FE07F0
FF0FF0
7F0FF0
7FFFF0
3FFFF0
1FF7F0
07C7F0
0007E0
000FE0
000FE0
001FC0
607FC0
7FFF80
7FFF00
7FFC00
1FF000
ENDCHAR
STARTCHAR colon
ENCODING 58
SWIDTH 343 0
DWIDTH 12 0
BBX 7 18 2 0
BITMAP
FE
FE
FE
FE
FE
FE
FE
00
00
00
00
FE
FE
FE
FE
FE
FE
FE
ENDCHAR
STARTCHAR semicolon
ENCODING 59
SWIDTH 343 0
DWIDTH 12 0
BBX 7 24 2 -6
BITMAP
FE
FE
FE
FE
FE
FE
FE
00
00
00
00
00
FE
FE
FE
FE
FE
FE
1E
1E
3C
3C
F8
E0
ENDCHAR
STARTCHAR less
ENCODING 60
SWIDTH 687 0
DWIDTH 23 0
BBX 20 21 2 0
BITMAP
000010
000070
0001F0
0007F0
001FF0
007FC0
01FF00
03FC00
0FF000
3FC000
FF8000
3FC000
0FF000
03FC00
01FF00
007FC0
001FF0
0007F0
0001F0
000070
000010
ENDCHAR
STARTCHAR equal
ENCODING 61
SWIDTH 687 0
DWIDTH 23 0
BBX 20 13 2 3
BITMAP
FFFFF0
FFFFF0
FFFFF0
FFFFF0
000000
000000
000000
000000
000000
FFFFF0
FFFFF0
FFFFF0
FFFFF0
ENDCHAR
STARTCHAR greater
ENCODING 62
SWIDTH 687 0
DWIDTH 23 0
BBX 20 21 2 0
BITMAP
800000
E00000
F80000
FE0000
FF8000
3FE000
0FF800
03FC00
00FF00
003FC0
000FF0
003FC0
00FF00
03FC00
0FF800
3FE000
FF8000
FE0000
F80000
E00000
800000
ENDCHAR
STARTCHAR question
ENCODING 63
SWIDTH 572 0
DWIDTH 19 0
BBX 17 25 1 0
BITMAP
3FF000
FFFC00
FFFF00
FFFF00
E07F80
803F80
003F80
003F80
003F00
007E00
007C00
00F800
01F800
03F000
07E000
0FE000
0FE000
0FE000
000000
000000
0FE000
0FE000
0FE000
0FE000
0FE000
ENDCHAR
STARTCHAR at
ENCODING 64
SWIDTH 833 0
DWIDTH 28 0
BBX 27 25 3 0
BITMAP
000FF000
007FFC00
01FFFE00
03F01F00
07C00780
0F0003C0
1E0001C0
3C0FF1E0
383FE0E0
787860E0
70F060E0
F0E0E0E0
E1E1E0E0
E1C1C1E0
E3C3C1C0
E3C7C3C0
E3CEC780
E3FCFF00
73F8FE00
79E0F800
3C000000
3F030000
1FFF0000
07FF8000
01FC0000
ENDCHAR
STARTCHAR A
ENCODING 65
SWIDTH 773 0
DWIDTH 26 0
BBX 25 25 1 0
BITMAP
007F0000
007F8000
00FF8000
00FF8000
00FFC000
01FFC000
01FFE000
01EFE000
03CFE000
03CFF000
07C7F000
0787F000
0787F800
0F83F800
0F03FC00
0FFFFC00
1FFFFC00
1FFFFE00
1FFFFE00
3C00FE00
3C007F00
7C007F00
78003F80
78003F80
F0003F80
ENDCHAR
STARTCHAR B
ENCODING 66
SWIDTH 669 0
DWIDTH 23 0
BBX 19 25 3 0
BITMAP
FFFC00
FFFF00
FFFF80
FFFFC0
FE3FC0
FE1FC0
FE1FC0
FE1FC0
FE3F80
FE3F00
FFFE00
FFF800
FFFC00
FFFF00
FE3FC0
FE1FC0
FE0FE0
FE0FE0
FE0FE0
FE0FE0
FE1FE0
FFFFC0
FFFFC0
FFFF80
FFFE00
ENDCHAR
STARTCHAR C
ENCODING 67
SWIDTH 726 0
DWIDTH 25 0
BBX 23 25 1 0
BITMAP
003FF8
01FFFE
07FFFE
1FFFFE
1FF00E
3FC000
7F8000
7F0000
7F0000
FE0000
FE0000
FE0000
FE0000
FE0000
FE0000
FF0000
7F0000
7F8000
7FC002
3FF00E
1FFFFE
1FFFFE
07FFFE
03FFFE
007FE0
ENDCHAR
STARTCHAR D
ENCODING 68
SWIDTH 819 0
DWIDTH 28 0
BBX 24 25 3 0
BITMAP
FFFF00
FFFFE0
FFFFF0
FFFFF8
FE07FC
FE01FE
FE01FE
FE00FE
FE007F
FE007F
FE007F
FE007F
FE007F
FE007F
FE007F
FE007F
FE00FE
FE00FE
FE01FE
FE07FC
FFFFFC
FFFFF8
FFFFF0
FFFFC0
FFFF00
ENDCHAR
STARTCHAR E
ENCODING 69
SWIDTH 645 0
DWIDTH 22 0
BBX 18 25 3 0
BITMAP
FFFF80
FFFF80
FFFF80
FFFF80
FE0000
FE0000
FE0000
FE0000
FE0000
FE0000
FFFE00
FFFE00
FFFE00
FFFE00
FE0000
FE0000
FE0000
FE0000
FE0000
FE0000
FE0000
FFFFC0
FFFFC0
FFFFC0
FFFFC0
ENDCHAR
STARTCHAR F
ENCODING 70
SWIDTH 602 0
DWIDTH 20 0
BBX 17 25 3 0
BITMAP
FFFF80
FFFF80
FFFF80
FFFF80
FE0000
FE0000
FE0000
FE0000
FE0000
FE0000
FE0000
FFFE00
FFFE00
FFFE00
FFFE00
FE0000
FE0000
FE0000
FE0000
FE0000
FE0000
FE0000
FE0000
FE0000
FE0000
ENDCHAR
STARTCHAR G
ENCODING 71
SWIDTH 759 0
DWIDTH 26 0
BBX 22 25 1 0
BITMAP
007FFC
03FFFC
07FFFC
1FFFFC
3FF00C
3FC000
7F8000
7F0000
FF0000
FE0000
FE0000
FE0000
FE0000
FE01FC
FE01FC
FE01FC
FF01FC
7F01FC
7F81FC
3FC1FC
3FF1FC
1FFFFC
0FFFFC
03FFFC
007FE0
ENDCHAR
STARTCHAR H
ENCODING 72
SWIDTH 813 0
DWIDTH 28 0
BBX 22 25 3 0
BITMAP
FE01FC
FE01FC
FE01FC
FE01FC
FE01FC
FE01FC
FE01FC
FE01FC
FE01FC
FE01FC
FFFFFC
FFFFFC
FFFFFC
FFFFFC
FE01FC
FE01FC
FE01FC
FE01FC
FE01FC
FE01FC
FE01FC
FE01FC
FE01FC
FE01FC
FE01FC
ENDCHAR
STARTCHAR I
ENCODING 73
SWIDTH 361 0
DWIDTH 12 0
BBX 7 25 3 0
BITMAP
FE
FE
FE
FE
FE
FE
FE
FE
FE
FE
FE
FE
FE
FE
FE
FE
FE
FE
FE
FE
FE
FE
FE
FE
FE
ENDCHAR
STARTCHAR J
ENCODING 74
SWIDTH 501 0
DWIDTH 17 0
BBX 14 31 0 -6
BITMAP
01FC
01FC
01FC
01FC
01FC
01FC
01FC
01FC
01FC
01FC
01FC
01FC
01FC
01FC
01FC
01FC
01FC
01FC
01FC
01FC
01FC
01FC
01FC
01FC
01FC
01FC
83F8
FFF8
FFF0
FFF0
7FC0
ENDCHAR
STARTCHAR K
ENCODING 75
SWIDTH 753 0
DWIDTH 26 0
BBX 23 25 3 0
BITMAP
FE01F0
FE03E0
FE03C0
FE07C0
FE0F80
FE0F00
FE1F00
FE3E00
FE7C00
FE7C00
FEF800
FFFC00
FFFC00
FFFE00
FFFF00
FEFF00
FE7F80
FE7FC0
FE3FC0
FE1FE0
FE1FF0
FE0FF0
FE0FF8
FE07FC
FE03FE
ENDCHAR
STARTCHAR L
ENCODING 76
SWIDTH 620 0
DWIDTH 21 0
BBX 18 25 3 0
BITMAP
FE0000
FE0000
FE0000
FE0000
FE0000
FE0000
FE0000
FE0000
FE0000
FE0000
FE0000
FE0000
FE0000
FE0000
FE0000
FE0000
FE0000
FE0000
FE0000
FE0000
FE0000
FFFFC0
FFFFC0
FFFFC0
FFFFC0
ENDCHAR
STARTCHAR M
ENCODING 77
SWIDTH 940 0
DWIDTH 32 0
BBX 26 25 3 0
BITMAP
FF803FC0
FF803FC0
FF807FC0
FFC07FC0
FFC07FC0
FFC0FFC0
FFE0FFC0
FFE0FFC0
FFE1FFC0
FFF1FFC0
FBF1FFC0
FBF3DFC0
FBFBDFC0
F9FBDFC0
F9FF9FC0
F9FF9FC0
F8FF9FC0
F8FF9FC0
F8FF1FC0
F8FF1FC0
F87F1FC0
F87E1FC0
F87E1FC0
F8001FC0
F8001FC0
ENDCHAR
STARTCHAR N
ENCODING 78
SWIDTH 783 0
DWIDTH 27 0
BBX 21 25 3 0
BITMAP
FC00F8
FE00F8
FF00F8
FF00F8
FF80F8
FFC0F8
FFE0F8
FFE0F8
FFF0F8
FFF8F8
FFF8F8
FBFCF8
FBFEF8
F9FEF8
F8FFF8
F8FFF8
F87FF8
F83FF8
F83FF8
F81FF8
F80FF8
F807F8
F807F8
F803F8
F801F8
ENDCHAR
STARTCHAR O
ENCODING 79
SWIDTH 855 0
DWIDTH 29 0
BBX 27 25 1 0
BITMAP
007FC000
03FFF800
07FFFC00
0FFFFE00
1FE0FF00
3FC07F80
7F803FC0
7F001FC0
7F001FC0
FE000FE0
FE000FE0
FE000FE0
FE000FE0
FE000FE0
FE000FE0
FE000FE0
7F001FC0
7F001FC0
7F803FC0
3FC07F80
1FE0FF00
0FFFFE00
07FFFC00
03FFF800
007FC000
ENDCHAR
STARTCHAR P
ENCODING 80
SWIDTH 657 0
DWIDTH 22 0
BBX 19 25 3 0
BITMAP
FFFE00
FFFF80
FFFFC0
FFFFE0
FE1FE0
FE0FE0
FE0FE0
FE0FE0
FE0FE0
FE1FE0
FE3FC0
FFFFC0
FFFF80
FFFF00
FFF800
FE0000
FE0000
FE0000
FE0000
FE0000
FE0000
FE0000
FE0000
FE0000
FE0000
ENDCHAR
STARTCHAR Q
ENCODING 81
SWIDTH 855 0
DWIDTH 29 0
BBX 31 31 1 -6
BITMAP
007FC000
03FFF800
07FFFC00
0FFFFE00
1FE0FF00
3FC07F80
7F803FC0
7F001FC0
7F001FC0
FE000FE0
FE000FE0
FE000FE0
FE000FE0
FE000FE0
FE000FE0
FE000FE0
7F001FC0
7F001FC0
7F803FC0
3FC07F80
1FE0FF00
0FFFFE00
07FFFC00
03FFF800
007FFC00
0001FFF0
00007FFE
00003FFC
00001FF8
000007F0
000000E0
ENDCHAR
STARTCHAR R
ENCODING 82
SWIDTH 734 0
DWIDTH 25 0
BBX 23 25 3 0
BITMAP
FFFE00
FFFF80
FFFFC0
FFFFC0
FE1FE0
FE0FE0
FE0FE0
FE0FE0
FE0FE0
FE1FC0
FE3FC0
FFFF80
FFFF00
FFFE00
FFFF00
FE7F80
FE3F80
FE3FC0
FE1FC0
FE1FE0
FE0FF0
FE0FF0
FE07F8
FE07FC
FE03FE
ENDCHAR
STARTCHAR S
ENCODING 83
SWIDTH 594 0
DWIDTH 20 0
BBX 18 25 1 0
BITMAP
07FF00
1FFF00
3FFF00
7FFF00
FF0300
FE0000
FE0000
FF0000
FFC000
FFE000
7FF800
3FFC00
1FFF00
0FFF80
03FF80
00FFC0
007FC0
001FC0
001FC0
001FC0
C03F80
FFFF80
FFFF00
FFFE00
FFF000
ENDCHAR
STARTCHAR T
ENCODING 84
SWIDTH 735 0
DWIDTH 25 0
BBX 25 25 0 0
BITMAP
FFFFFF80
FFFFFF80
FFFFFF80
FFFFFF80
007F0000
007F0000
007F0000
007F0000
007F0000
007F0000
007F0000
007F0000
007F0000
007F0000
007F0000
007F0000
007F0000
007F0000
007F0000
007F0000
007F0000
007F0000
007F0000
007F0000
007F0000
ENDCHAR
STARTCHAR U
ENCODING 85
SWIDTH 783 0
DWIDTH 27 0
BBX 21 25 3 0
BITMAP
FE03F8
FE03F8
FE03F8
FE03F8
FE03F8
FE03F8
FE03F8
FE03F8
FE03F8
FE03F8
FE03F8
FE03F8
FE03F8
FE03F8
FE03F8
FE03F8
FE03F8
FE03F8
FE03F8
7F07F0
7F8FF0
3FFFE0
1FFFE0
0FFF80
01FE00
ENDCHAR
STARTCHAR V
ENCODING 86
SWIDTH 735 0
DWIDTH 25 0
BBX 24 25 0 0
BITMAP
FE000F
FF001E
7F001E
7F003E
7F803C
3F803C
3F807C
3FC078
1FC078
1FE0F8
1FE0F0
0FE0F0
0FF1F0
07F1E0
07F1E0
07FBE0
03FBC0
03FBC0
03FFC0
01FF80
01FF80
01FF80
00FF00
00FF00
00FE00
ENDCHAR
STARTCHAR W
ENCODING 87
SWIDTH 940 0
DWIDTH 32 0
BBX 31 25 1 0
BITMAP
FE03E01E
FE07F01E
FE07F03C
FF07F03C
7F07F03C
7F07F03C
7F0FF878
7F0FF878
7F8FF878
3F8FF878
3F9FF8F0
3F9EFCF0
3FDEFCF0
1FDEFCF0
1FDEFDE0
1FFCFFE0
1FFC7FE0
0FFC7FE0
0FFC7FE0
0FF87FC0
0FF83FC0
07F83FC0
07F83FC0
07F83F80
07F03F80
ENDCHAR
STARTCHAR X
ENCODING 88
SWIDTH 699 0
DWIDTH 24 0
BBX 22 25 1 0
BITMAP
FF00FC
7F80F8
7F81F0
3FC1E0
1FE3E0
1FE7C0
0FF780
0FFF80
07FF00
07FF00
03FE00
01FE00
01FE00
01FF00
01FF00
03FF80
07FF80
07FFC0
0F9FE0
0F1FE0
1F0FF0
3E0FF0
3C07F8
7C07F8
F803FC
ENDCHAR
STARTCHAR Y
ENCODING 89
SWIDTH 738 0
DWIDTH 25 0
BBX 23 25 1 0
BITMAP
FF003E
FF003C
7F807C
3FC0F8
3FC0F0
1FE1F0
1FE1E0
0FF3E0
0FF7C0
07FFC0
07FF80
03FF80
03FF00
01FE00
00FE00
00FE00
00FE00
00FE00
00FE00
00FE00
00FE00
00FE00
00FE00
00FE00
00FE00
ENDCHAR
STARTCHAR Z
ENCODING 90
SWIDTH 675 0
DWIDTH 23 0
BBX 19 25 2 0
BITMAP
7FFFE0
7FFFE0
7FFFE0
7FFFE0
001FE0
003FC0
007FC0
007F80
00FF00
01FF00
01FE00
03FC00
07FC00
07F800
0FF000
1FF000
1FE000
3FC000
7FC000
7F8000
FF0000
FFFFE0
FFFFE0
FFFFE0
FFFFE0
ENDCHAR
STARTCHAR bracketleft
ENCODING 91
SWIDTH 386 0
DWIDTH 13 0
BBX 9 32 2 -6
BITMAP
FF80
FF80
FF80
FF80
FC00
FC00
FC00
FC00
FC00
FC00
FC00
FC00
FC00
FC00
FC00
FC00
FC00
FC00
FC00
FC00
FC00
FC00
FC00
FC00
FC00
FC00
FC00
FC00
FF80
FF80
FF80
FF80
ENDCHAR
STARTCHAR backslash
ENCODING 92
SWIDTH 596 0
DWIDTH 20 0
BBX 20 32 0 -6
BITMAP
F80000
FC0000
7C0000
7E0000
3E0000
3F0000
1F0000
1F8000
0F8000
0FC000
07C000
07E000
03E000
03F000
01F000
01F800
01F800
00F800
00FC00
007C00
007E00
003E00
003F00
001F00
001F80
000F80
000FC0
0007C0
0007E0
0003E0
0003F0
0001F0
ENDCHAR
STARTCHAR bracketright
ENCODING 93
SWIDTH 386 0
DWIDTH 13 0
BBX 9 32 2 -6
BITMAP
FF80
FF80
FF80
FF80
1F80
1F80
1F80
1F80
1F80
1F80
1F80
1F80
1F80
1F80
1F80
1F80
1F80
1F80
1F80
1F80
1F80
1F80
1F80
1F80
1F80
1F80
1F80
1F80
FF80
FF80
FF80
FF80
ENDCHAR
STARTCHAR asciicircum
ENCODING 94
SWIDTH 687 0
DWIDTH 23 0
BBX 20 21 2 4
BITMAP
002000
006000
006000
00F000
00F000
01F800
01F800
03FC00
03FC00
07FE00
079E00
0F9F00
0F0F00
1F0F80
1E0780
3E07C0
3C03C0
3C03C0
7C03E0
7801E0
F801F0
ENDCHAR
STARTCHAR underscore
ENCODING 95
SWIDTH 500 0
DWIDTH 17 0
BBX 15 4 1 -5
BITMAP
FFFE
FFFE
FFFE
FFFE
ENDCHAR
STARTCHAR grave
ENCODING 96
SWIDTH 675 0
DWIDTH 23 0
BBX 9 5 6 21
BITMAP
FC00
3C00
1E00
0F00
0780
ENDCHAR
STARTCHAR a
ENCODING 97
SWIDTH 623 0
DWIDTH 21 0
BBX 19 18 1 0
BITMAP
0FF800
3FFE00
3FFF00
3FFF80
307F80
203F80
003F80
0FFF80
3FFF80
7FFF80
FFFF80
FF3F80
FE3F80
FE7F80
FFFFE0
7FFFE0
3FDFE0
1F8FE0
ENDCHAR
STARTCHAR b
ENCODING 98
SWIDTH 696 0
DWIDTH 24 0
BBX 20 26 3 0
BITMAP
FE0000
FE0000
FE0000
FE0000
FE0000
FE0000
FE0000
FE0000
FE3F00
FE7F80
FEFFC0
FFFFE0
FFFFE0
FF0FF0
FE0FF0
FE07F0
FE07F0
FE07F0
FE07F0
FE07F0
FE0FE0
FF1FE0
FFFFE0
FFFFC0
FDFF80
FC7E00
ENDCHAR
STARTCHAR c
ENCODING 99
SWIDTH 545 0
DWIDTH 19 0
BBX 16 18 1 0
BITMAP
03FE
0FFF
1FFF
3FFF
7F83
7F00
FF00
FE00
FE00
FE00
FE00
FE00
7F00
7F81
3FFF
3FFF
0FFF
03FF
ENDCHAR
STARTCHAR d
ENCODING 100
SWIDTH 696 0
DWIDTH 24 0
BBX 20 26 1 0
BITMAP
0007F0
0007F0
0007F0
0007F0
0007F0
0007F0
0007F0
0007F0
07C7F0
1FF7F0
3FFFF0
7FFFF0
7F8FF0
FF07F0
FE07F0
FE07F0
FE07F0
FE07F0
FE07F0
FF07F0
FF0FF0
7FFFF0
7FFFF0
3FF7F0
1FE7F0
0FC7F0
ENDCHAR
STARTCHAR e
ENCODING 101
SWIDTH 614 0
DWIDTH 21 0
BBX 18 18 1 0
BITMAP
03F800
0FFE00
3FFF00
3FFF80
7E3F80
7E1FC0
FFFFC0
FFFFC0
FFFFC0
FFFFC0
FE0000
FE0000
7F80C0
7FFFC0
3FFFC0
1FFFC0
0FFFC0
01FE00
ENDCHAR
STARTCHAR f
ENCODING 102
SWIDTH 461 0
DWIDTH 16 0
BBX 15 26 1 0
BITMAP
03FC
0FFE
1FFE
1FFE
3FC2
3F80
3F80
3F80
FFF8
FFF8
FFF8
FFF8
3F80
3F80
3F80
3F80
3F80
3F80
3F80
3F80
3F80
3F80
3F80
3F80
3F80
3F80
ENDCHAR
STARTCHAR g
ENCODING 103
SWIDTH 696 0
DWIDTH 24 0
BBX 20 25 1 -7
BITMAP
07E3F0
1FFBF0
3FFFF0
3FFFF0
7F8FF0
7F07F0
FE07F0
FE07F0
FE07F0
FE07F0
FE07F0
FF0FF0
FF0FF0
7FFFF0
7FF7F0
3FF7F0
1FE7F0
0F87F0
0007F0
300FF0
3FFFE0
3FFFE0
3FFFC0
3FFF00
07FC00
ENDCHAR
STARTCHAR h
ENCODING 104
SWIDTH 693 0
DWIDTH 24 0
BBX 18 26 3 0
BITMAP
FE0000
FE0000
FE0000
FE0000
FE0000
FE0000
FE0000
FE0000
FE3E00
FE7F80
FEFF80
FFFFC0
FFFFC0
FFFFC0
FF1FC0
FF1FC0
FE1FC0
FE1FC0
FE1FC0
FE1FC0
FE1FC0
FE1FC0
FE1FC0
FE1FC0
FE1FC0
FE1FC0
ENDCHAR
STARTCHAR i
ENCODING 105
SWIDTH 361 0
DWIDTH 12 0
BBX 7 26 3 0
BITMAP
FE
FE
FE
FE
FE
00
00
00
FE
FE
FE
FE
FE
FE
FE
FE
FE
FE
FE
FE
FE
FE
FE
FE
FE
FE
ENDCHAR
STARTCHAR j
ENCODING 106
SWIDTH 361 0
DWIDTH 12 0
BBX 13 33 -2 -7
BITMAP
03F8
03F8
03F8
03F8
03F8
0000
0000
0000
03F8
03F8
03F8
03F8
03F8
03F8
03F8
03F8
03F8
03F8
03F8
03F8
03F8
03F8
03F8
03F8
03F8
03F8
03F8
03F8
87F8
FFF0
FFF0
FFE0
7F80
ENDCHAR
STARTCHAR k
ENCODING 107
SWIDTH 681 0
DWIDTH 23 0
BBX 21 26 3 0
BITMAP
FE0000
FE0000
FE0000
FE0000
FE0000
FE0000
FE0000
FE0000
FE07C0
FE0F80
FE1F00
FE1F00
FE3E00
FE7C00
FE7C00
FEFC00
FFFC00
FFFE00
FEFF00
FEFF00
FE7F80
FE7FC0
FE3FC0
FE1FE0
FE1FF0
FE0FF8
ENDCHAR
STARTCHAR l
ENCODING 108
SWIDTH 361 0
DWIDTH 12 0
BBX 7 26 3 0
BITMAP
FE
FE
FE
FE
FE
FE
FE
FE
FE
FE
FE
FE
FE
FE
FE
FE
FE
FE
FE
FE
FE
FE
FE
FE
FE
FE
ENDCHAR
STARTCHAR m
ENCODING 109
SWIDTH 1006 0
DWIDTH 34 0
BBX 29 18 3 0
BITMAP
FE3E07E0
FEFF8FF0
FDFF9FF8
FFFFFFF8
FFFFFFF8
FFFFFFF8
FF1FE3F8
FE1FC3F8
FE1FC3F8
FE1FC3F8
FE1FC3F8
FE1FC3F8
FE1FC3F8
FE1FC3F8
FE1FC3F8
FE1FC3F8
FE1FC3F8
FE1FC3F8
ENDCHAR
STARTCHAR n
ENCODING 110
SWIDTH 693 0
DWIDTH 24 0
BBX 18 18 3 0
BITMAP
FE3E00
FEFF80
FEFF80
FFFFC0
FFFFC0
FFFFC0
FF1FC0
FF1FC0
FE1FC0
FE1FC0
FE1FC0
FE1FC0
FE1FC0
FE1FC0
FE1FC0
FE1FC0
FE1FC0
FE1FC0
ENDCHAR
STARTCHAR o
ENCODING 111
SWIDTH 675 0
DWIDTH 23 0
BBX 20 18 1 0
BITMAP
03FC00
0FFF00
1FFF80
3FFFC0
7F9FE0
7F0FE0
FE07F0
FE07F0
FE07F0
FE07F0
FE07F0
FE07F0
7F0FE0
7F9FE0
3FFFC0
1FFF80
0FFF00
03FC00
ENDCHAR
STARTCHAR p
ENCODING 112
SWIDTH 696 0
DWIDTH 24 0
BBX 20 25 3 -7
BITMAP
FE3F00
FE7F80
FEFFC0
FFFFE0
FFFFE0
FF0FF0
FE0FF0
FE07F0
FE07F0
FE07F0
FE07F0
FE07F0
FE0FF0
FF1FE0
FFFFE0
FFFFC0
FEFF80
FE3E00
FE0000
FE0000
FE0000
FE0000
FE0000
FE0000
FE0000
ENDCHAR
STARTCHAR q
ENCODING 113
SWIDTH 696 0
DWIDTH 24 0
BBX 20 25 1 -7
BITMAP
07E3F0
1FFBF0
3FFFF0
7FFFF0
7F8FF0
7F07F0
FE07F0
FE07F0
FE07F0
FE07F0
FE07F0
FF07F0
FF0FF0
7FFFF0
7FFFF0
3FF7F0
1FE7F0
0FC7F0
0007F0
0007F0
0007F0
0007F0
0007F0
0007F0
0007F0
ENDCHAR
STARTCHAR r
ENCODING 114
SWIDTH 500 0
DWIDTH 17 0
BBX 14 18 3 0
BITMAP
FE3C
FE7C
FEFC
FFFC
FFFC
FFFC
FF80
FF00
FE00
FE00
FE00
FE00
FE00
FE00
FE00
FE00
FE00
FE00
ENDCHAR
STARTCHAR s
ENCODING 115
SWIDTH 622 0
DWIDTH 21 0
BBX 17 18 2 0
BITMAP
0FFC00
3FFE00
7FFE00
FFFE00
FE0200
FE0000
FF0000
7FE000
3FFC00
1FFF00
03FF80
007F80
003F80
C03F80
FFFF80
FFFF00
FFFE00
3FF000
ENDCHAR
STARTCHAR t
ENCODING 116
SWIDTH 436 0
DWIDTH 15 0
BBX 13 23 1 0
BITMAP
0380
3F80
3F80
3F80
3F80
FFF8
FFF8
FFF8
FFF8
3F80
3F80
3F80
3F80
3F80
3F80
3F80
3F80
3F80
3FC0
3FF8
1FF8
1FF8
07F8
ENDCHAR
STARTCHAR u
ENCODING 117
SWIDTH 693 0
DWIDTH 24 0
BBX 18 18 3 0
BITMAP
FE1FC0
FE1FC0
FE1FC0
FE1FC0
FE1FC0
FE1FC0
FE1FC0
FE1FC0
FE1FC0
FE1FC0
FE1FC0
FE3FC0
FE3FC0
FFFFC0
FFFFC0
7FDFC0
7FDFC0
1F1FC0
ENDCHAR
STARTCHAR v
ENCODING 118
SWIDTH 663 0
DWIDTH 23 0
BBX 21 18 1 0
BITMAP
FF00F8
FF00F0
7F00F0
7F81F0
3F81E0
3FC3E0
3FC3C0
1FC3C0
1FE7C0
0FE780
0FF780
0FFF00
07FF00
07FF00
03FE00
03FE00
01FC00
01FC00
ENDCHAR
STARTCHAR w
ENCODING 119
SWIDTH 885 0
DWIDTH 30 0
BBX 28 18 1 0
BITMAP
FC0FC0F0
FC1FC1F0
FE1FC1E0
7E1FC1E0
7E1FE1E0
7E3FE3C0
7F3FE3C0
3F3FE3C0
3F7FF7C0
3F79F780
3FF9F780
1FF9FF80
1FF1FF00
1FF0FF00
1FF0FF00
0FF0FF00
0FE0FE00
0FE07E00
ENDCHAR
STARTCHAR x
ENCODING 120
SWIDTH 568 0
DWIDTH 19 0
BBX 18 18 1 0
BITMAP
FF07C0
7F0F80
3F9F00
3F9E00
1FFE00
0FFC00
0FFC00
07F800
07F800
03F800
07FC00
0FFC00
0FFE00
1FFE00
3E7F00
3C3F80
7C3F80
F81FC0
ENDCHAR
STARTCHAR y
ENCODING 121
SWIDTH 645 0
DWIDTH 22 0
BBX 21 25 1 -7
BITMAP
FF00F8
FF00F0
7F01F0
7F81E0
3F83E0
3F83C0
3FC7C0
1FC780
1FEF80
0FEF00
0FFF00
0FFE00
07FE00
07FC00
07FC00
03F800
03F800
01F800
01F000
03F000
03E000
07E000
0FC000
1FC000
3F8000
ENDCHAR
STARTCHAR z
ENCODING 122
SWIDTH 608 0
DWIDTH 21 0
BBX 17 18 2 0
BITMAP
FFFF80
FFFF80
FFFF80
FFFF80
00FF80
01FF00
03FE00
07FC00
0FFC00
1FF800
3FF000
7FE000
FFC000
FF8000
FFFF80
FFFF80
FFFF80
FFFF80
ENDCHAR
STARTCHAR braceleft
ENCODING 123
SWIDTH 386 0
DWIDTH 13 0
BBX 10 32 2 -6
BITMAP
07C0
0FC0
1FC0
3FC0
3F80
3F80
3F80
3F80
3F80
3F80
3F80
3F80
3F80
3F00
FE00
FC00
FC00
FE00
3F00
3F80
3F80
3F80
3F80
3F80
3F80
3F80
3F80
3F80
3FC0
1FC0
0FC0
07C0
ENDCHAR
STARTCHAR bar
ENCODING 124
SWIDTH 265 0
DWIDTH 9 0
BBX 4 32 3 -6
BITMAP
F0
F0
F0
F0
F0
F0
F0
F0
F0
F0
F0
F0
F0
F0
F0
F0
F0
F0
F0
F0
F0
F0
F0
F0
F0
F0
F0
F0
F0
F0
F0
F0
ENDCHAR
STARTCHAR braceright
ENCODING 125
SWIDTH 386 0
DWIDTH 13 0
BBX 10 32 2 -6
BITMAP
F800
FC00
FE00
FF00
7F00
7F00
7F00
7F00
7F00
7F00
7F00
7F00
7F00
3F00
1FC0
0FC0
0FC0
1FC0
3F00
7F00
7F00
7F00
7F00
7F00
7F00
7F00
7F00
7F00
FF00
FE00
FC00
F800
ENDCHAR
STARTCHAR asciitilde
ENCODING 126
SWIDTH 687 0
DWIDTH 23 0
BBX 20 7 2 6
BITMAP
1F00F0
7FC0F0
7FF9F0
FFFFF0
F9FFE0
F03FE0
F00F80
ENDCHAR
STARTCHAR space
ENCODING 160
SWIDTH 343 0
DWIDTH 12 0
BBX 1 1 0 0
BITMAP
00
ENDCHAR
STARTCHAR exclamdown
ENCODING 161
SWIDTH 265 0
DWIDTH 12 0
BBX 7 25 2 -7
BITMAP
FE
FE
FE
FE
FE
00
00
78
78
78
7C
7C
7C
7C
FC
FC
FC
FE
FE
FE
FE
FE
FE
FE
FE
ENDCHAR
STARTCHAR cent
ENCODING 162
SWIDTH 687 0
DWIDTH 23 0
BBX 17 25 3 0
BITMAP
007800
007800
007800
01FF80
0FFF80
1FFF80
3FFF80
7F8180
7F0000
FE0000
FE0000
FE0000
FE0000
FE0000
FF0000
FF0000
7FC000
7FFF80
3FFF80
1FFF80
07FF80
007800
007800
007800
007800
ENDCHAR
STARTCHAR sterling
ENCODING 163
SWIDTH 687 0
DWIDTH 23 0
BBX 17 25 4 0
BITMAP
00FF80
07FF80
0FFF80
0FFF80
1FE000
1FC000
1FC000
1FC000
1FC000
1FC000
7FF800
7FF800
7FF800
7FF800
1FC000
1FC000
1F8000
1F8000
1F0000
3C0000
FFFF80
FFFF80
FFFF80
FFFF80
FFFF80
ENDCHAR
STARTCHAR currency
ENCODING 164
SWIDTH 687 0
DWIDTH 23 0
BBX 23 25 0 0
BITMAP
200008
70001C
F8003E
FC007E
7C007C
3E00F8
1F7DF0
0FFFE0
07FFC0
07FFC0
0FFFE0
0FC7E0
0F83E0
0F83E0
0F83E0
07C7C0
07FFC0
0FFFE0
1FFFF0
3FFFF8
3E7CF8
7C007C
F8003E
70001C
200008
ENDCHAR
STARTCHAR yen
ENCODING 165
SWIDTH 687 0
DWIDTH 23 0
BBX 22 25 1 0
BITMAP
FF007C
FF0078
7F80F8
3FC1F0
3FC1F0
1FE3E0
1FE3C0
0FF7C0
0FF780
07FF80
07FF00
03FE00
01FE00
0FFFC0
0FFFC0
0FFFC0
00FE00
0FFFC0
0FFFC0
0FFFC0
00FE00
00FE00
00FE00
00FE00
00FE00
ENDCHAR
STARTCHAR brokenbar
ENCODING 166
SWIDTH 265 0
DWIDTH 9 0
BBX 4 32 3 -6
BITMAP
F0
F0
F0
F0
F0
F0
F0
F0
F0
F0
F0
F0
F0
00
00
00
00
00
00
F0
F0
F0
F0
F0
F0
F0
F0
F0
F0
F0
F0
F0
ENDCHAR
STARTCHAR section
ENCODING 167
SWIDTH 693 0
DWIDTH 23 0
BBX 17 32 3 -7
BITMAP
0FFF00
3FFF00
7FFF00
7FFF00
FE0300
FC0000
FE0000
FFC000
7FF000
7FFC00
3FFE00
3FFF00
7FFF00
7BFF80
F8FF80
FC3F80
FE0F80
FF8F80
FFEF00
7FFF00
7FFE00
3FFE00
0FFF00
03FF80
00FF80
003F80
001F80
603F80
7FFF00
7FFF00
7FFC00
7FF000
ENDCHAR
STARTCHAR dieresis
ENCODING 168
SWIDTH 675 0
DWIDTH 23 0
BBX 11 4 6 21
BITMAP
F1E0
F1E0
F1E0
F1E0
ENDCHAR
STARTCHAR copyright
ENCODING 169
SWIDTH 825 0
DWIDTH 28 0
BBX 26 25 1 0
BITMAP
007F8000
01FFE000
07FFF800
0FC0FC00
1F003E00
3C000F00
383FC700
78FFC780
71F04380
F1E003C0
E3C001C0
E3C001C0
E3C001C0
E3C001C0
E3C001C0
F1E003C0
71F04380
787FC780
383FC700
3C000F00
1F003E00
0FC0FC00
07FFF800
01FFE000
007F8000
ENDCHAR
STARTCHAR ordfeminine
ENCODING 170
SWIDTH 536 0
DWIDTH 18 0
BBX 17 14 1 11
BITMAP
1FE000
7FF800
7FFC00
41FE00
00FE00
00FE00
1FFE00
7FFE00
FFFE00
FCFE00
FCFF80
FFFF80
7FBF80
3F1F80
ENDCHAR
STARTCHAR guillemotleft
ENCODING 171
SWIDTH 614 0
DWIDTH 21 0
BBX 19 16 1 1
BITMAP
030180
0383C0
07C7E0
0FEFE0
1F8FC0
3F9F80
7F3F80
FEFF00
FE7F00
7F3F80
3F9F80
1F8FC0
0FCFE0
07E7E0
0383C0
030180
ENDCHAR
STARTCHAR logicalnot
ENCODING 172
SWIDTH 687 0
DWIDTH 23 0
BBX 20 13 2 3
BITMAP
FFFFF0
FFFFF0
FFFFF0
FFFFF0
0000F0
0000F0
0000F0
0000F0
0000F0
0000F0
0000F0
0000F0
0000F0
ENDCHAR
STARTCHAR hyphen
ENCODING 173
SWIDTH 289 0
DWIDTH 10 0
BBX 7 4 1 9
BITMAP
FE
FE
FE
FE
ENDCHAR
STARTCHAR registered
ENCODING 174
SWIDTH 687 0
DWIDTH 23 0
BBX 17 18 3 7
BITMAP
03E000
0FF800
1FFC00
3C1E00
7FFF00
77FF00
F73F80
E73B80
E77380
E7E380
E77380
F77780
777F00
780F00
3C1E00
1FFC00
0FF800
03E000
ENDCHAR
STARTCHAR macron
ENCODING 175
SWIDTH 675 0
DWIDTH 23 0
BBX 11 4 6 21
BITMAP
FFE0
FFE0
FFE0
FFE0
ENDCHAR
STARTCHAR degree
ENCODING 176
SWIDTH 241 0
DWIDTH 8 0
BBX 6 6 1 19
BITMAP
78
FC
CC
CC
FC
78
ENDCHAR
STARTCHAR plusminus
ENCODING 177
SWIDTH 687 0
DWIDTH 23 0
BBX 20 21 2 0
BITMAP
00F000
00F000
00F000
00F000
00F000
00F000
FFFFF0
FFFFF0
FFFFF0
FFFFF0
00F000
00F000
00F000
00F000
00F000
000000
000000
FFFFF0
FFFFF0
FFFFF0
FFFFF0
ENDCHAR
STARTCHAR twosuperior
ENCODING 178
SWIDTH 536 0
DWIDTH 14 0
BBX 11 15 -22 10
BITMAP
7F00
FFC0
C1E0
00E0
00E0
00E0
01C0
0380
0700
0E00
3C00
7800
F800
FFE0
FFE0
ENDCHAR
STARTCHAR threesuperior
ENCODING 179
SWIDTH 536 0
DWIDTH 14 0
BBX 11 15 -23 10
BITMAP
7F00
FFC0
C1E0
00E0
00E0
01C0
7F80
7F00
03C0
01E0
00E0
00E0
C1E0
FFC0
FF00
ENDCHAR
STARTCHAR acute
ENCODING 180
SWIDTH 675 0
DWIDTH 23 0
BBX 9 5 8 21
BITMAP
1F80
1E00
3C00
7800
F000
ENDCHAR
STARTCHAR mu
ENCODING 181
SWIDTH 699 0
DWIDTH 24 0
BBX 18 24 3 -6
BITMAP
FE1FC0
FE1FC0
FE1FC0
FE1FC0
FE1FC0
FE1FC0
FE1FC0
FE1FC0
FE1FC0
FE1FC0
FE1FC0
FE3FC0
FE3FC0
FFFFC0
FFFFC0
FFFFC0
FFDFC0
FF9FC0
FE0000
FE0000
FE0000
FE0000
FE0000
FE0000
ENDCHAR
STARTCHAR paragraph
ENCODING 182
SWIDTH 693 0
DWIDTH 23 0
BBX 14 31 3 -6
BITMAP
1FFC
7FFC
7FFC
FFFC
FFFC
FFFC
FFFC
FFFC
FFFC
7FFC
7FFC
3FFC
0FFC
03FC
03FC
03FC
03FC
03FC
03FC
03FC
03FC
03FC
03FC
03FC
03FC
03FC
03FC
03FC
03FC
03FC
03FC
ENDCHAR
STARTCHAR periodcentered
ENCODING 183
SWIDTH 343 0
DWIDTH 23 0
BBX 5 5 9 7
BITMAP
F8
F8
F8
F8
F8
ENDCHAR
STARTCHAR cedilla
ENCODING 184
SWIDTH 675 0
DWIDTH 23 0
BBX 7 7 8 -7
BITMAP
38
30
78
1E
1E
FE
FC
ENDCHAR
STARTCHAR onesuperior
ENCODING 185
SWIDTH 536 0
DWIDTH 14 0
BBX 5 15 -24 10
BITMAP
F8
F8
38
38
38
38
38
38
38
38
38
38
38
38
38
ENDCHAR
STARTCHAR ordmasculine
ENCODING 186
SWIDTH 536 0
DWIDTH 18 0
BBX 17 14 1 11
BITMAP
07F000
1FFC00
3FFE00
7E7F00
FC3F80
FC3F80
FC3F80
FC3F80
FC3F80
FC3F80
7E7F00
3FFE00
1FFC00
07F000
ENDCHAR
STARTCHAR guillemotright
ENCODING 187
SWIDTH 614 0
DWIDTH 21 0
BBX 19 16 1 1
BITMAP
301800
783800
FCFC00
FE7E00
7E3F00
3F3F80
3F9FC0
1FCFE0
1FEFE0
3F9FC0
3F3F80
7E3F00
FEFE00
FC7C00
783800
301000
ENDCHAR
STARTCHAR onequarter
ENCODING 188
SWIDTH 1066 0
DWIDTH 31 0
BBX 26 25 7 0
BITMAP
F8003F00
F8007E00
3800FE00
3800FC00
3801F800
3803F000
3807F000
3807E000
380FC000
381F8000
383F8380
383F0780
387E0F80
38FC1F80
39FC3B80
01F87380
03F06380
07E0C380
0FE1C380
0FC1FFC0
1F81FFC0
3F000380
7F000380
7E000380
FC000380
ENDCHAR
STARTCHAR onehalf
ENCODING 189
SWIDTH 1066 0
DWIDTH 31 0
BBX 26 25 7 0
BITMAP
F8003F00
F8007E00
3800FE00
3800FC00
3801F800
3803F000
3807F000
3807E000
380FC000
381F8000
383FFE00
383FFF80
387F83C0
38FC01C0
39FC01C0
01F801C0
03F00380
07E00700
0FE00E00
0FC01C00
1F807800
3F00F000
7F01F000
7E01FFC0
FC01FFC0
ENDCHAR
STARTCHAR threequarters
ENCODING 190
SWIDTH 1120 0
DWIDTH 31 0
BBX 28 25 9 0
BITMAP
7F000FC0
FFC01F80
C1E03F80
00E03F00
00E07E00
01C0FC00
7F81FC00
7F01F800
03C3F000
01E7E000
00EFE0E0
00EFC1E0
C1FF83E0
FFFF07E0
FF7F0EE0
007E1CE0
00FC18E0
01F830E0
03F870E0
03F07FF0
07E07FF0
0FC000E0
1FC000E0
1F8000E0
3F0000E0
ENDCHAR
STARTCHAR questiondown
ENCODING 191
SWIDTH 572 0
DWIDTH 19 0
BBX 17 25 1 -7
BITMAP
03F800
03F800
03F800
03F800
03F800
000000
000000
03F800
03F800
03F800
03F000
07E000
0FC000
1F8000
3F0000
3F0000
7E0000
FE0000
FE0000
FE0080
FF0380
7FFF80
7FFF80
1FFF80
07FE00
ENDCHAR
STARTCHAR Agrave
ENCODING 192
SWIDTH 773 0
DWIDTH 26 0
BBX 25 32 1 0
BITMAP
00FC0000
003C0000
001E0000
000F0000
00078000
00000000
00000000
007F0000
007F8000
00FF8000
00FF8000
00FFC000
01FFC000
01FFE000
01EFE000
03CFE000
03CFF000
07C7F000
0787F000
0787F800
0F83F800
0F03FC00
0FFFFC00
1FFFFC00
1FFFFE00
1FFFFE00
3C00FE00
3C007F00
7C007F00
78003F80
78003F80
F0003F80
ENDCHAR
STARTCHAR Aacute
ENCODING 193
SWIDTH 773 0
DWIDTH 26 0
BBX 25 32 1 0
BITMAP
0007E000
00078000
000F0000
001E0000
003C0000
00000000
00000000
007F0000
007F8000
00FF8000
00FF8000
00FFC000
01FFC000
01FFE000
01EFE000
03CFE000
03CFF000
07C7F000
0787F000
0787F800
0F83F800
0F03FC00
0FFFFC00
1FFFFC00
1FFFFE00
1FFFFE00
3C00FE00
3C007F00
7C007F00
78003F80
78003F80
F0003F80
ENDCHAR
STARTCHAR Acircumflex
ENCODING 194
SWIDTH 773 0
DWIDTH 26 0
BBX 25 32 1 0
BITMAP
003F0000
003F0000
007F8000
00F3C000
01E1E000
00000000
00000000
007F0000
007F8000
00FF8000
00FF8000
00FFC000
01FFC000
01FFE000
01EFE000
03CFE000
03CFF000
07C7F000
0787F000
0787F800
0F83F800
0F03FC00
0FFFFC00
1FFFFC00
1FFFFE00
1FFFFE00
3C00FE00
3C007F00
7C007F00
78003F80
78003F80
F0003F80
ENDCHAR
STARTCHAR Atilde
ENCODING 195
SWIDTH 773 0
DWIDTH 26 0
BBX 25 32 1 0
BITMAP
0078E000
00FFE000
00FFC000
01FFC000
01C78000
00000000
00000000
007F0000
007F8000
00FF8000
00FF8000
00FFC000
01FFC000
01FFE000
01EFE000
03CFE000
03CFF000
07C7F000
0787F000
0787F800
0F83F800
0F03FC00
0FFFFC00
1FFFFC00
1FFFFE00
1FFFFE00
3C00FE00
3C007F00
7C007F00
78003F80
78003F80
F0003F80
ENDCHAR
STARTCHAR Adieresis
ENCODING 196
SWIDTH 773 0
DWIDTH 26 0
BBX 25 31 1 0
BITMAP
00F1E000
00F1E000
00F1E000
00F1E000
00000000
00000000
007F0000
007F8000
00FF8000
00FF8000
00FFC000
01FFC000
01FFE000
01EFE000
03CFE000
03CFF000
07C7F000
0787F000
0787F800
0F83F800
0F03FC00
0FFFFC00
1FFFFC00
1FFFFE00
1FFFFE00
3C00FE00
3C007F00
7C007F00
78003F80
78003F80
F0003F80
ENDCHAR
STARTCHAR Aring
ENCODING 197
SWIDTH 773 0
DWIDTH 26 0
BBX 25 33 1 0
BITMAP
001C0000
003E0000
00360000
00360000
003E0000
001C0000
00000000
00000000
007F0000
007F8000
00FF8000
00FF8000
00FFC000
01FFC000
01FFE000
01EFE000
03CFE000
03CFF000
07C7F000
0787F000
0787F800
0F83F800
0F03FC00
0FFFFC00
1FFFFC00
1FFFFE00
1FFFFE00
3C00FE00
3C007F00
7C007F00
78003F80
78003F80
F0003F80
ENDCHAR
STARTCHAR AE
ENCODING 198
SWIDTH 997 0
DWIDTH 34 0
BBX 32 25 0 0
BITMAP
0007FFFE
0007FFFE
000FFFFE
000FFFFE
001FF800
003FF800
003FF800
007FF800
007BF800
00FBF800
00F3FFF8
01F3FFF8
01E3FFF8
03E3FFF8
03C3F800
07FFF800
07FFF800
0FFFF800
1FFFF800
1E03F800
3E03F800
3C03FFFF
7C03FFFF
7803FFFF
F803FFFF
ENDCHAR
STARTCHAR Ccedilla
ENCODING 199
SWIDTH 726 0
DWIDTH 25 0
BBX 23 32 1 -7
BITMAP
003FF8
01FFFE
07FFFE
1FFFFE
1FF00E
3FC000
7F8000
7F0000
7F0000
FE0000
FE0000
FE0000
FE0000
FE0000
FE0000
FF0000
7F0000
7F8000
7FC002
3FF00E
1FFFFE
1FFFFE
07FFFE
03FFFE
007FE0
003800
003000
007800
001E00
001E00
00FE00
00FC00
ENDCHAR
STARTCHAR Egrave
ENCODING 200
SWIDTH 645 0
DWIDTH 22 0
BBX 18 32 3 0
BITMAP
1F8000
078000
03C000
01E000
00F000
000000
000000
FFFF80
FFFF80
FFFF80
FFFF80
FE0000
FE0000
FE0000
FE0000
FE0000
FE0000
FFFE00
FFFE00
FFFE00
FFFE00
FE0000
FE0000
FE0000
FE0000
FE0000
FE0000
FE0000
FFFFC0
FFFFC0
FFFFC0
FFFFC0
ENDCHAR
STARTCHAR Eacute
ENCODING 201
SWIDTH 645 0
DWIDTH 22 0
BBX 18 32 3 0
BITMAP
00FC00
00F000
01E000
03C000
078000
000000
000000
FFFF80
FFFF80
FFFF80
FFFF80
FE0000
FE0000
FE0000
FE0000
FE0000
FE0000
FFFE00
FFFE00
FFFE00
FFFE00
FE0000
FE0000
FE0000
FE0000
FE0000
FE0000
FE0000
FFFFC0
FFFFC0
FFFFC0
FFFFC0
ENDCHAR
STARTCHAR Ecircumflex
ENCODING 202
SWIDTH 645 0
DWIDTH 22 0
BBX 18 32 3 0
BITMAP
03F000
03F000
07F800
0F3C00
1E1E00
000000
000000
FFFF80
FFFF80
FFFF80
FFFF80
FE0000
FE0000
FE0000
FE0000
FE0000
FE0000
FFFE00
FFFE00
FFFE00
FFFE00
FE0000
FE0000
FE0000
FE0000
FE0000
FE0000
FE0000
FFFFC0
FFFFC0
FFFFC0
FFFFC0
ENDCHAR
STARTCHAR Edieresis
ENCODING 203
SWIDTH 645 0
DWIDTH 22 0
BBX 18 31 3 0
BITMAP
1E3C00
1E3C00
1E3C00
1E3C00
000000
000000
FFFF80
FFFF80
FFFF80
FFFF80
FE0000
FE0000
FE0000
FE0000
FE0000
FE0000
FFFE00
FFFE00
FFFE00
FFFE00
FE0000
FE0000
FE0000
FE0000
FE0000
FE0000
FE0000
FFFFC0
FFFFC0
FFFFC0
FFFFC0
ENDCHAR
STARTCHAR Igrave
ENCODING 204
SWIDTH 361 0
DWIDTH 12 0
BBX 9 31 1 0
BITMAP
FC00
3C00
1E00
0F00
0780
0000
3F80
3F80
3F80
3F80
3F80
3F80
3F80
3F80
3F80
3F80
3F80
3F80
3F80
3F80
3F80
3F80
3F80
3F80
3F80
3F80
3F80
3F80
3F80
3F80
3F80
ENDCHAR
STARTCHAR Iacute
ENCODING 205
SWIDTH 361 0
DWIDTH 12 0
BBX 9 31 3 0
BITMAP
1F80
1E00
3C00
7800
F000
0000
FE00
FE00
FE00
FE00
FE00
FE00
FE00
FE00
FE00
FE00
FE00
FE00
FE00
FE00
FE00
FE00
FE00
FE00
FE00
FE00
FE00
FE00
FE00
FE00
FE00
ENDCHAR
STARTCHAR Icircumflex
ENCODING 206
SWIDTH 361 0
DWIDTH 12 0
BBX 12 31 1 0
BITMAP
1F80
1F80
3FC0
79E0
F0F0
0000
3F80
3F80
3F80
3F80
3F80
3F80
3F80
3F80
3F80
3F80
3F80
3F80
3F80
3F80
3F80
3F80
3F80
3F80
3F80
3F80
3F80
3F80
3F80
3F80
3F80
ENDCHAR
STARTCHAR Idieresis
ENCODING 207
SWIDTH 361 0
DWIDTH 12 0
BBX 11 30 1 0
BITMAP
F1E0
F1E0
F1E0
F1E0
0000
3F80
3F80
3F80
3F80
3F80
3F80
3F80
3F80
3F80
3F80
3F80
3F80
3F80
3F80
3F80
3F80
3F80
3F80
3F80
3F80
3F80
3F80
3F80
3F80
3F80
ENDCHAR
STARTCHAR Eth
ENCODING 208
SWIDTH 819 0
DWIDTH 28 0
BBX 27 25 0 0
BITMAP
1FFFE000
1FFFFC00
1FFFFE00
1FFFFF00
1FC0FF80
1FC03FC0
1FC03FC0
1FC01FC0
1FC00FE0
1FC00FE0
FFFE0FE0
FFFE0FE0
FFFE0FE0
FFFE0FE0
1FC00FE0
1FC00FE0
1FC01FC0
1FC01FC0
1FC03FC0
1FC0FF80
1FFFFF80
1FFFFF00
1FFFFE00
1FFFF800
1FFFE000
ENDCHAR
STARTCHAR Ntilde
ENCODING 209
SWIDTH 783 0
DWIDTH 27 0
BBX 21 32 3 0
BITMAP
01E380
03FF80
03FF00
07FF00
071E00
000000
000000
FC00F8
FE00F8
FF00F8
FF00F8
FF80F8
FFC0F8
FFE0F8
FFE0F8
FFF0F8
FFF8F8
FFF8F8
FBFCF8
FBFEF8
F9FEF8
F8FFF8
F8FFF8
F87FF8
F83FF8
F83FF8
F81FF8
F80FF8
F807F8
F807F8
F803F8
F801F8
ENDCHAR
STARTCHAR Ograve
ENCODING 210
SWIDTH 855 0
DWIDTH 29 0
BBX 27 32 1 0
BITMAP
007E0000
001E0000
000F0000
00078000
0003C000
00000000
00000000
007FC000
03FFF800
07FFFC00
0FFFFE00
1FE0FF00
3FC07F80
7F803FC0
7F001FC0
7F001FC0
FE000FE0
FE000FE0
FE000FE0
FE000FE0
FE000FE0
FE000FE0
FE000FE0
7F001FC0
7F001FC0
7F803FC0
3FC07F80
1FE0FF00
0FFFFE00
07FFFC00
03FFF800
007FC000
ENDCHAR
STARTCHAR Oacute
ENCODING 211
SWIDTH 855 0
DWIDTH 29 0
BBX 27 32 1 0
BITMAP
0003F000
0003C000
00078000
000F0000
001E0000
00000000
00000000
007FC000
03FFF800
07FFFC00
0FFFFE00
1FE0FF00
3FC07F80
7F803FC0
7F001FC0
7F001FC0
FE000FE0
FE000FE0
FE000FE0
FE000FE0
FE000FE0
FE000FE0
FE000FE0
7F001FC0
7F001FC0
7F803FC0
3FC07F80
1FE0FF00
0FFFFE00
07FFFC00
03FFF800
007FC000
ENDCHAR
STARTCHAR Ocircumflex
ENCODING 212
SWIDTH 855 0
DWIDTH 29 0
BBX 27 32 1 0
BITMAP
001F8000
001F8000
003FC000
0079E000
00F0F000
00000000
00000000
007FC000
03FFF800
07FFFC00
0FFFFE00
1FE0FF00
3FC07F80
7F803FC0
7F001FC0
7F001FC0
FE000FE0
FE000FE0
FE000FE0
FE000FE0
FE000FE0
FE000FE0
FE000FE0
7F001FC0
7F001FC0
7F803FC0
3FC07F80
1FE0FF00
0FFFFE00
07FFFC00
03FFF800
007FC000
ENDCHAR
STARTCHAR Otilde
ENCODING 213
SWIDTH 855 0
DWIDTH 29 0
BBX 27 32 1 0
BITMAP
003C7000
007FF000
007FE000
00FFE000
00E3C000
00000000
00000000
007FC000
03FFF800
07FFFC00
0FFFFE00
1FE0FF00
3FC07F80
7F803FC0
7F001FC0
7F001FC0
FE000FE0
FE000FE0
FE000FE0
FE000FE0
FE000FE0
FE000FE0
FE000FE0
7F001FC0
7F001FC0
7F803FC0
3FC07F80
1FE0FF00
0FFFFE00
07FFFC00
03FFF800
007FC000
ENDCHAR
STARTCHAR Odieresis
ENCODING 214
SWIDTH 855 0
DWIDTH 29 0
BBX 27 31 1 0
BITMAP
0078F000
0078F000
0078F000
0078F000
00000000
00000000
007FC000
03FFF800
07FFFC00
0FFFFE00
1FE0FF00
3FC07F80
7F803FC0
7F001FC0
7F001FC0
FE000FE0
FE000FE0
FE000FE0
FE000FE0
FE000FE0
FE000FE0
FE000FE0
7F001FC0
7F001FC0
7F803FC0
3FC07F80
1FE0FF00
0FFFFE00
07FFFC00
03FFF800
007FC000
ENDCHAR
STARTCHAR multiply
ENCODING 215
SWIDTH 687 0
DWIDTH 23 0
BBX 20 21 2 0
BITMAP
200040
7000E0
F801F0
7C03E0
3E07C0
3F0FC0
1F9F80
0FFF00
07FE00
03FC00
01F800
03FC00
07FE00
0FFF00
1F9F80
3F0FC0
3E07C0
7C03E0
F801F0
7000E0
200040
ENDCHAR
STARTCHAR Oslash
ENCODING 216
SWIDTH 855 0
DWIDTH 29 0
BBX 27 25 1 0
BITMAP
007FC7E0
03FFFFC0
07FFFF80
0FFFFF00
1FE0FF00
3FC07F80
7F80FFC0
7F01FFC0
7F03FFC0
FE07EFE0
FE07CFE0
FE0F8FE0
FE1F0FE0
FE3E0FE0
FE7C0FE0
FEFC0FE0
7FF81FC0
7FF01FC0
7FE03FC0
3FC07F80
1FE0FF00
1FFFFE00
3FFFFC00
7FFFF800
FC7FC000
ENDCHAR
STARTCHAR Ugrave
ENCODING 217
SWIDTH 783 0
DWIDTH 27 0
BBX 21 32 3 0
BITMAP
03F000
00F000
007800
003C00
001E00
000000
000000
FE03F8
FE03F8
FE03F8
FE03F8
FE03F8
FE03F8
FE03F8
FE03F8
FE03F8
FE03F8
FE03F8
FE03F8
FE03F8
FE03F8
FE03F8
FE03F8
FE03F8
FE03F8
FE03F8
7F07F0
7F8FF0
3FFFE0
1FFFE0
0FFF80
01FE00
ENDCHAR
STARTCHAR Uacute
ENCODING 218
SWIDTH 783 0
DWIDTH 27 0
BBX 21 32 3 0
BITMAP
001F80
001E00
003C00
007800
00F000
000000
000000
FE03F8
FE03F8
FE03F8
FE03F8
FE03F8
FE03F8
FE03F8
FE03F8
FE03F8
FE03F8
FE03F8
FE03F8
FE03F8
FE03F8
FE03F8
FE03F8
FE03F8
FE03F8
FE03F8
7F07F0
7F8FF0
3FFFE0
1FFFE0
0FFF80
01FE00
ENDCHAR
STARTCHAR Ucircumflex
ENCODING 219
SWIDTH 783 0
DWIDTH 27 0
BBX 21 32 3 0
BITMAP
00FC00
00FC00
01FE00
03CF00
078780
000000
000000
FE03F8
FE03F8
FE03F8
FE03F8
FE03F8
FE03F8
FE03F8
FE03F8
FE03F8
FE03F8
FE03F8
FE03F8
FE03F8
FE03F8
FE03F8
FE03F8
FE03F8
FE03F8
FE03F8
7F07F0
7F8FF0
3FFFE0
1FFFE0
0FFF80
01FE00
ENDCHAR
STARTCHAR Udieresis
ENCODING 220
SWIDTH 783 0
DWIDTH 27 0
BBX 21 31 3 0
BITMAP
03C780
03C780
03C780
03C780
000000
000000
FE03F8
FE03F8
FE03F8
FE03F8
FE03F8
FE03F8
FE03F8
FE03F8
FE03F8
FE03F8
FE03F8
FE03F8
FE03F8
FE03F8
FE03F8
FE03F8
FE03F8
FE03F8
FE03F8
7F07F0
7F8FF0
3FFFE0
1FFFE0
0FFF80
01FE00
ENDCHAR
STARTCHAR Yacute
ENCODING 221
SWIDTH 738 0
DWIDTH 25 0
BBX 23 32 1 0
BITMAP
000FC0
000F00
001E00
003C00
007800
000000
000000
FF003E
FF003C
7F807C
3FC0F8
3FC0F0
1FE1F0
1FE1E0
0FF3E0
0FF7C0
07FFC0
07FF80
03FF80
03FF00
01FE00
00FE00
00FE00
00FE00
00FE00
00FE00
00FE00
00FE00
00FE00
00FE00
00FE00
00FE00
ENDCHAR
STARTCHAR Thorn
ENCODING 222
SWIDTH 657 0
DWIDTH 22 0
BBX 19 25 3 0
BITMAP
FE0000
FE0000
FE0000
FE0000
FE0000
FFFE00
FFFF80
FFFFC0
FFFFE0
FE1FE0
FE0FE0
FE0FE0
FE0FE0
FE0FE0
FE1FE0
FE3FC0
FFFFC0
FFFF80
FFFF00
FFF800
FE0000
FE0000
FE0000
FE0000
FE0000
ENDCHAR
STARTCHAR germandbls
ENCODING 223
SWIDTH 724 0
DWIDTH 25 0
BBX 21 26 3 0
BITMAP
07F800
1FFE00
3FFF00
7FFF00
7F1F00
FE0F00
FE0F00
FE1E00
FE1E00
FE3C00
FE7C00
FE7E00
FE7F00
FE7FC0
FE7FE0
FE7FF0
FE3FF0
FE1FF8
FE07F8
FE03F8
FE01F8
FE01F8
FE3FF8
FE3FF0
FE3FE0
FE3FC0
ENDCHAR
STARTCHAR agrave
ENCODING 224
SWIDTH 623 0
DWIDTH 21 0
BBX 19 25 1 0
BITMAP
07E000
01E000
00F000
007800
003C00
000000
000000
0FF800
3FFE00
3FFF00
3FFF80
307F80
203F80
003F80
0FFF80
3FFF80
7FFF80
FFFF80
FF3F80
FE3F80
FE7F80
FFFFE0
7FFFE0
3FDFE0
1F8FE0
ENDCHAR
STARTCHAR aacute
ENCODING 225
SWIDTH 623 0
DWIDTH 21 0
BBX 19 25 1 0
BITMAP
003F00
003C00
007800
00F000
01E000
000000
000000
0FF800
3FFE00
3FFF00
3FFF80
307F80
203F80
003F80
0FFF80
3FFF80
7FFF80
FFFF80
FF3F80
FE3F80
FE7F80
FFFFE0
7FFFE0
3FDFE0
1F8FE0
ENDCHAR
STARTCHAR acircumflex
ENCODING 226
SWIDTH 623 0
DWIDTH 21 0
BBX 19 25 1 0
BITMAP
01F800
01F800
03FC00
079E00
0F0F00
000000
000000
0FF800
3FFE00
3FFF00
3FFF80
307F80
203F80
003F80
0FFF80
3FFF80
7FFF80
FFFF80
FF3F80
FE3F80
FE7F80
FFFFE0
7FFFE0
3FDFE0
1F8FE0
ENDCHAR
STARTCHAR atilde
ENCODING 227
SWIDTH 623 0
DWIDTH 21 0
BBX 19 25 1 0
BITMAP
03C700
07FF00
07FE00
0FFE00
0E3C00
000000
000000
0FF800
3FFE00
3FFF00
3FFF80
307F80
203F80
003F80
0FFF80
3FFF80
7FFF80
FFFF80
FF3F80
FE3F80
FE7F80
FFFFE0
7FFFE0
3FDFE0
1F8FE0
ENDCHAR
STARTCHAR adieresis
ENCODING 228
SWIDTH 623 0
DWIDTH 21 0
BBX 19 24 1 0
BITMAP
078F00
078F00
078F00
078F00
000000
000000
0FF800
3FFE00
3FFF00
3FFF80
307F80
203F80
003F80
0FFF80
3FFF80
7FFF80
FFFF80
FF3F80
FE3F80
FE7F80
FFFFE0
7FFFE0
3FDFE0
1F8FE0
ENDCHAR
STARTCHAR aring
ENCODING 229
SWIDTH 623 0
DWIDTH 21 0
BBX 19 26 1 0
BITMAP
00E000
01F000
01B000
01B000
01F000
00E000
000000
000000
0FF800
3FFE00
3FFF00
3FFF80
307F80
203F80
003F80
0FFF80
3FFF80
7FFF80
FFFF80
FF3F80
FE3F80
FE7F80
FFFFE0
7FFFE0
3FDFE0
1F8FE0
ENDCHAR
STARTCHAR ae
ENCODING 230
SWIDTH 913 0
DWIDTH 31 0
BBX 29 18 1 0
BITMAP
0FF07F00
3FFCFFC0
3FFFFFE0
3FFFFFF0
383FC7F0
201FC3F0
001F83F8
07FFFFF8
3FFFFFF8
7FFFFFF8
FFFFFFF8
FF1F8000
FE1FC000
FE3FE018
FFFFFFF8
7FF7FFF8
3FE1FFF8
1F807FE0
ENDCHAR
STARTCHAR ccedilla
ENCODING 231
SWIDTH 545 0
DWIDTH 19 0
BBX 16 25 1 -7
BITMAP
03FE
0FFF
1FFF
3FFF
7F83
7F00
FF00
FE00
FE00
FE00
FE00
FE00
7F00
7F81
3FFF
3FFF
0FFF
03FF
01C0
0180
03C0
00F0
00F0
07F0
07E0
ENDCHAR
STARTCHAR egrave
ENCODING 232
SWIDTH 614 0
DWIDTH 21 0
BBX 18 25 1 0
BITMAP
0FC000
03C000
01E000
00F000
007800
000000
000000
03F800
0FFE00
3FFF00
3FFF80
7E3F80
7E1FC0
FFFFC0
FFFFC0
FFFFC0
FFFFC0
FE0000
FE0000
7F80C0
7FFFC0
3FFFC0
1FFFC0
0FFFC0
01FE00
ENDCHAR
STARTCHAR eacute
ENCODING 233
SWIDTH 614 0
DWIDTH 21 0
BBX 18 25 1 0
BITMAP
007E00
007800
00F000
01E000
03C000
000000
000000
03F800
0FFE00
3FFF00
3FFF80
7E3F80
7E1FC0
FFFFC0
FFFFC0
FFFFC0
FFFFC0
FE0000
FE0000
7F80C0
7FFFC0
3FFFC0
1FFFC0
0FFFC0
01FE00
ENDCHAR
STARTCHAR ecircumflex
ENCODING 234
SWIDTH 614 0
DWIDTH 21 0
BBX 18 25 1 0
BITMAP
01F800
01F800
03FC00
079E00
0F0F00
000000
000000
03F800
0FFE00
3FFF00
3FFF80
7E3F80
7E1FC0
FFFFC0
FFFFC0
FFFFC0
FFFFC0
FE0000
FE0000
7F80C0
7FFFC0
3FFFC0
1FFFC0
0FFFC0
01FE00
ENDCHAR
STARTCHAR edieresis
ENCODING 235
SWIDTH 614 0
DWIDTH 21 0
BBX 18 24 1 0
BITMAP
0F1E00
0F1E00
0F1E00
0F1E00
000000
000000
03F800
0FFE00
3FFF00
3FFF80
7E3F80
7E1FC0
FFFFC0
FFFFC0
FFFFC0
FFFFC0
FE0000
FE0000
7F80C0
7FFFC0
3FFFC0
1FFFC0
0FFFC0
01FE00
ENDCHAR
STARTCHAR igrave
ENCODING 236
SWIDTH 361 0
DWIDTH 12 0
BBX 9 24 1 0
BITMAP
FC00
3C00
1E00
0F00
0780
0000
3F80
3F80
3F80
3F80
3F80
3F80
3F80
3F80
3F80
3F80
3F80
3F80
3F80
3F80
3F80
3F80
3F80
3F80
ENDCHAR
STARTCHAR iacute
ENCODING 237
SWIDTH 361 0
DWIDTH 12 0
BBX 9 24 3 0
BITMAP
1F80
1E00
3C00
7800
F000
0000
FE00
FE00
FE00
FE00
FE00
FE00
FE00
FE00
FE00
FE00
FE00
FE00
FE00
FE00
FE00
FE00
FE00
FE00
ENDCHAR
STARTCHAR icircumflex
ENCODING 238
SWIDTH 361 0
DWIDTH 12 0
BBX 12 24 1 0
BITMAP
1F80
1F80
3FC0
79E0
F0F0
0000
3F80
3F80
3F80
3F80
3F80
3F80
3F80
3F80
3F80
3F80
3F80
3F80
3F80
3F80
3F80
3F80
3F80
3F80
ENDCHAR
STARTCHAR idieresis
ENCODING 239
SWIDTH 361 0
DWIDTH 12 0
BBX 11 23 1 0
BITMAP
F1E0
F1E0
F1E0
F1E0
0000
3F80
3F80
3F80
3F80
3F80
3F80
3F80
3F80
3F80
3F80
3F80
3F80
3F80
3F80
3F80
3F80
3F80
3F80
ENDCHAR
STARTCHAR eth
ENCODING 240
SWIDTH 675 0
DWIDTH 23 0
BBX 20 30 1 0
BITMAP
003000
007800
007C00
00F800
F9F000
FFE000
FFF000
FFFC00
1FFE00
3EFF00
7C3F80
383FC0
1BFFC0
0FFFE0
1FFFE0
3FFFE0
7F8FF0
7F0FF0
FE07F0
FE07F0
FE07F0
FE07F0
FE07F0
FE07E0
7F0FE0
7F9FE0
3FFFC0
1FFF80
0FFF00
03F800
ENDCHAR
STARTCHAR ntilde
ENCODING 241
SWIDTH 693 0
DWIDTH 24 0
BBX 18 25 3 0
BITMAP
078E00
0FFE00
0FFC00
1FFC00
1C7800
000000
000000
FE3E00
FEFF80
FEFF80
FFFFC0
FFFFC0
FFFFC0
FF1FC0
FF1FC0
FE1FC0
FE1FC0
FE1FC0
FE1FC0
FE1FC0
FE1FC0
FE1FC0
FE1FC0
FE1FC0
FE1FC0
ENDCHAR
STARTCHAR ograve
ENCODING 242
SWIDTH 675 0
DWIDTH 23 0
BBX 20 25 1 0
BITMAP
07E000
01E000
00F000
007800
003C00
000000
000000
03FC00
0FFF00
1FFF80
3FFFC0
7F9FE0
7F0FE0
FE07F0
FE07F0
FE07F0
FE07F0
FE07F0
FE07F0
7F0FE0
7F9FE0
3FFFC0
1FFF80
0FFF00
03FC00
ENDCHAR
STARTCHAR oacute
ENCODING 243
SWIDTH 675 0
DWIDTH 23 0
BBX 20 25 1 0
BITMAP
003F00
003C00
007800
00F000
01E000
000000
000000
03FC00
0FFF00
1FFF80
3FFFC0
7F9FE0
7F0FE0
FE07F0
FE07F0
FE07F0
FE07F0
FE07F0
FE07F0
7F0FE0
7F9FE0
3FFFC0
1FFF80
0FFF00
03FC00
ENDCHAR
STARTCHAR ocircumflex
ENCODING 244
SWIDTH 675 0
DWIDTH 23 0
BBX 20 25 1 0
BITMAP
01F800
01F800
03FC00
079E00
0F0F00
000000
000000
03FC00
0FFF00
1FFF80
3FFFC0
7F9FE0
7F0FE0
FE07F0
FE07F0
FE07F0
FE07F0
FE07F0
FE07F0
7F0FE0
7F9FE0
3FFFC0
1FFF80
0FFF00
03FC00
ENDCHAR
STARTCHAR otilde
ENCODING 245
SWIDTH 675 0
DWIDTH 23 0
BBX 20 25 1 0
BITMAP
03C700
07FF00
07FE00
0FFE00
0E3C00
000000
000000
03FC00
0FFF00
1FFF80
3FFFC0
7F9FE0
7F0FE0
FE07F0
FE07F0
FE07F0
FE07F0
FE07F0
FE07F0
7F0FE0
7F9FE0
3FFFC0
1FFF80
0FFF00
03FC00
ENDCHAR
STARTCHAR odieresis
ENCODING 246
SWIDTH 675 0
DWIDTH 23 0
BBX 20 24 1 0
BITMAP
078F00
078F00
078F00
078F00
000000
000000
03FC00
0FFF00
1FFF80
3FFFC0
7F9FE0
7F0FE0
FE07F0
FE07F0
FE07F0
FE07F0
FE07F0
FE07F0
7F0FE0
7F9FE0
3FFFC0
1FFF80
0FFF00
03FC00
ENDCHAR
STARTCHAR divide
ENCODING 247
SWIDTH 687 0
DWIDTH 23 0
BBX 20 21 2 0
BITMAP
01F000
01F000
01F000
01F000
01F000
000000
000000
000000
FFFFF0
FFFFF0
FFFFF0
FFFFF0
000000
000000
000000
000000
01F000
01F000
01F000
01F000
01F000
ENDCHAR
STARTCHAR oslash
ENCODING 248
SWIDTH 675 0
DWIDTH 23 0
BBX 21 18 1 0
BITMAP
03FDF8
0FFFF0
1FFFE0
3FFFC0
7F9FE0
7F1FE0
FE3FF0
FE7FF0
FEFFF0
FFFFF0
FFF7F0
FFE7F0
7FCFE0
7F9FE0
3FFFC0
3FFF80
7FFF00
FFFC00
ENDCHAR
STARTCHAR ugrave
ENCODING 249
SWIDTH 693 0
DWIDTH 24 0
BBX 18 25 3 0
BITMAP
0FC000
03C000
01E000
00F000
007800
000000
000000
FE1FC0
FE1FC0
FE1FC0
FE1FC0
FE1FC0
FE1FC0
FE1FC0
FE1FC0
FE1FC0
FE1FC0
FE1FC0
FE3FC0
FE3FC0
FFFFC0
FFFFC0
7FDFC0
7FDFC0
1F1FC0
ENDCHAR
STARTCHAR uacute
ENCODING 250
SWIDTH 693 0
DWIDTH 24 0
BBX 18 25 3 0
BITMAP
007E00
007800
00F000
01E000
03C000
000000
000000
FE1FC0
FE1FC0
FE1FC0
FE1FC0
FE1FC0
FE1FC0
FE1FC0
FE1FC0
FE1FC0
FE1FC0
FE1FC0
FE3FC0
FE3FC0
FFFFC0
FFFFC0
7FDFC0
7FDFC0
1F1FC0
ENDCHAR
STARTCHAR ucircumflex
ENCODING 251
SWIDTH 693 0
DWIDTH 24 0
BBX 18 25 3 0
BITMAP
03F000
03F000
07F800
0F3C00
1E1E00
000000
000000
FE1FC0
FE1FC0
FE1FC0
FE1FC0
FE1FC0
FE1FC0
FE1FC0
FE1FC0
FE1FC0
FE1FC0
FE1FC0
FE3FC0
FE3FC0
FFFFC0
FFFFC0
7FDFC0
7FDFC0
1F1FC0
ENDCHAR
STARTCHAR udieresis
ENCODING 252
SWIDTH 693 0
DWIDTH 24 0
BBX 18 24 3 0
BITMAP
0F1E00
0F1E00
0F1E00
0F1E00
000000
000000
FE1FC0
FE1FC0
FE1FC0
FE1FC0
FE1FC0
FE1FC0
FE1FC0
FE1FC0
FE1FC0
FE1FC0
FE1FC0
FE3FC0
FE3FC0
FFFFC0
FFFFC0
7FDFC0
7FDFC0
1F1FC0
ENDCHAR
STARTCHAR yacute
ENCODING 253
SWIDTH 645 0
DWIDTH 22 0
BBX 21 32 1 -7
BITMAP
003F00
003C00
007800
00F000
01E000
000000
000000
FF00F8
FF00F0
7F01F0
7F81E0
3F83E0
3F83C0
3FC7C0
1FC780
1FEF80
0FEF00
0FFF00
0FFE00
07FE00
07FC00
07FC00
03F800
03F800
01F800
01F000
03F000
03E000
07E000
0FC000
1FC000
3F8000
ENDCHAR
STARTCHAR thorn
ENCODING 254
SWIDTH 696 0
DWIDTH 24 0
BBX 20 31 3 -7
BITMAP
FE0000
FE0000
FE0000
FE0000
FE0000
FE0000
FE3F00
FE7F80
FEFFC0
FFFFE0
FFFFE0
FF0FF0
FE0FF0
FE07F0
FE07F0
FE07F0
FE07F0
FE07F0
FE0FF0
FF1FE0
FFFFE0
FFFFC0
FEFF80
FE3E00
FE0000
FE0000
FE0000
FE0000
FE0000
FE0000
FE0000
ENDCHAR
STARTCHAR ydieresis
ENCODING 255
SWIDTH 645 0
DWIDTH 22 0
BBX 21 31 1 -7
BITMAP
078F00
078F00
078F00
078F00
000000
000000
FF00F8
FF00F0
7F01F0
7F81E0
3F83E0
3F83C0
3FC7C0
1FC780
1FEF80
0FEF00
0FFF00
0FFE00
07FE00
07FC00
07FC00
03F800
03F800
01F800
01F000
03F000
03E000
07E000
0FC000
1FC000
3F8000
ENDCHAR
STARTCHAR Amacron
ENCODING 256
SWIDTH 773 0
DWIDTH 26 0
BBX 25 30 1 0
BITMAP
01FFC000
01FFC000
01FFC000
01FFC000
00000000
007F0000
007F8000
00FF8000
00FF8000
00FFC000
01FFC000
01FFE000
01EFE000
03CFE000
03CFF000
07C7F000
0787F000
0787F800
0F83F800
0F03FC00
0FFFFC00
1FFFFC00
1FFFFE00
1FFFFE00
3C00FE00
3C007F00
7C007F00
78003F80
78003F80
F0003F80
ENDCHAR
STARTCHAR amacron
ENCODING 257
SWIDTH 623 0
DWIDTH 21 0
BBX 19 23 1 0
BITMAP
0FFE00
0FFE00
0FFE00
0FFE00
000000
0FF800
3FFE00
3FFF00
3FFF80
307F80
203F80
003F80
0FFF80
3FFF80
7FFF80
FFFF80
FF3F80
FE3F80
FE7F80
FFFFE0
7FFFE0
3FDFE0
1F8FE0
ENDCHAR
STARTCHAR Abreve
ENCODING 258
SWIDTH 773 0
DWIDTH 26 0
BBX 25 31 1 0
BITMAP
01E1E000
01FFC000
00FFC000
007F8000
003E0000
00000000
007F0000
007F8000
00FF8000
00FF8000
00FFC000
01FFC000
01FFE000
01EFE000
03CFE000
03CFF000
07C7F000
0787F000
0787F800
0F83F800
0F03FC00
0FFFFC00
1FFFFC00
1FFFFE00
1FFFFE00
3C00FE00
3C007F00
7C007F00
78003F80
78003F80
F0003F80
ENDCHAR
STARTCHAR abreve
ENCODING 259
SWIDTH 623 0
DWIDTH 21 0
BBX 19 24 1 0
BITMAP
1E1E00
1FFC00
0FFC00
07F800
03E000
000000
0FF800
3FFE00
3FFF00
3FFF80
307F80
203F80
003F80
0FFF80
3FFF80
7FFF80
FFFF80
FF3F80
FE3F80
FE7F80
FFFFE0
7FFFE0
3FDFE0
1F8FE0
ENDCHAR
STARTCHAR Aogonek
ENCODING 260
SWIDTH 773 0
DWIDTH 26 0
BBX 25 31 1 -6
BITMAP
007F0000
007F8000
00FF8000
00FF8000
00FFC000
01FFC000
01FFE000
01EFE000
03CFE000
03CFF000
07C7F000
0787F000
0787F800
0F83F800
0F03FC00
0FFFFC00
1FFFFC00
1FFFFE00
1FFFFE00
3C00FE00
3C007F00
7C007F00
78003F80
78003F80
F0003F80
00000000
000E0000
001C0000
001C0000
001F8000
000F8000
ENDCHAR
STARTCHAR aogonek
ENCODING 261
SWIDTH 623 0
DWIDTH 21 0
BBX 19 24 1 -6
BITMAP
0FF800
3FFE00
3FFF00
3FFF80
307F80
203F80
003F80
0FFF80
3FFF80
7FFF80
FFFF80
FF3F80
FE3F80
FE7F80
FFFFE0
7FFFE0
3FDFE0
1F8FE0
000000
00E000
01C000
01C000
01F800
00F800
ENDCHAR
STARTCHAR Cacute
ENCODING 262
SWIDTH 726 0
DWIDTH 25 0
BBX 23 31 1 0
BITMAP
000FC0
000F00
001E00
003C00
007800
000000
003FF8
01FFFE
07FFFE
1FFFFE
1FF00E
3FC000
7F8000
7F0000
7F0000
FE0000
FE0000
FE0000
FE0000
FE0000
FE0000
FF0000
7F0000
7F8000
7FC002
3FF00E
1FFFFE
1FFFFE
07FFFE
03FFFE
007FE0
ENDCHAR
STARTCHAR cacute
ENCODING 263
SWIDTH 545 0
DWIDTH 19 0
BBX 16 24 1 0
BITMAP
007E
0078
00F0
01E0
03C0
0000
03FE
0FFF
1FFF
3FFF
7F83
7F00
FF00
FE00
FE00
FE00
FE00
FE00
7F00
7F81
3FFF
3FFF
0FFF
03FF
ENDCHAR
STARTCHAR Ccircumflex
ENCODING 264
SWIDTH 726 0
DWIDTH 25 0
BBX 23 31 1 0
BITMAP
007E00
007E00
00FF00
01E780
03C3C0
000000
003FF8
01FFFE
07FFFE
1FFFFE
1FF00E
3FC000
7F8000
7F0000
7F0000
FE0000
FE0000
FE0000
FE0000
FE0000
FE0000
FF0000
7F0000
7F8000
7FC002
3FF00E
1FFFFE
1FFFFE
07FFFE
03FFFE
007FE0
ENDCHAR
STARTCHAR ccircumflex
ENCODING 265
SWIDTH 545 0
DWIDTH 19 0
BBX 16 24 1 0
BITMAP
03F0
03F0
07F8
0F3C
1E1E
0000
03FE
0FFF
1FFF
3FFF
7F83
7F00
FF00
FE00
FE00
FE00
FE00
FE00
7F00
7F81
3FFF
3FFF
0FFF
03FF
ENDCHAR
STARTCHAR Cdotaccent
ENCODING 266
SWIDTH 726 0
DWIDTH 25 0
BBX 23 31 1 0
BITMAP
003E00
003E00
003E00
003E00
003E00
000000
003FF8
01FFFE
07FFFE
1FFFFE
1FF00E
3FC000
7F8000
7F0000
7F0000
FE0000
FE0000
FE0000
FE0000
FE0000
FE0000
FF0000
7F0000
7F8000
7FC002
3FF00E
1FFFFE
1FFFFE
07FFFE
03FFFE
007FE0
ENDCHAR
STARTCHAR cdotaccent
ENCODING 267
SWIDTH 545 0
DWIDTH 19 0
BBX 16 24 1 0
BITMAP
03E0
03E0
03E0
03E0
03E0
0000
03FE
0FFF
1FFF
3FFF
7F83
7F00
FF00
FE00
FE00
FE00
FE00
FE00
7F00
7F81
3FFF
3FFF
0FFF
03FF
ENDCHAR
STARTCHAR Ccaron
ENCODING 268
SWIDTH 726 0
DWIDTH 25 0
BBX 23 31 1 0
BITMAP
03C3C0
01E780
00FF00
007E00
007E00
000000
003FF8
01FFFE
07FFFE
1FFFFE
1FF00E
3FC000
7F8000
7F0000
7F0000
FE0000
FE0000
FE0000
FE0000
FE0000
FE0000
FF0000
7F0000
7F8000
7FC002
3FF00E
1FFFFE
1FFFFE
07FFFE
03FFFE
007FE0
ENDCHAR
STARTCHAR ccaron
ENCODING 269
SWIDTH 545 0
DWIDTH 19 0
BBX 16 24 1 0
BITMAP
1E1E
0F3C
07F8
03F0
03F0
0000
03FE
0FFF
1FFF
3FFF
7F83
7F00
FF00
FE00
FE00
FE00
FE00
FE00
7F00
7F81
3FFF
3FFF
0FFF
03FF
ENDCHAR
STARTCHAR Dcaron
ENCODING 270
SWIDTH 819 0
DWIDTH 28 0
BBX 24 31 3 0
BITMAP
078780
03CF00
01FE00
00FC00
00FC00
000000
FFFF00
FFFFE0
FFFFF0
FFFFF8
FE07FC
FE01FE
FE01FE
FE00FE
FE007F
FE007F
FE007F
FE007F
FE007F
FE007F
FE007F
FE007F
FE00FE
FE00FE
FE01FE
FE07FC
FFFFFC
FFFFF8
FFFFF0
FFFFC0
FFFF00
ENDCHAR
STARTCHAR dcaron
ENCODING 271
SWIDTH 926 0
DWIDTH 32 0
BBX 30 26 1 0
BITMAP
0007F1FC
0007F1FC
0007F1FC
0007F1FC
0007F1FC
0007F1FC
0007F1FC
0007F03C
07C7F078
1FF7F078
3FFFF1F0
7FFFF1C0
7F8FF000
FF07F000
FE07F000
FE07F000
FE07F000
FE07F000
FE07F000
FF07F000
FF0FF000
7FFFF000
7FFFF000
3FF7F000
1FE7F000
0FC7F000
ENDCHAR
STARTCHAR Dcroat
ENCODING 272
SWIDTH 819 0
DWIDTH 28 0
BBX 27 25 0 0
BITMAP
1FFFE000
1FFFFC00
1FFFFE00
1FFFFF00
1FC0FF80
1FC03FC0
1FC03FC0
1FC01FC0
1FC00FE0
1FC00FE0
FFFE0FE0
FFFE0FE0
FFFE0FE0
FFFE0FE0
1FC00FE0
1FC00FE0
1FC01FC0
1FC01FC0
1FC03FC0
1FC0FF80
1FFFFF80
1FFFFF00
1FFFFE00
1FFFF800
1FFFE000
ENDCHAR
STARTCHAR dcroat
ENCODING 273
SWIDTH 696 0
DWIDTH 24 0
BBX 20 26 1 0
BITMAP
0007F0
0007F0
0007F0
0007F0
0007F0
000FF0
000FF0
000FF0
07CFF0
1FF7F0
3FFFF0
7FFFF0
7F8FF0
FF07F0
FE07F0
FE07F0
FE07F0
FE07F0
FE07F0
FF07F0
FF0FF0
7FFFF0
7FFFF0
3FF7F0
1FE7F0
0FC7F0
ENDCHAR
STARTCHAR Emacron
ENCODING 274
SWIDTH 645 0
DWIDTH 22 0
BBX 18 30 3 0
BITMAP
3FF800
3FF800
3FF800
3FF800
000000
FFFF80
FFFF80
FFFF80
FFFF80
FE0000
FE0000
FE0000
FE0000
FE0000
FE0000
FFFE00
FFFE00
FFFE00
FFFE00
FE0000
FE0000
FE0000
FE0000
FE0000
FE0000
FE0000
FFFFC0
FFFFC0
FFFFC0
FFFFC0
ENDCHAR
STARTCHAR emacron
ENCODING 275
SWIDTH 614 0
DWIDTH 21 0
BBX 18 23 1 0
BITMAP
0FFE00
0FFE00
0FFE00
0FFE00
000000
03F800
0FFE00
3FFF00
3FFF80
7E3F80
7E1FC0
FFFFC0
FFFFC0
FFFFC0
FFFFC0
FE0000
FE0000
7F80C0
7FFFC0
3FFFC0
1FFFC0
0FFFC0
01FE00
ENDCHAR
STARTCHAR Ebreve
ENCODING 276
SWIDTH 645 0
DWIDTH 22 0
BBX 18 31 3 0
BITMAP
3C3C00
3FF800
1FF800
0FF000
07C000
000000
FFFF80
FFFF80
FFFF80
FFFF80
FE0000
FE0000
FE0000
FE0000
FE0000
FE0000
FFFE00
FFFE00
FFFE00
FFFE00
FE0000
FE0000
FE0000
FE0000
FE0000
FE0000
FE0000
FFFFC0
FFFFC0
FFFFC0
FFFFC0
ENDCHAR
STARTCHAR ebreve
ENCODING 277
SWIDTH 614 0
DWIDTH 21 0
BBX 18 24 1 0
BITMAP
1E1E00
1FFC00
0FFC00
07F800
03E000
000000
03F800
0FFE00
3FFF00
3FFF80
7E3F80
7E1FC0
FFFFC0
FFFFC0
FFFFC0
FFFFC0
FE0000
FE0000
7F80C0
7FFFC0
3FFFC0
1FFFC0
0FFFC0
01FE00
ENDCHAR
STARTCHAR Edotaccent
ENCODING 278
SWIDTH 645 0
DWIDTH 22 0
BBX 18 31 3 0
BITMAP
07C000
07C000
07C000
07C000
07C000
000000
FFFF80
FFFF80
FFFF80
FFFF80
FE0000
FE0000
FE0000
FE0000
FE0000
FE0000
FFFE00
FFFE00
FFFE00
FFFE00
FE0000
FE0000
FE0000
FE0000
FE0000
FE0000
FE0000
FFFFC0
FFFFC0
FFFFC0
FFFFC0
ENDCHAR
STARTCHAR edotaccent
ENCODING 279
SWIDTH 614 0
DWIDTH 21 0
BBX 18 24 1 0
BITMAP
01F000
01F000
01F000
01F000
01F000
000000
03F800
0FFE00
3FFF00
3FFF80
7E3F80
7E1FC0
FFFFC0
FFFFC0
FFFFC0
FFFFC0
FE0000
FE0000
7F80C0
7FFFC0
3FFFC0
1FFFC0
0FFFC0
01FE00
ENDCHAR
STARTCHAR Eogonek
ENCODING 280
SWIDTH 645 0
DWIDTH 22 0
BBX 18 31 3 -6
BITMAP
FFFF80
FFFF80
FFFF80
FFFF80
FE0000
FE0000
FE0000
FE0000
FE0000
FE0000
FFFE00
FFFE00
FFFE00
FFFE00
FE0000
FE0000
FE0000
FE0000
FE0000
FE0000
FE0000
FFFFC0
FFFFC0
FFFFC0
FFFFC0
000000
01C000
038000
038000
03F000
01F000
ENDCHAR
STARTCHAR eogonek
ENCODING 281
SWIDTH 614 0
DWIDTH 21 0
BBX 18 24 1 -6
BITMAP
03F800
0FFE00
3FFF00
3FFF80
7E3F80
7E1FC0
FFFFC0
FFFFC0
FFFFC0
FFFFC0
FE0000
FE0000
7F80C0
7FFFC0
3FFFC0
1FFFC0
0FFFC0
01FE00
000000
007000
00E000
00E000
00FC00
007C00
ENDCHAR
STARTCHAR Ecaron
ENCODING 282
SWIDTH 645 0
DWIDTH 22 0
BBX 18 31 3 0
BITMAP
3C3C00
1E7800
0FF000
07E000
07E000
000000
FFFF80
FFFF80
FFFF80
FFFF80
FE0000
FE0000
FE0000
FE0000
FE0000
FE0000
FFFE00
FFFE00
FFFE00
FFFE00
FE0000
FE0000
FE0000
FE0000
FE0000
FE0000
FE0000
FFFFC0
FFFFC0
FFFFC0
FFFFC0
ENDCHAR
STARTCHAR ecaron
ENCODING 283
SWIDTH 614 0
DWIDTH 21 0
BBX 18 24 1 0
BITMAP
1E1E00
0F3C00
07F800
03F000
03F000
000000
03F800
0FFE00
3FFF00
3FFF80
7E3F80
7E1FC0
FFFFC0
FFFFC0
FFFFC0
FFFFC0
FE0000
FE0000
7F80C0
7FFFC0
3FFFC0
1FFFC0
0FFFC0
01FE00
ENDCHAR
STARTCHAR Gcircumflex
ENCODING 284
SWIDTH 759 0
DWIDTH 26 0
BBX 22 31 1 0
BITMAP
00FC00
00FC00
01FE00
03CF00
078780
000000
007FFC
03FFFC
07FFFC
1FFFFC
3FF00C
3FC000
7F8000
7F0000
FF0000
FE0000
FE0000
FE0000
FE0000
FE01FC
FE01FC
FE01FC
FF01FC
7F01FC
7F81FC
3FC1FC
3FF1FC
1FFFFC
0FFFFC
03FFFC
007FE0
ENDCHAR
STARTCHAR gcircumflex
ENCODING 285
SWIDTH 696 0
DWIDTH 24 0
BBX 20 31 1 -7
BITMAP
00FC00
00FC00
01FE00
03CF00
078780
000000
07E3F0
1FFBF0
3FFFF0
3FFFF0
7F8FF0
7F07F0
FE07F0
FE07F0
FE07F0
FE07F0
FE07F0
FF0FF0
FF0FF0
7FFFF0
7FF7F0
3FF7F0
1FE7F0
0F87F0
0007F0
300FF0
3FFFE0
3FFFE0
3FFFC0
3FFF00
07FC00
ENDCHAR
STARTCHAR Gbreve
ENCODING 286
SWIDTH 759 0
DWIDTH 26 0
BBX 22 31 1 0
BITMAP
03C3C0
03FF80
01FF80
00FF00
007C00
000000
007FFC
03FFFC
07FFFC
1FFFFC
3FF00C
3FC000
7F8000
7F0000
FF0000
FE0000
FE0000
FE0000
FE0000
FE01FC
FE01FC
FE01FC
FF01FC
7F01FC
7F81FC
3FC1FC
3FF1FC
1FFFFC
0FFFFC
03FFFC
007FE0
ENDCHAR
STARTCHAR gbreve
ENCODING 287
SWIDTH 696 0
DWIDTH 24 0
BBX 20 31 1 -7
BITMAP
078780
07FF00
03FF00
01FE00
00F800
000000
07E3F0
1FFBF0
3FFFF0
3FFFF0
7F8FF0
7F07F0
FE07F0
FE07F0
FE07F0
FE07F0
FE07F0
FF0FF0
FF0FF0
7FFFF0
7FF7F0
3FF7F0
1FE7F0
0F87F0
0007F0
300FF0
3FFFE0
3FFFE0
3FFFC0
3FFF00
07FC00
ENDCHAR
STARTCHAR Gdotaccent
ENCODING 288
SWIDTH 759 0
DWIDTH 26 0
BBX 22 31 1 0
BITMAP
007C00
007C00
007C00
007C00
007C00
000000
007FFC
03FFFC
07FFFC
1FFFFC
3FF00C
3FC000
7F8000
7F0000
FF0000
FE0000
FE0000
FE0000
FE0000
FE01FC
FE01FC
FE01FC
FF01FC
7F01FC
7F81FC
3FC1FC
3FF1FC
1FFFFC
0FFFFC
03FFFC
007FE0
ENDCHAR
STARTCHAR gdotaccent
ENCODING 289
SWIDTH 696 0
DWIDTH 24 0
BBX 20 31 1 -7
BITMAP
00F800
00F800
00F800
00F800
00F800
000000
07E3F0
1FFBF0
3FFFF0
3FFFF0
7F8FF0
7F07F0
FE07F0
FE07F0
FE07F0
FE07F0
FE07F0
FF0FF0
FF0FF0
7FFFF0
7FF7F0
3FF7F0
1FE7F0
0F87F0
0007F0
300FF0
3FFFE0
3FFFE0
3FFFC0
3FFF00
07FC00
ENDCHAR
STARTCHAR Gcommaaccent
ENCODING 290
SWIDTH 759 0
DWIDTH 26 0
BBX 22 39 1 -14
BITMAP
007FFC
03FFFC
07FFFC
1FFFFC
3FF00C
3FC000
7F8000
7F0000
FF0000
FE0000
FE0000
FE0000
FE0000
FE01FC
FE01FC
FE01FC
FF01FC
7F01FC
7F81FC
3FC1FC
3FF1FC
1FFFFC
0FFFFC
03FFFC
007FE0
000000
007F00
007F00
007F00
007F00
007F00
007F00
007F00
000F00
000F00
001E00
001E00
007C00
007000
ENDCHAR
STARTCHAR gcommaaccent
ENCODING 291
SWIDTH 696 0
DWIDTH 24 0
BBX 20 38 1 -7
BITMAP
001C00
007C00
00F000
00F000
01E000
01FC00
01FC00
01FC00
01FC00
01FC00
01FC00
01FC00
000000
07E3F0
1FFBF0
3FFFF0
3FFFF0
7F8FF0
7F07F0
FE07F0
FE07F0
FE07F0
FE07F0
FE07F0
FF0FF0
FF0FF0
7FFFF0
7FF7F0
3FF7F0
1FE7F0
0F87F0
0007F0
300FF0
3FFFE0
3FFFE0
3FFFC0
3FFF00
07FC00
ENDCHAR
STARTCHAR Hcircumflex
ENCODING 292
SWIDTH 813 0
DWIDTH 28 0
BBX 22 31 3 0
BITMAP
00FC00
00FC00
01FE00
03CF00
078780
000000
FE01FC
FE01FC
FE01FC
FE01FC
FE01FC
FE01FC
FE01FC
FE01FC
FE01FC
FE01FC
FFFFFC
FFFFFC
FFFFFC
FFFFFC
FE01FC
FE01FC
FE01FC
FE01FC
FE01FC
FE01FC
FE01FC
FE01FC
FE01FC
FE01FC
FE01FC
ENDCHAR
STARTCHAR hcircumflex
ENCODING 293
SWIDTH 693 0
DWIDTH 24 0
BBX 19 32 2 0
BITMAP
1F8000
1F8000
3FC000
79E000
F0F000
000000
7F0000
7F0000
7F0000
7F0000
7F0000
7F0000
7F0000
7F0000
7F1F00
7F3FC0
7F7FC0
7FFFE0
7FFFE0
7FFFE0
7F8FE0
7F8FE0
7F0FE0
7F0FE0
7F0FE0
7F0FE0
7F0FE0
7F0FE0
7F0FE0
7F0FE0
7F0FE0
7F0FE0
ENDCHAR
STARTCHAR Hbar
ENCODING 294
SWIDTH 813 0
DWIDTH 28 0
BBX 22 25 3 0
BITMAP
FE01FC
FE01FC
FE01FC
FE01FC
FE01FC
FFFFFC
FFFFFC
FFFFFC
FFFFFC
FE01FC
FFFFFC
FFFFFC
FFFFFC
FFFFFC
FE01FC
FE01FC
FE01FC
FE01FC
FE01FC
FE01FC
FE01FC
FE01FC
FE01FC
FE01FC
FE01FC
ENDCHAR
STARTCHAR hbar
ENCODING 295
SWIDTH 693 0
DWIDTH 24 0
BBX 18 26 3 0
BITMAP
FE0000
FE0000
FE0000
FE0000
FE0000
FF8000
FF8000
FF8000
FFBE00
FE7F80
FEFF80
FFFFC0
FFFFC0
FFFFC0
FF1FC0
FF1FC0
FE1FC0
FE1FC0
FE1FC0
FE1FC0
FE1FC0
FE1FC0
FE1FC0
FE1FC0
FE1FC0
FE1FC0
ENDCHAR
STARTCHAR Itilde
ENCODING 296
SWIDTH 361 0
DWIDTH 12 0
BBX 12 31 1 0
BITMAP
3C70
7FF0
7FE0
FFE0
E3C0
0000
3F80
3F80
3F80
3F80
3F80
3F80
3F80
3F80
3F80
3F80
3F80
3F80
3F80
3F80
3F80
3F80
3F80
3F80
3F80
3F80
3F80
3F80
3F80
3F80
3F80
ENDCHAR
STARTCHAR itilde
ENCODING 297
SWIDTH 361 0
DWIDTH 12 0
BBX 12 24 1 0
BITMAP
3C70
7FF0
7FE0
FFE0
E3C0
0000
3F80
3F80
3F80
3F80
3F80
3F80
3F80
3F80
3F80
3F80
3F80
3F80
3F80
3F80
3F80
3F80
3F80
3F80
ENDCHAR
STARTCHAR Imacron
ENCODING 298
SWIDTH 361 0
DWIDTH 12 0
BBX 11 30 1 0
BITMAP
FFE0
FFE0
FFE0
FFE0
0000
3F80
3F80
3F80
3F80
3F80
3F80
3F80
3F80
3F80
3F80
3F80
3F80
3F80
3F80
3F80
3F80
3F80
3F80
3F80
3F80
3F80
3F80
3F80
3F80
3F80
ENDCHAR
STARTCHAR imacron
ENCODING 299
SWIDTH 361 0
DWIDTH 12 0
BBX 11 23 1 0
BITMAP
FFE0
FFE0
FFE0
FFE0
0000
3F80
3F80
3F80
3F80
3F80
3F80
3F80
3F80
3F80
3F80
3F80
3F80
3F80
3F80
3F80
3F80
3F80
3F80
ENDCHAR
STARTCHAR Ibreve
ENCODING 300
SWIDTH 361 0
DWIDTH 12 0
BBX 12 31 1 0
BITMAP
F0F0
FFE0
7FE0
3FC0
1F00
0000
3F80
3F80
3F80
3F80
3F80
3F80
3F80
3F80
3F80
3F80
3F80
3F80
3F80
3F80
3F80
3F80
3F80
3F80
3F80
3F80
3F80
3F80
3F80
3F80
3F80
ENDCHAR
STARTCHAR ibreve
ENCODING 301
SWIDTH 361 0
DWIDTH 12 0
BBX 12 24 1 0
BITMAP
F0F0
FFE0
7FE0
3FC0
1F00
0000
3F80
3F80
3F80
3F80
3F80
3F80
3F80
3F80
3F80
3F80
3F80
3F80
3F80
3F80
3F80
3F80
3F80
3F80
ENDCHAR
STARTCHAR Iogonek
ENCODING 302
SWIDTH 361 0
DWIDTH 12 0
BBX 7 31 3 -6
BITMAP
FE
FE
FE
FE
FE
FE
FE
FE
FE
FE
FE
FE
FE
FE
FE
FE
FE
FE
FE
FE
FE
FE
FE
FE
FE
00
38
70
70
7E
3E
ENDCHAR
STARTCHAR iogonek
ENCODING 303
SWIDTH 361 0
DWIDTH 12 0
BBX 7 32 3 -6
BITMAP
FE
FE
FE
FE
FE
00
00
00
FE
FE
FE
FE
FE
FE
FE
FE
FE
FE
FE
FE
FE
FE
FE
FE
FE
FE
00
38
70
70
7E
3E
ENDCHAR
STARTCHAR Idotaccent
ENCODING 304
SWIDTH 361 0
DWIDTH 12 0
BBX 7 31 3 0
BITMAP
7C
7C
7C
7C
7C
00
FE
FE
FE
FE
FE
FE
FE
FE
FE
FE
FE
FE
FE
FE
FE
FE
FE
FE
FE
FE
FE
FE
FE
FE
FE
ENDCHAR
STARTCHAR dotlessi
ENCODING 305
SWIDTH 361 0
DWIDTH 12 0
BBX 7 18 3 0
BITMAP
FE
FE
FE
FE
FE
FE
FE
FE
FE
FE
FE
FE
FE
FE
FE
FE
FE
FE
ENDCHAR
STARTCHAR IJ
ENCODING 306
SWIDTH 844 0
DWIDTH 28 0
BBX 22 31 3 -6
BITMAP
FE01FC
FE01FC
FE01FC
FE01FC
FE01FC
FE01FC
FE01FC
FE01FC
FE01FC
FE01FC
FE01FC
FE01FC
FE01FC
FE01FC
FE01FC
FE01FC
FE01FC
FE01FC
FE01FC
FE01FC
FE01FC
FE01FC
FE01FC
FE01FC
FE01FC
0001FC
0083F8
00FFF8
00FFF0
00FFF0
007FC0
ENDCHAR
STARTCHAR ij
ENCODING 307
SWIDTH 704 0
DWIDTH 23 0
BBX 19 33 3 -7
BITMAP
FE0FE0
FE0FE0
FE0FE0
FE0FE0
FE0FE0
000000
000000
000000
FE0FE0
FE0FE0
FE0FE0
FE0FE0
FE0FE0
FE0FE0
FE0FE0
FE0FE0
FE0FE0
FE0FE0
FE0FE0
FE0FE0
FE0FE0
FE0FE0
FE0FE0
FE0FE0
FE0FE0
FE0FE0
000FE0
000FE0
021FE0
03FFC0
03FFC0
03FF80
01FE00
ENDCHAR
STARTCHAR Jcircumflex
ENCODING 308
SWIDTH 501 0
DWIDTH 17 0
BBX 15 37 0 -6
BITMAP
03F0
03F0
07F8
0F3C
1E1E
0000
01FC
01FC
01FC
01FC
01FC
01FC
01FC
01FC
01FC
01FC
01FC
01FC
01FC
01FC
01FC
01FC
01FC
01FC
01FC
01FC
01FC
01FC
01FC
01FC
01FC
01FC
83F8
FFF8
FFF0
FFF0
7FC0
ENDCHAR
STARTCHAR jcircumflex
ENCODING 309
SWIDTH 361 0
DWIDTH 12 0
BBX 15 31 -2 -7
BITMAP
03F0
03F0
07F8
0F3C
1E1E
0000
03F8
03F8
03F8
03F8
03F8
03F8
03F8
03F8
03F8
03F8
03F8
03F8
03F8
03F8
03F8
03F8
03F8
03F8
03F8
03F8
87F8
FFF0
FFF0
FFE0
7F80
ENDCHAR
STARTCHAR Kcommaaccent
ENCODING 310
SWIDTH 753 0
DWIDTH 26 0
BBX 23 39 3 -14
BITMAP
FE01F0
FE03E0
FE03C0
FE07C0
FE0F80
FE0F00
FE1F00
FE3E00
FE7C00
FE7C00
FEF800
FFFC00
FFFC00
FFFE00
FFFF00
FEFF00
FE7F80
FE7FC0
FE3FC0
FE1FE0
FE1FF0
FE0FF0
FE0FF8
FE07FC
FE03FE
000000
01FC00
01FC00
01FC00
01FC00
01FC00
01FC00
01FC00
003C00
003C00
007800
007800
01F000
01C000
ENDCHAR
STARTCHAR kcommaaccent
ENCODING 311
SWIDTH 681 0
DWIDTH 23 0
BBX 21 40 3 -14
BITMAP
FE0000
FE0000
FE0000
FE0000
FE0000
FE0000
FE0000
FE0000
FE07C0
FE0F80
FE1F00
FE1F00
FE3E00
FE7C00
FE7C00
FEFC00
FFFC00
FFFE00
FEFF00
FEFF00
FE7F80
FE7FC0
FE3FC0
FE1FE0
FE1FF0
FE0FF8
000000
03F800
03F800
03F800
03F800
03F800
03F800
03F800
007800
007800
00F000
00F000
03E000
038000
ENDCHAR
STARTCHAR kgreenlandic
ENCODING 312
SWIDTH 681 0
DWIDTH 23 0
BBX 21 18 3 0
BITMAP
FE07C0
FE0F80
FE1F00
FE1F00
FE3E00
FE7C00
FE7C00
FEFC00
FFFC00
FFFE00
FEFF00
FEFF00
FE7F80
FE7FC0
FE3FC0
FE1FE0
FE1FF0
FE0FF8
ENDCHAR
STARTCHAR Lacute
ENCODING 313
SWIDTH 620 0
DWIDTH 21 0
BBX 18 31 3 0
BITMAP
07E000
078000
0F0000
1E0000
3C0000
000000
FE0000
FE0000
FE0000
FE0000
FE0000
FE0000
FE0000
FE0000
FE0000
FE0000
FE0000
FE0000
FE0000
FE0000
FE0000
FE0000
FE0000
FE0000
FE0000
FE0000
FE0000
FFFFC0
FFFFC0
FFFFC0
FFFFC0
ENDCHAR
STARTCHAR lacute
ENCODING 314
SWIDTH 361 0
DWIDTH 12 0
BBX 9 32 3 0
BITMAP
1F80
1E00
3C00
7800
F000
0000
FE00
FE00
FE00
FE00
FE00
FE00
FE00
FE00
FE00
FE00
FE00
FE00
FE00
FE00
FE00
FE00
FE00
FE00
FE00
FE00
FE00
FE00
FE00
FE00
FE00
FE00
ENDCHAR
STARTCHAR Lcommaaccent
ENCODING 315
SWIDTH 620 0
DWIDTH 21 0
BBX 18 39 3 -14
BITMAP
FE0000
FE0000
FE0000
FE0000
FE0000
FE0000
FE0000
FE0000
FE0000
FE0000
FE0000
FE0000
FE0000
FE0000
FE0000
FE0000
FE0000
FE0000
FE0000
FE0000
FE0000
FFFFC0
FFFFC0
FFFFC0
FFFFC0
000000
07F000
07F000
07F000
07F000
07F000
07F000
07F000
00F000
00F000
01E000
01E000
07C000
070000
ENDCHAR
STARTCHAR lcommaaccent
ENCODING 316
SWIDTH 361 0
DWIDTH 12 0
BBX 7 40 3 -14
BITMAP
FE
FE
FE
FE
FE
FE
FE
FE
FE
FE
FE
FE
FE
FE
FE
FE
FE
FE
FE
FE
FE
FE
FE
FE
FE
FE
00
FE
FE
FE
FE
FE
FE
FE
1E
1E
3C
3C
F8
E0
ENDCHAR
STARTCHAR Lcaron
ENCODING 317
SWIDTH 854 0
DWIDTH 29 0
BBX 25 26 3 0
BITMAP
00003F80
FE003F80
FE003F80
FE003F80
FE003F80
FE003F80
FE003F80
FE000780
FE000F00
FE000F00
FE003E00
FE003800
FE000000
FE000000
FE000000
FE000000
FE000000
FE000000
FE000000
FE000000
FE000000
FE000000
FFFFC000
FFFFC000
FFFFC000
FFFFC000
ENDCHAR
STARTCHAR lcaron
ENCODING 318
SWIDTH 608 0
DWIDTH 20 0
BBX 16 26 3 0
BITMAP
FE7F
FE7F
FE7F
FE7F
FE7F
FE7F
FE7F
FE0F
FE1E
FE1E
FE7C
FE70
FE00
FE00
FE00
FE00
FE00
FE00
FE00
FE00
FE00
FE00
FE00
FE00
FE00
FE00
ENDCHAR
STARTCHAR Ldot
ENCODING 319
SWIDTH 932 0
DWIDTH 43 0
BBX 31 25 3 0
BITMAP
FE000000
FE000000
FE000000
FE000000
FE000000
FE000000
FE000000
FE000000
FE000000
FE000000
FE000000
FE000000
FE000000
FE00003E
FE00003E
FE00003E
FE00003E
FE00003E
FE000000
FE000000
FE000000
FFFFC000
FFFFC000
FFFFC000
FFFFC000
ENDCHAR
STARTCHAR ldot
ENCODING 320
SWIDTH 686 0
DWIDTH 34 0
BBX 22 26 3 0
BITMAP
FE0000
FE0000
FE0000
FE0000
FE0000
FE0000
FE0000
FE0000
FE0000
FE0000
FE0000
FE0000
FE0000
FE0000
FE007C
FE007C
FE007C
FE007C
FE007C
FE0000
FE0000
FE0000
FE0000
FE0000
FE0000
FE0000
ENDCHAR
STARTCHAR Lslash
ENCODING 321
SWIDTH 620 0
DWIDTH 21 0
BBX 21 25 0 0
BITMAP
1FC000
1FC000
1FC000
1FC000
1FC000
1FC000
1FC000
1FC800
1FF800
1FF800
1FF800
1FF000
3FE000
FFC000
FFC000
FFC000
FFC000
9FC000
1FC000
1FC000
1FC000
1FFFF8
1FFFF8
1FFFF8
1FFFF8
ENDCHAR
STARTCHAR lslash
ENCODING 322
SWIDTH 361 0
DWIDTH 12 0
BBX 13 26 0 0
BITMAP
1FC0
1FC0
1FC0
1FC0
1FC0
1FC0
1FC0
1FC0
1FC8
1FF8
1FF8
1FF8
1FF0
7FC0
FFC0
FFC0
FFC0
DFC0
9FC0
1FC0
1FC0
1FC0
1FC0
1FC0
1FC0
1FC0
ENDCHAR
STARTCHAR Nacute
ENCODING 323
SWIDTH 783 0
DWIDTH 27 0
BBX 21 31 3 0
BITMAP
003F00
003C00
007800
00F000
01E000
000000
FC00F8
FE00F8
FF00F8
FF00F8
FF80F8
FFC0F8
FFE0F8
FFE0F8
FFF0F8
FFF8F8
FFF8F8
FBFCF8
FBFEF8
F9FEF8
F8FFF8
F8FFF8
F87FF8
F83FF8
F83FF8
F81FF8
F80FF8
F807F8
F807F8
F803F8
F801F8
ENDCHAR
STARTCHAR nacute
ENCODING 324
SWIDTH 693 0
DWIDTH 24 0
BBX 18 24 3 0
BITMAP
007E00
007800
00F000
01E000
03C000
000000
FE3E00
FEFF80
FEFF80
FFFFC0
FFFFC0
FFFFC0
FF1FC0
FF1FC0
FE1FC0
FE1FC0
FE1FC0
FE1FC0
FE1FC0
FE1FC0
FE1FC0
FE1FC0
FE1FC0
FE1FC0
ENDCHAR
STARTCHAR Ncommaaccent
ENCODING 325
SWIDTH 783 0
DWIDTH 27 0
BBX 21 39 3 -14
BITMAP
FC00F8
FE00F8
FF00F8
FF00F8
FF80F8
FFC0F8
FFE0F8
FFE0F8
FFF0F8
FFF8F8
FFF8F8
FBFCF8
FBFEF8
F9FEF8
F8FFF8
F8FFF8
F87FF8
F83FF8
F83FF8
F81FF8
F80FF8
F807F8
F807F8
F803F8
F801F8
000000
00FE00
00FE00
00FE00
00FE00
00FE00
00FE00
00FE00
001E00
001E00
003C00
003C00
00F800
00E000
ENDCHAR
STARTCHAR ncommaaccent
ENCODING 326
SWIDTH 693 0
DWIDTH 24 0
BBX 18 32 3 -14
BITMAP
FE3E00
FEFF80
FEFF80
FFFFC0
FFFFC0
FFFFC0
FF1FC0
FF1FC0
FE1FC0
FE1FC0
FE1FC0
FE1FC0
FE1FC0
FE1FC0
FE1FC0
FE1FC0
FE1FC0
FE1FC0
000000
03F800
03F800
03F800
03F800
03F800
03F800
03F800
007800
007800
00F000
00F000
03E000
038000
ENDCHAR
STARTCHAR Ncaron
ENCODING 327
SWIDTH 783 0
DWIDTH 27 0
BBX 21 31 3 0
BITMAP
0F0F00
079E00
03FC00
01F800
01F800
000000
FC00F8
FE00F8
FF00F8
FF00F8
FF80F8
FFC0F8
FFE0F8
FFE0F8
FFF0F8
FFF8F8
FFF8F8
FBFCF8
FBFEF8
F9FEF8
F8FFF8
F8FFF8
F87FF8
F83FF8
F83FF8
F81FF8
F80FF8
F807F8
F807F8
F803F8
F801F8
ENDCHAR
STARTCHAR ncaron
ENCODING 328
SWIDTH 693 0
DWIDTH 24 0
BBX 18 24 3 0
BITMAP
1E1E00
0F3C00
07F800
03F000
03F000
000000
FE3E00
FEFF80
FEFF80
FFFFC0
FFFFC0
FFFFC0
FF1FC0
FF1FC0
FE1FC0
FE1FC0
FE1FC0
FE1FC0
FE1FC0
FE1FC0
FE1FC0
FE1FC0
FE1FC0
FE1FC0
ENDCHAR
STARTCHAR napostrophe
ENCODING 329
SWIDTH 945 0
DWIDTH 33 0
BBX 29 26 1 0
BITMAP
FE000000
FE000000
FE000000
FE000000
FE000000
FE000000
FE000000
1E000000
3C1FC7C0
3C1FDFF0
F81FDFF0
E01FFFF8
001FFFF8
001FFFF8
001FE3F8
001FE3F8
001FC3F8
001FC3F8
001FC3F8
001FC3F8
001FC3F8
001FC3F8
001FC3F8
001FC3F8
001FC3F8
001FC3F8
ENDCHAR
STARTCHAR Eng
ENCODING 330
SWIDTH 783 0
DWIDTH 27 0
BBX 21 32 3 -7
BITMAP
FC00F8
FE00F8
FF00F8
FF00F8
FF80F8
FFC0F8
FFE0F8
FFE0F8
FFF0F8
FFF8F8
FFF8F8
FBFCF8
FBFEF8
F9FEF8
F8FFF8
F8FFF8
F87FF8
F83FF8
F83FF8
F81FF8
F80FF8
F807F8
F807F8
F803F8
F803F8
0003F8
0003F8
0087F8
00FFF0
00FFF0
00FFE0
007F80
ENDCHAR
STARTCHAR eng
ENCODING 331
SWIDTH 693 0
DWIDTH 24 0
BBX 18 25 3 -7
BITMAP
FE3E00
FEFF80
FEFF80
FFFFC0
FFFFC0
FFFFC0
FF1FC0
FF1FC0
FE1FC0
FE1FC0
FE1FC0
FE1FC0
FE1FC0
FE1FC0
FE1FC0
FE1FC0
FE1FC0
FE1FC0
001FC0
001FC0
043FC0
07FF80
07FF80
07FF00
03FC00
ENDCHAR
STARTCHAR Omacron
ENCODING 332
SWIDTH 855 0
DWIDTH 29 0
BBX 27 30 1 0
BITMAP
00FFE000
00FFE000
00FFE000
00FFE000
00000000
007FC000
03FFF800
07FFFC00
0FFFFE00
1FE0FF00
3FC07F80
7F803FC0
7F001FC0
7F001FC0
FE000FE0
FE000FE0
FE000FE0
FE000FE0
FE000FE0
FE000FE0
FE000FE0
7F001FC0
7F001FC0
7F803FC0
3FC07F80
1FE0FF00
0FFFFE00
07FFFC00
03FFF800
007FC000
ENDCHAR
STARTCHAR omacron
ENCODING 333
SWIDTH 675 0
DWIDTH 23 0
BBX 20 23 1 0
BITMAP
07FF00
07FF00
07FF00
07FF00
000000
03FC00
0FFF00
1FFF80
3FFFC0
7F9FE0
7F0FE0
FE07F0
FE07F0
FE07F0
FE07F0
FE07F0
FE07F0
7F0FE0
7F9FE0
3FFFC0
1FFF80
0FFF00
03FC00
ENDCHAR
STARTCHAR Obreve
ENCODING 334
SWIDTH 855 0
DWIDTH 29 0
BBX 27 31 1 0
BITMAP
00F0F000
00FFE000
007FE000
003FC000
001F0000
00000000
007FC000
03FFF800
07FFFC00
0FFFFE00
1FE0FF00
3FC07F80
7F803FC0
7F001FC0
7F001FC0
FE000FE0
FE000FE0
FE000FE0
FE000FE0
FE000FE0
FE000FE0
FE000FE0
7F001FC0
7F001FC0
7F803FC0
3FC07F80
1FE0FF00
0FFFFE00
07FFFC00
03FFF800
007FC000
ENDCHAR
STARTCHAR obreve
ENCODING 335
SWIDTH 675 0
DWIDTH 23 0
BBX 20 24 1 0
BITMAP
0F0F00
0FFE00
07FE00
03FC00
01F000
000000
03FC00
0FFF00
1FFF80
3FFFC0
7F9FE0
7F0FE0
FE07F0
FE07F0
FE07F0
FE07F0
FE07F0
FE07F0
7F0FE0
7F9FE0
3FFFC0
1FFF80
0FFF00
03FC00
ENDCHAR
STARTCHAR Ohungarumlaut
ENCODING 336
SWIDTH 855 0
DWIDTH 29 0
BBX 27 31 1 0
BITMAP
001E7800
003CF000
0039E000
0071C000
00E38000
00000000
007FC000
03FFF800
07FFFC00
0FFFFE00
1FE0FF00
3FC07F80
7F803FC0
7F001FC0
7F001FC0
FE000FE0
FE000FE0
FE000FE0
FE000FE0
FE000FE0
FE000FE0
FE000FE0
7F001FC0
7F001FC0
7F803FC0
3FC07F80
1FE0FF00
0FFFFE00
07FFFC00
03FFF800
007FC000
ENDCHAR
STARTCHAR ohungarumlaut
ENCODING 337
SWIDTH 675 0
DWIDTH 23 0
BBX 20 24 1 0
BITMAP
00F3C0
01E780
01CF00
038E00
071C00
000000
03FC00
0FFF00
1FFF80
3FFFC0
7F9FE0
7F0FE0
FE07F0
FE07F0
FE07F0
FE07F0
FE07F0
FE07F0
7F0FE0
7F9FE0
3FFFC0
1FFF80
0FFF00
03FC00
ENDCHAR
STARTCHAR OE
ENCODING 338
SWIDTH 1102 0
DWIDTH 37 0
BBX 35 25 1 0
BITMAP
007FFFFFC0
03FFFFFFC0
07FFFFFFC0
1FFFFFFFC0
1FE1FF0000
3F80FF0000
7F807F0000
7F007F0000
7F007F0000
FE007F0000
FE007FFF00
FE007FFF00
FE007FFF00
FE007FFF00
FE007F0000
FE007F0000
7F007F0000
7F007F0000
7F807F0000
3F80FF0000
1FE1FF0000
1FFFFFFFE0
07FFFFFFE0
03FFFFFFE0
007FFFFFE0
ENDCHAR
STARTCHAR oe
ENCODING 339
SWIDTH 990 0
DWIDTH 34 0
BBX 31 18 1 0
BITMAP
03F80FC0
0FFE3FE0
1FFF7FF8
3FFFFFF8
7F8FF1FC
7F07F0FC
FE07F0FE
FE07FFFE
FE07FFFE
FE07FFFE
FE07FFFE
FE07F000
7F07F000
7F8FF806
3FFFFFFE
1FFFFFFE
0FFF7FFE
03FC1FF8
ENDCHAR
STARTCHAR Racute
ENCODING 340
SWIDTH 734 0
DWIDTH 25 0
BBX 23 31 3 0
BITMAP
003F00
003C00
007800
00F000
01E000
000000
FFFE00
FFFF80
FFFFC0
FFFFC0
FE1FE0
FE0FE0
FE0FE0
FE0FE0
FE0FE0
FE1FC0
FE3FC0
FFFF80
FFFF00
FFFE00
FFFF00
FE7F80
FE3F80
FE3FC0
FE1FC0
FE1FE0
FE0FF0
FE0FF0
FE07F8
FE07FC
FE03FE
ENDCHAR
STARTCHAR racute
ENCODING 341
SWIDTH 500 0
DWIDTH 17 0
BBX 14 24 3 0
BITMAP
01F8
01E0
03C0
0780
0F00
0000
FE3C
FE7C
FEFC
FFFC
FFFC
FFFC
FF80
FF00
FE00
FE00
FE00
FE00
FE00
FE00
FE00
FE00
FE00
FE00
ENDCHAR
STARTCHAR Rcommaaccent
ENCODING 342
SWIDTH 734 0
DWIDTH 25 0
BBX 23 39 3 -14
BITMAP
FFFE00
FFFF80
FFFFC0
FFFFC0
FE1FE0
FE0FE0
FE0FE0
FE0FE0
FE0FE0
FE1FC0
FE3FC0
FFFF80
FFFF00
FFFE00
FFFF00
FE7F80
FE3F80
FE3FC0
FE1FC0
FE1FE0
FE0FF0
FE0FF0
FE07F8
FE07FC
FE03FE
000000
01FC00
01FC00
01FC00
01FC00
01FC00
01FC00
01FC00
003C00
003C00
007800
007800
01F000
01C000
ENDCHAR
STARTCHAR rcommaaccent
ENCODING 343
SWIDTH 500 0
DWIDTH 17 0
BBX 14 32 3 -14
BITMAP
FE3C
FE7C
FEFC
FFFC
FFFC
FFFC
FF80
FF00
FE00
FE00
FE00
FE00
FE00
FE00
FE00
FE00
FE00
FE00
0000
7F00
7F00
7F00
7F00
7F00
7F00
7F00
0F00
0F00
1E00
1E00
7C00
7000
ENDCHAR
STARTCHAR Rcaron
ENCODING 344
SWIDTH 734 0
DWIDTH 25 0
BBX 23 31 3 0
BITMAP
0F0F00
079E00
03FC00
01F800
01F800
000000
FFFE00
FFFF80
FFFFC0
FFFFC0
FE1FE0
FE0FE0
FE0FE0
FE0FE0
FE0FE0
FE1FC0
FE3FC0
FFFF80
FFFF00
FFFE00
FFFF00
FE7F80
FE3F80
FE3FC0
FE1FC0
FE1FE0
FE0FF0
FE0FF0
FE07F8
FE07FC
FE03FE
ENDCHAR
STARTCHAR rcaron
ENCODING 345
SWIDTH 500 0
DWIDTH 17 0
BBX 14 24 3 0
BITMAP
7878
3CF0
1FE0
0FC0
0FC0
0000
FE3C
FE7C
FEFC
FFFC
FFFC
FFFC
FF80
FF00
FE00
FE00
FE00
FE00
FE00
FE00
FE00
FE00
FE00
FE00
ENDCHAR
STARTCHAR Sacute
ENCODING 346
SWIDTH 594 0
DWIDTH 20 0
BBX 18 31 1 0
BITMAP
00FC00
00F000
01E000
03C000
078000
000000
07FF00
1FFF00
3FFF00
7FFF00
FF0300
FE0000
FE0000
FF0000
FFC000
FFE000
7FF800
3FFC00
1FFF00
0FFF80
03FF80
00FFC0
007FC0
001FC0
001FC0
001FC0
C03F80
FFFF80
FFFF00
FFFE00
FFF000
ENDCHAR
STARTCHAR sacute
ENCODING 347
SWIDTH 622 0
DWIDTH 21 0
BBX 17 24 2 0
BITMAP
00FC00
00F000
01E000
03C000
078000
000000
0FFC00
3FFE00
7FFE00
FFFE00
FE0200
FE0000
FF0000
7FE000
3FFC00
1FFF00
03FF80
007F80
003F80
C03F80
FFFF80
FFFF00
FFFE00
3FF000
ENDCHAR
STARTCHAR Scircumflex
ENCODING 348
SWIDTH 594 0
DWIDTH 20 0
BBX 18 31 1 0
BITMAP
07E000
07E000
0FF000
1E7800
3C3C00
000000
07FF00
1FFF00
3FFF00
7FFF00
FF0300
FE0000
FE0000
FF0000
FFC000
FFE000
7FF800
3FFC00
1FFF00
0FFF80
03FF80
00FFC0
007FC0
001FC0
001FC0
001FC0
C03F80
FFFF80
FFFF00
FFFE00
FFF000
ENDCHAR
STARTCHAR scircumflex
ENCODING 349
SWIDTH 622 0
DWIDTH 21 0
BBX 17 24 2 0
BITMAP
07E000
07E000
0FF000
1E7800
3C3C00
000000
0FFC00
3FFE00
7FFE00
FFFE00
FE0200
FE0000
FF0000
7FE000
3FFC00
1FFF00
03FF80
007F80
003F80
C03F80
FFFF80
FFFF00
FFFE00
3FF000
ENDCHAR
STARTCHAR Scedilla
ENCODING 350
SWIDTH 594 0
DWIDTH 20 0
BBX 18 32 1 -7
BITMAP
07FF00
1FFF00
3FFF00
7FFF00
FF0300
FE0000
FE0000
FF0000
FFC000
FFE000
7FF800
3FFC00
1FFF00
0FFF80
03FF80
00FFC0
007FC0
001FC0
001FC0
001FC0
C03F80
FFFF80
FFFF00
FFFE00
FFF000
00E000
00C000
01E000
007800
007800
03F800
03F000
ENDCHAR
STARTCHAR scedilla
ENCODING 351
SWIDTH 622 0
DWIDTH 21 0
BBX 17 25 2 -7
BITMAP
0FFC00
3FFE00
7FFE00
FFFE00
FE0200
FE0000
FF0000
7FE000
3FFC00
1FFF00
03FF80
007F80
003F80
C03F80
FFFF80
FFFF00
FFFE00
3FF000
01C000
018000
03C000
00F000
00F000
07F000
07E000
ENDCHAR
STARTCHAR Scaron
ENCODING 352
SWIDTH 594 0
DWIDTH 20 0
BBX 18 32 1 0
BITMAP
1E1E00
0F3C00
07F800
03F000
03F000
000000
000000
07FF00
1FFF00
3FFF00
7FFF00
FF0300
FE0000
FE0000
FF0000
FFC000
FFE000
7FF800
3FFC00
1FFF00
0FFF80
03FF80
00FFC0
007FC0
001FC0
001FC0
001FC0
C03F80
FFFF80
FFFF00
FFFE00
FFF000
ENDCHAR
STARTCHAR scaron
ENCODING 353
SWIDTH 622 0
DWIDTH 21 0
BBX 17 25 2 0
BITMAP
1E1E00
0F3C00
07F800
03F000
03F000
000000
000000
0FFC00
3FFE00
7FFE00
FFFE00
FE0200
FE0000
FF0000
7FE000
3FFC00
1FFF00
03FF80
007F80
003F80
C03F80
FFFF80
FFFF00
FFFE00
3FF000
ENDCHAR
STARTCHAR Tcommaaccent
ENCODING 354
SWIDTH 735 0
DWIDTH 25 0
BBX 25 32 0 -7
BITMAP
FFFFFF80
FFFFFF80
FFFFFF80
FFFFFF80
007F0000
007F0000
007F0000
007F0000
007F0000
007F0000
007F0000
007F0000
007F0000
007F0000
007F0000
007F0000
007F0000
007F0000
007F0000
007F0000
007F0000
007F0000
007F0000
007F0000
007F0000
001C0000
00180000
003C0000
000F0000
000F0000
007F0000
007E0000
ENDCHAR
STARTCHAR tcommaaccent
ENCODING 355
SWIDTH 436 0
DWIDTH 15 0
BBX 13 30 1 -7
BITMAP
0380
3F80
3F80
3F80
3F80
FFF8
FFF8
FFF8
FFF8
3F80
3F80
3F80
3F80
3F80
3F80
3F80
3F80
3F80
3FC0
3FF8
1FF8
1FF8
07F8
0380
0300
0780
01E0
01E0
0FE0
0FC0
ENDCHAR
STARTCHAR Tcaron
ENCODING 356
SWIDTH 735 0
DWIDTH 25 0
BBX 25 31 0 0
BITMAP
01E1E000
00F3C000
007F8000
003F0000
003F0000
00000000
FFFFFF80
FFFFFF80
FFFFFF80
FFFFFF80
007F0000
007F0000
007F0000
007F0000
007F0000
007F0000
007F0000
007F0000
007F0000
007F0000
007F0000
007F0000
007F0000
007F0000
007F0000
007F0000
007F0000
007F0000
007F0000
007F0000
007F0000
ENDCHAR
STARTCHAR tcaron
ENCODING 357
SWIDTH 679 0
DWIDTH 23 0
BBX 21 26 1 0
BITMAP
0003F8
0003F8
0003F8
0383F8
3F83F8
3F83F8
3F83F8
3F8078
FFF8F0
FFF8F0
FFFBE0
FFFB80
3F8000
3F8000
3F8000
3F8000
3F8000
3F8000
3F8000
3F8000
3F8000
3FC000
3FF800
1FF800
1FF800
07F800
ENDCHAR
STARTCHAR Tbar
ENCODING 358
SWIDTH 735 0
DWIDTH 25 0
BBX 25 25 0 0
BITMAP
FFFFFF80
FFFFFF80
FFFFFF80
FFFFFF80
007F0000
007F0000
007F0000
007F0000
007F0000
007F0000
007F0000
007F0000
007F0000
007F0000
007F0000
007F0000
007F0000
007F0000
007F0000
007F0000
007F0000
007F0000
007F0000
007F0000
007F0000
ENDCHAR
STARTCHAR tbar
ENCODING 359
SWIDTH 436 0
DWIDTH 15 0
BBX 13 23 1 0
BITMAP
0380
3F80
3F80
3F80
3F80
FFF8
FFF8
FFF8
FFF8
3F80
3F80
3F80
3FC0
3FC0
3FC0
3FC0
3F80
3F80
3FC0
3FF8
1FF8
1FF8
07F8
ENDCHAR
STARTCHAR Utilde
ENCODING 360
SWIDTH 783 0
DWIDTH 27 0
BBX 21 31 3 0
BITMAP
01E380
03FF80
03FF00
07FF00
071E00
000000
FE03F8
FE03F8
FE03F8
FE03F8
FE03F8
FE03F8
FE03F8
FE03F8
FE03F8
FE03F8
FE03F8
FE03F8
FE03F8
FE03F8
FE03F8
FE03F8
FE03F8
FE03F8
FE03F8
7F07F0
7F8FF0
3FFFE0
1FFFE0
0FFF80
01FE00
ENDCHAR
STARTCHAR utilde
ENCODING 361
SWIDTH 693 0
DWIDTH 24 0
BBX 18 24 3 0
BITMAP
078E00
0FFE00
0FFC00
1FFC00
1C7800
000000
FE1FC0
FE1FC0
FE1FC0
FE1FC0
FE1FC0
FE1FC0
FE1FC0
FE1FC0
FE1FC0
FE1FC0
FE1FC0
FE3FC0
FE3FC0
FFFFC0
FFFFC0
7FDFC0
7FDFC0
1F1FC0
ENDCHAR
STARTCHAR Umacron
ENCODING 362
SWIDTH 783 0
DWIDTH 27 0
BBX 21 30 3 0
BITMAP
07FF00
07FF00
07FF00
07FF00
000000
FE03F8
FE03F8
FE03F8
FE03F8
FE03F8
FE03F8
FE03F8
FE03F8
FE03F8
FE03F8
FE03F8
FE03F8
FE03F8
FE03F8
FE03F8
FE03F8
FE03F8
FE03F8
FE03F8
7F07F0
7F8FF0
3FFFE0
1FFFE0
0FFF80
01FE00
ENDCHAR
STARTCHAR umacron
ENCODING 363
SWIDTH 693 0
DWIDTH 24 0
BBX 18 23 3 0
BITMAP
0FFE00
0FFE00
0FFE00
0FFE00
000000
FE1FC0
FE1FC0
FE1FC0
FE1FC0
FE1FC0
FE1FC0
FE1FC0
FE1FC0
FE1FC0
FE1FC0
FE1FC0
FE3FC0
FE3FC0
FFFFC0
FFFFC0
7FDFC0
7FDFC0
1F1FC0
ENDCHAR
STARTCHAR Ubreve
ENCODING 364
SWIDTH 783 0
DWIDTH 27 0
BBX 21 31 3 0
BITMAP
078780
07FF00
03FF00
01FE00
00F800
000000
FE03F8
FE03F8
FE03F8
FE03F8
FE03F8
FE03F8
FE03F8
FE03F8
FE03F8
FE03F8
FE03F8
FE03F8
FE03F8
FE03F8
FE03F8
FE03F8
FE03F8
FE03F8
FE03F8
7F07F0
7F8FF0
3FFFE0
1FFFE0
0FFF80
01FE00
ENDCHAR
STARTCHAR ubreve
ENCODING 365
SWIDTH 693 0
DWIDTH 24 0
BBX 18 24 3 0
BITMAP
1E1E00
1FFC00
0FFC00
07F800
03E000
000000
FE1FC0
FE1FC0
FE1FC0
FE1FC0
FE1FC0
FE1FC0
FE1FC0
FE1FC0
FE1FC0
FE1FC0
FE1FC0
FE3FC0
FE3FC0
FFFFC0
FFFFC0
7FDFC0
7FDFC0
1F1FC0
ENDCHAR
STARTCHAR Uring
ENCODING 366
SWIDTH 783 0
DWIDTH 27 0
BBX 21 32 3 0
BITMAP
007000
00F800
00D800
00D800
00F800
007000
000000
FE03F8
FE03F8
FE03F8
FE03F8
FE03F8
FE03F8
FE03F8
FE03F8
FE03F8
FE03F8
FE03F8
FE03F8
FE03F8
FE03F8
FE03F8
FE03F8
FE03F8
FE03F8
FE03F8
7F07F0
7F8FF0
3FFFE0
1FFFE0
0FFF80
01FE00
ENDCHAR
STARTCHAR uring
ENCODING 367
SWIDTH 693 0
DWIDTH 24 0
BBX 18 25 3 0
BITMAP
00E000
01F000
01B000
01B000
01F000
00E000
000000
FE1FC0
FE1FC0
FE1FC0
FE1FC0
FE1FC0
FE1FC0
FE1FC0
FE1FC0
FE1FC0
FE1FC0
FE1FC0
FE3FC0
FE3FC0
FFFFC0
FFFFC0
7FDFC0
7FDFC0
1F1FC0
ENDCHAR
STARTCHAR Uhungarumlaut
ENCODING 368
SWIDTH 783 0
DWIDTH 27 0
BBX 21 31 3 0
BITMAP
00F3C0
01E780
01CF00
038E00
071C00
000000
FE03F8
FE03F8
FE03F8
FE03F8
FE03F8
FE03F8
FE03F8
FE03F8
FE03F8
FE03F8
FE03F8
FE03F8
FE03F8
FE03F8
FE03F8
FE03F8
FE03F8
FE03F8
FE03F8
7F07F0
7F8FF0
3FFFE0
1FFFE0
0FFF80
01FE00
ENDCHAR
STARTCHAR uhungarumlaut
ENCODING 369
SWIDTH 693 0
DWIDTH 24 0
BBX 18 24 3 0
BITMAP
01E780
03CF00
039E00
071C00
0E3800
000000
FE1FC0
FE1FC0
FE1FC0
FE1FC0
FE1FC0
FE1FC0
FE1FC0
FE1FC0
FE1FC0
FE1FC0
FE1FC0
FE3FC0
FE3FC0
FFFFC0
FFFFC0
7FDFC0
7FDFC0
1F1FC0
ENDCHAR
STARTCHAR Uogonek
ENCODING 370
SWIDTH 783 0
DWIDTH 27 0
BBX 21 31 3 -6
BITMAP
FE03F8
FE03F8
FE03F8
FE03F8
FE03F8
FE03F8
FE03F8
FE03F8
FE03F8
FE03F8
FE03F8
FE03F8
FE03F8
FE03F8
FE03F8
FE03F8
FE03F8
FE03F8
FE03F8
7F07F0
7F8FF0
3FFFE0
1FFFE0
0FFF80
01FE00
000000
007000
00E000
00E000
00FC00
007C00
ENDCHAR
STARTCHAR uogonek
ENCODING 371
SWIDTH 693 0
DWIDTH 24 0
BBX 18 24 3 -6
BITMAP
FE1FC0
FE1FC0
FE1FC0
FE1FC0
FE1FC0
FE1FC0
FE1FC0
FE1FC0
FE1FC0
FE1FC0
FE1FC0
FE3FC0
FE3FC0
FFFFC0
FFFFC0
7FDFC0
7FDFC0
1F1FC0
000000
00E000
01C000
01C000
01F800
00F800
ENDCHAR
STARTCHAR Wcircumflex
ENCODING 372
SWIDTH 940 0
DWIDTH 32 0
BBX 31 31 1 0
BITMAP
000FC000
000FC000
001FE000
003CF000
00787800
00000000
FE03E01E
FE07F01E
FE07F03C
FF07F03C
7F07F03C
7F07F03C
7F0FF878
7F0FF878
7F8FF878
3F8FF878
3F9FF8F0
3F9EFCF0
3FDEFCF0
1FDEFCF0
1FDEFDE0
1FFCFFE0
1FFC7FE0
0FFC7FE0
0FFC7FE0
0FF87FC0
0FF83FC0
07F83FC0
07F83FC0
07F83F80
07F03F80
ENDCHAR
STARTCHAR wcircumflex
ENCODING 373
SWIDTH 885 0
DWIDTH 30 0
BBX 28 24 1 0
BITMAP
001F8000
001F8000
003FC000
0079E000
00F0F000
00000000
FC0FC0F0
FC1FC1F0
FE1FC1E0
7E1FC1E0
7E1FE1E0
7E3FE3C0
7F3FE3C0
3F3FE3C0
3F7FF7C0
3F79F780
3FF9F780
1FF9FF80
1FF1FF00
1FF0FF00
1FF0FF00
0FF0FF00
0FE0FE00
0FE07E00
ENDCHAR
STARTCHAR Ycircumflex
ENCODING 374
SWIDTH 738 0
DWIDTH 25 0
BBX 23 31 1 0
BITMAP
00FC00
00FC00
01FE00
03CF00
078780
000000
FF003E
FF003C
7F807C
3FC0F8
3FC0F0
1FE1F0
1FE1E0
0FF3E0
0FF7C0
07FFC0
07FF80
03FF80
03FF00
01FE00
00FE00
00FE00
00FE00
00FE00
00FE00
00FE00
00FE00
00FE00
00FE00
00FE00
00FE00
ENDCHAR
STARTCHAR ycircumflex
ENCODING 375
SWIDTH 645 0
DWIDTH 22 0
BBX 21 31 1 -7
BITMAP
01F800
01F800
03FC00
079E00
0F0F00
000000
FF00F8
FF00F0
7F01F0
7F81E0
3F83E0
3F83C0
3FC7C0
1FC780
1FEF80
0FEF00
0FFF00
0FFE00
07FE00
07FC00
07FC00
03F800
03F800
01F800
01F000
03F000
03E000
07E000
0FC000
1FC000
3F8000
ENDCHAR
STARTCHAR Ydieresis
ENCODING 376
SWIDTH 738 0
DWIDTH 25 0
BBX 23 31 1 0
BITMAP
01E3C0
01E3C0
01E3C0
01E3C0
000000
000000
FF003E
FF003C
7F807C
3FC0F8
3FC0F0
1FE1F0
1FE1E0
0FF3E0
0FF7C0
07FFC0
07FF80
03FF80
03FF00
01FE00
00FE00
00FE00
00FE00
00FE00
00FE00
00FE00
00FE00
00FE00
00FE00
00FE00
00FE00
ENDCHAR
STARTCHAR Zacute
ENCODING 377
SWIDTH 675 0
DWIDTH 23 0
BBX 19 31 2 0
BITMAP
003F00
003C00
007800
00F000
01E000
000000
7FFFE0
7FFFE0
7FFFE0
7FFFE0
001FE0
003FC0
007FC0
007F80
00FF00
01FF00
01FE00
03FC00
07FC00
07F800
0FF000
1FF000
1FE000
3FC000
7FC000
7F8000
FF0000
FFFFE0
FFFFE0
FFFFE0
FFFFE0
ENDCHAR
STARTCHAR zacute
ENCODING 378
SWIDTH 608 0
DWIDTH 21 0
BBX 17 24 2 0
BITMAP
007E00
007800
00F000
01E000
03C000
000000
FFFF80
FFFF80
FFFF80
FFFF80
00FF80
01FF00
03FE00
07FC00
0FFC00
1FF800
3FF000
7FE000
FFC000
FF8000
FFFF80
FFFF80
FFFF80
FFFF80
ENDCHAR
STARTCHAR Zdotaccent
ENCODING 379
SWIDTH 675 0
DWIDTH 23 0
BBX 19 31 2 0
BITMAP
00F800
00F800
00F800
00F800
00F800
000000
7FFFE0
7FFFE0
7FFFE0
7FFFE0
001FE0
003FC0
007FC0
007F80
00FF00
01FF00
01FE00
03FC00
07FC00
07F800
0FF000
1FF000
1FE000
3FC000
7FC000
7F8000
FF0000
FFFFE0
FFFFE0
FFFFE0
FFFFE0
ENDCHAR
STARTCHAR zdotaccent
ENCODING 380
SWIDTH 608 0
DWIDTH 21 0
BBX 17 24 2 0
BITMAP
03E000
03E000
03E000
03E000
03E000
000000
FFFF80
FFFF80
FFFF80
FFFF80
00FF80
01FF00
03FE00
07FC00
0FFC00
1FF800
3FF000
7FE000
FFC000
FF8000
FFFF80
FFFF80
FFFF80
FFFF80
ENDCHAR
STARTCHAR Zcaron
ENCODING 381
SWIDTH 675 0
DWIDTH 23 0
BBX 19 32 2 0
BITMAP
0F0F00
079E00
03FC00
01F800
01F800
000000
000000
7FFFE0
7FFFE0
7FFFE0
7FFFE0
001FE0
003FC0
007FC0
007F80
00FF00
01FF00
01FE00
03FC00
07FC00
07F800
0FF000
1FF000
1FE000
3FC000
7FC000
7F8000
FF0000
FFFFE0
FFFFE0
FFFFE0
FFFFE0
ENDCHAR
STARTCHAR zcaron
ENCODING 382
SWIDTH 608 0
DWIDTH 21 0
BBX 17 25 2 0
BITMAP
1E1E00
0F3C00
07F800
03F000
03F000
000000
000000
FFFF80
FFFF80
FFFF80
FFFF80
00FF80
01FF00
03FE00
07FC00
0FFC00
1FF800
3FF000
7FE000
FFC000
FF8000
FFFF80
FFFF80
FFFF80
FFFF80
ENDCHAR
STARTCHAR uni0186
ENCODING 390
SWIDTH 726 0
DWIDTH 25 0
BBX 23 25 1 0
BITMAP
0FFC00
FFFF80
FFFFC0
FFFFF0
FFFFF0
E01FF8
8007FC
0003FC
0001FC
0001FE
0000FE
0000FE
0000FE
0000FE
0000FE
0000FE
0001FC
0001FC
0003FC
0007F8
E01FF0
FFFFF0
FFFFC0
FFFF00
3FF800
ENDCHAR
STARTCHAR uni0189
ENCODING 393
SWIDTH 819 0
DWIDTH 28 0
BBX 27 25 0 0
BITMAP
1FFFE000
1FFFFC00
1FFFFE00
1FFFFF00
1FC0FF80
1FC03FC0
1FC03FC0
1FC01FC0
1FC00FE0
1FC00FE0
FFFE0FE0
FFFE0FE0
FFFE0FE0
FFFE0FE0
1FC00FE0
1FC00FE0
1FC01FC0
1FC01FC0
1FC03FC0
1FC0FF80
1FFFFF80
1FFFFF00
1FFFFE00
1FFFF800
1FFFE000
ENDCHAR
STARTCHAR uni018E
ENCODING 398
SWIDTH 645 0
DWIDTH 22 0
BBX 18 25 3 0
BITMAP
FFFFC0
FFFFC0
FFFFC0
FFFFC0
001FC0
001FC0
001FC0
001FC0
001FC0
001FC0
001FC0
1FFFC0
1FFFC0
1FFFC0
1FFFC0
001FC0
001FC0
001FC0
001FC0
001FC0
001FC0
7FFFC0
7FFFC0
7FFFC0
7FFFC0
ENDCHAR
STARTCHAR florin
ENCODING 402
SWIDTH 687 0
DWIDTH 23 0
BBX 19 31 4 -6
BITMAP
001FE0
007FE0
00FFE0
01FFE0
03F800
03F000
07F000
07E000
0FE000
0FE000
7FF800
7FF800
7FF800
7FF800
1FC000
1FC000
1FC000
1F8000
3F8000
3F8000
3F8000
3F8000
3F0000
7F0000
7F0000
7F0000
7F0000
7E0000
FE0000
FE0000
FE0000
ENDCHAR
STARTCHAR uni0197
ENCODING 407
SWIDTH 361 0
DWIDTH 12 0
BBX 7 25 3 0
BITMAP
FE
FE
FE
FE
FE
FE
FE
FE
FE
FE
FE
FE
FE
FE
FE
FE
FE
FE
FE
FE
FE
FE
FE
FE
FE
ENDCHAR
STARTCHAR uni019A
ENCODING 410
SWIDTH 361 0
DWIDTH 12 0
BBX 7 26 3 0
BITMAP
FE
FE
FE
FE
FE
FE
FE
FE
FE
FE
FE
FE
FE
FE
FE
FE
FE
FE
FE
FE
FE
FE
FE
FE
FE
FE
ENDCHAR
STARTCHAR uni019D
ENCODING 413
SWIDTH 783 0
DWIDTH 27 0
BBX 27 32 -3 -7
BITMAP
03F003E0
03F803E0
03FC03E0
03FC03E0
03FE03E0
03FF03E0
03FF83E0
03FF83E0
03FFC3E0
03FFE3E0
03FFE3E0
03EFF3E0
03EFFBE0
03E7FBE0
03E3FFE0
03E3FFE0
03E1FFE0
03F8FFE0
03F87FE0
03F87FE0
03F83FE0
03F81FE0
03F81FE0
03F80FE0
03F807E0
03F80000
03F80000
87F80000
FFF00000
FFF00000
FFE00000
7F800000
ENDCHAR
STARTCHAR uni019F
ENCODING 415
SWIDTH 855 0
DWIDTH 29 0
BBX 27 25 1 0
BITMAP
007FC000
03FFF800
07FFFC00
0FFFFE00
1FE0FF00
3FC07F80
7F803FC0
7F001FC0
7F001FC0
FE000FE0
FFFFFFE0
FFFFFFE0
FFFFFFE0
FFFFFFE0
FE000FE0
FE000FE0
7F001FC0
7F001FC0
7F803FC0
3FC07F80
1FE0FF00
0FFFFE00
07FFFC00
03FFF800
007FC000
ENDCHAR
STARTCHAR Ohorn
ENCODING 416
SWIDTH 855 0
DWIDTH 29 0
BBX 31 25 1 0
BITMAP
007FC0FE
03FFF8FE
07FFFCFE
0FFFFEFE
1FE0FFFE
3FC07FFE
7F803FFE
7F001FDE
7F001FFC
FE000FFC
FE000FF8
FE000FE0
FE000FE0
FE000FE0
FE000FE0
FE000FE0
7F001FC0
7F001FC0
7F803FC0
3FC07F80
1FE0FF00
0FFFFE00
07FFFC00
03FFF800
007FC000
ENDCHAR
STARTCHAR ohorn
ENCODING 417
SWIDTH 675 0
DWIDTH 23 0
BBX 25 18 1 0
BITMAP
03FC3F80
0FFF3F80
1FFFBF80
3FFFFF80
7F9FFF80
7F0FFF80
FE07FF80
FE07F780
FE07FF00
FE07FF00
FE07FE00
FE07F800
7F0FE000
7F9FE000
3FFFC000
1FFF8000
0FFF0000
03FC0000
ENDCHAR
STARTCHAR uni01A7
ENCODING 423
SWIDTH 594 0
DWIDTH 20 0
BBX 18 25 1 0
BITMAP
3FF800
3FFE00
3FFF00
3FFF80
303FC0
001FC0
001FC0
003FC0
00FFC0
01FFC0
07FF80
0FFF00
3FFE00
7FFC00
7FF000
FFC000
FF8000
FE0000
FE0000
FE0000
7F00C0
7FFFC0
3FFFC0
1FFFC0
03FFC0
ENDCHAR
STARTCHAR uni01A8
ENCODING 424
SWIDTH 622 0
DWIDTH 21 0
BBX 17 18 2 0
BITMAP
1FF800
3FFE00
3FFF00
3FFF80
203F80
003F80
007F80
03FF00
1FFE00
7FFC00
FFE000
FF0000
FE0000
FE0180
FFFF80
7FFF80
3FFF80
07FE00
ENDCHAR
STARTCHAR uni01AE
ENCODING 430
SWIDTH 735 0
DWIDTH 25 0
BBX 25 32 0 -7
BITMAP
FFFFFF80
FFFFFF80
FFFFFF80
FFFFFF80
007F0000
007F0000
007F0000
007F0000
007F0000
007F0000
007F0000
007F0000
007F0000
007F0000
007F0000
007F0000
007F0000
007F0000
007F0000
007F0000
007F0000
007F0000
007F0000
007F0000
007F0000
007F0000
007F0000
007F8400
003FFC00
003FFC00
001FFC00
0007F800
ENDCHAR
STARTCHAR Uhorn
ENCODING 431
SWIDTH 783 0
DWIDTH 27 0
BBX 26 25 3 0
BITMAP
FE03FFC0
FE03FFC0
FE03FFC0
FE03FFC0
FE03FFC0
FE03FFC0
FE03FFC0
FE03FBC0
FE03FF80
FE03FF80
FE03FF00
FE03FC00
FE03F800
FE03F800
FE03F800
FE03F800
FE03F800
FE03F800
FE03F800
7F07F000
7F8FF000
3FFFE000
1FFFE000
0FFF8000
01FE0000
ENDCHAR
STARTCHAR uhorn
ENCODING 432
SWIDTH 693 0
DWIDTH 24 0
BBX 23 18 3 0
BITMAP
FE1FFE
FE1FFE
FE1FFE
FE1FFE
FE1FFE
FE1FFE
FE1FFE
FE1FDE
FE1FFC
FE1FFC
FE1FF8
FE3FE0
FE3FC0
FFFFC0
FFFFC0
7FDFC0
7FDFC0
1F1FC0
ENDCHAR
STARTCHAR uni01B5
ENCODING 437
SWIDTH 675 0
DWIDTH 23 0
BBX 19 25 2 0
BITMAP
7FFFE0
7FFFE0
7FFFE0
7FFFE0
001FE0
003FC0
007FC0
007F80
00FF00
01FF00
03FE00
03FC00
07FC00
07F800
0FF000
1FF000
1FE000
3FC000
7FC000
7F8000
FF0000
FFFFE0
FFFFE0
FFFFE0
FFFFE0
ENDCHAR
STARTCHAR uni01B6
ENCODING 438
SWIDTH 608 0
DWIDTH 21 0
BBX 17 18 2 0
BITMAP
FFFF80
FFFF80
FFFF80
FFFF80
00FF80
01FF00
03FE00
07FC00
0FFC00
1FF800
3FF000
7FE000
FFC000
FF8000
FFFF80
FFFF80
FFFF80
FFFF80
ENDCHAR
STARTCHAR uni01BB
ENCODING 443
SWIDTH 687 0
DWIDTH 23 0
BBX 18 25 2 0
BITMAP
0FF800
7FFE00
7FFF00
7FFF80
707FC0
403FC0
001FC0
001FC0
001FC0
003F80
FFFFC0
FFFFC0
FFFFC0
FFFFC0
03F800
07F000
0FC000
1F8000
3F0000
FE0000
FFFFC0
FFFFC0
FFFFC0
FFFFC0
FFFFC0
ENDCHAR
STARTCHAR uni01BC
ENCODING 444
SWIDTH 687 0
DWIDTH 23 0
BBX 17 25 4 0
BITMAP
FFFF00
FFFF00
FFFF00
FFFF00
FFFF00
F00000
F00000
F00000
F00000
FFC000
FFF000
FFFC00
FFFE00
03FF00
00FF00
007F80
003F80
003F80
003F80
007F80
C0FF00
FFFF00
FFFE00
FFF800
3FE000
ENDCHAR
STARTCHAR uni01C0
ENCODING 448
SWIDTH 265 0
DWIDTH 9 0
BBX 4 32 3 -6
BITMAP
F0
F0
F0
F0
F0
F0
F0
F0
F0
F0
F0
F0
F0
F0
F0
F0
F0
F0
F0
F0
F0
F0
F0
F0
F0
F0
F0
F0
F0
F0
F0
F0
ENDCHAR
STARTCHAR uni01C2
ENCODING 450
SWIDTH 687 0
DWIDTH 23 0
BBX 20 32 2 -6
BITMAP
00F000
00F000
00F000
00F000
00F000
00F000
00F000
00F000
00F000
00F000
FFFFF0
FFFFF0
FFFFF0
FFFFF0
00F000
00F000
00F000
00F000
00F000
FFFFF0
FFFFF0
FFFFF0
FFFFF0
00F000
00F000
00F000
00F000
00F000
00F000
00F000
00F000
00F000
ENDCHAR
STARTCHAR uni01C3
ENCODING 451
SWIDTH 265 0
DWIDTH 12 0
BBX 7 25 2 0
BITMAP
FE
FE
FE
FE
FE
FE
FE
FE
FC
FC
FC
7C
7C
7C
78
78
78
00
00
00
FE
FE
FE
FE
FE
ENDCHAR
STARTCHAR uni01CD
ENCODING 461
SWIDTH 773 0
DWIDTH 26 0
BBX 25 31 1 0
BITMAP
01E1E000
00F3C000
007F8000
003F0000
003F0000
00000000
007F0000
007F8000
00FF8000
00FF8000
00FFC000
01FFC000
01FFE000
01EFE000
03CFE000
03CFF000
07C7F000
0787F000
0787F800
0F83F800
0F03FC00
0FFFFC00
1FFFFC00
1FFFFE00
1FFFFE00
3C00FE00
3C007F00
7C007F00
78003F80
78003F80
F0003F80
ENDCHAR
STARTCHAR uni01CE
ENCODING 462
SWIDTH 623 0
DWIDTH 21 0
BBX 19 24 1 0
BITMAP
1E1E00
0F3C00
07F800
03F000
03F000
000000
0FF800
3FFE00
3FFF00
3FFF80
307F80
203F80
003F80
0FFF80
3FFF80
7FFF80
FFFF80
FF3F80
FE3F80
FE7F80
FFFFE0
7FFFE0
3FDFE0
1F8FE0
ENDCHAR
STARTCHAR uni01CF
ENCODING 463
SWIDTH 361 0
DWIDTH 12 0
BBX 12 31 1 0
BITMAP
F0F0
79E0
3FC0
1F80
1F80
0000
3F80
3F80
3F80
3F80
3F80
3F80
3F80
3F80
3F80
3F80
3F80
3F80
3F80
3F80
3F80
3F80
3F80
3F80
3F80
3F80
3F80
3F80
3F80
3F80
3F80
ENDCHAR
STARTCHAR uni01D0
ENCODING 464
SWIDTH 361 0
DWIDTH 12 0
BBX 12 24 1 0
BITMAP
F0F0
79E0
3FC0
1F80
1F80
0000
3F80
3F80
3F80
3F80
3F80
3F80
3F80
3F80
3F80
3F80
3F80
3F80
3F80
3F80
3F80
3F80
3F80
3F80
ENDCHAR
STARTCHAR uni01D1
ENCODING 465
SWIDTH 855 0
DWIDTH 29 0
BBX 27 31 1 0
BITMAP
00F0F000
0079E000
003FC000
001F8000
001F8000
00000000
007FC000
03FFF800
07FFFC00
0FFFFE00
1FE0FF00
3FC07F80
7F803FC0
7F001FC0
7F001FC0
FE000FE0
FE000FE0
FE000FE0
FE000FE0
FE000FE0
FE000FE0
FE000FE0
7F001FC0
7F001FC0
7F803FC0
3FC07F80
1FE0FF00
0FFFFE00
07FFFC00
03FFF800
007FC000
ENDCHAR
STARTCHAR uni01D2
ENCODING 466
SWIDTH 675 0
DWIDTH 23 0
BBX 20 24 1 0
BITMAP
0F0F00
079E00
03FC00
01F800
01F800
000000
03FC00
0FFF00
1FFF80
3FFFC0
7F9FE0
7F0FE0
FE07F0
FE07F0
FE07F0
FE07F0
FE07F0
FE07F0
7F0FE0
7F9FE0
3FFFC0
1FFF80
0FFF00
03FC00
ENDCHAR
STARTCHAR uni01D3
ENCODING 467
SWIDTH 783 0
DWIDTH 27 0
BBX 21 31 3 0
BITMAP
078780
03CF00
01FE00
00FC00
00FC00
000000
FE03F8
FE03F8
FE03F8
FE03F8
FE03F8
FE03F8
FE03F8
FE03F8
FE03F8
FE03F8
FE03F8
FE03F8
FE03F8
FE03F8
FE03F8
FE03F8
FE03F8
FE03F8
FE03F8
7F07F0
7F8FF0
3FFFE0
1FFFE0
0FFF80
01FE00
ENDCHAR
STARTCHAR uni01D4
ENCODING 468
SWIDTH 693 0
DWIDTH 24 0
BBX 18 24 3 0
BITMAP
1E1E00
0F3C00
07F800
03F000
03F000
000000
FE1FC0
FE1FC0
FE1FC0
FE1FC0
FE1FC0
FE1FC0
FE1FC0
FE1FC0
FE1FC0
FE1FC0
FE1FC0
FE3FC0
FE3FC0
FFFFC0
FFFFC0
7FDFC0
7FDFC0
1F1FC0
ENDCHAR
STARTCHAR uni01D5
ENCODING 469
SWIDTH 783 0
DWIDTH 27 0
BBX 21 36 3 0
BITMAP
07FF00
07FF00
07FF00
07FF00
000000
03C780
03C780
03C780
03C780
000000
000000
FE03F8
FE03F8
FE03F8
FE03F8
FE03F8
FE03F8
FE03F8
FE03F8
FE03F8
FE03F8
FE03F8
FE03F8
FE03F8
FE03F8
FE03F8
FE03F8
FE03F8
FE03F8
FE03F8
7F07F0
7F8FF0
3FFFE0
1FFFE0
0FFF80
01FE00
ENDCHAR
STARTCHAR uni01D6
ENCODING 470
SWIDTH 693 0
DWIDTH 24 0
BBX 18 29 3 0
BITMAP
0FFE00
0FFE00
0FFE00
0FFE00
000000
0F1E00
0F1E00
0F1E00
0F1E00
000000
000000
FE1FC0
FE1FC0
FE1FC0
FE1FC0
FE1FC0
FE1FC0
FE1FC0
FE1FC0
FE1FC0
FE1FC0
FE1FC0
FE3FC0
FE3FC0
FFFFC0
FFFFC0
7FDFC0
7FDFC0
1F1FC0
ENDCHAR
STARTCHAR uni01D7
ENCODING 471
SWIDTH 783 0
DWIDTH 27 0
BBX 21 37 3 0
BITMAP
001F80
001E00
003C00
007800
00F000
000000
03C780
03C780
03C780
03C780
000000
000000
FE03F8
FE03F8
FE03F8
FE03F8
FE03F8
FE03F8
FE03F8
FE03F8
FE03F8
FE03F8
FE03F8
FE03F8
FE03F8
FE03F8
FE03F8
FE03F8
FE03F8
FE03F8
FE03F8
7F07F0
7F8FF0
3FFFE0
1FFFE0
0FFF80
01FE00
ENDCHAR
STARTCHAR uni01D8
ENCODING 472
SWIDTH 693 0
DWIDTH 24 0
BBX 18 30 3 0
BITMAP
007E00
007800
00F000
01E000
03C000
000000
0F1E00
0F1E00
0F1E00
0F1E00
000000
000000
FE1FC0
FE1FC0
FE1FC0
FE1FC0
FE1FC0
FE1FC0
FE1FC0
FE1FC0
FE1FC0
FE1FC0
FE1FC0
FE3FC0
FE3FC0
FFFFC0
FFFFC0
7FDFC0
7FDFC0
1F1FC0
ENDCHAR
STARTCHAR uni01D9
ENCODING 473
SWIDTH 783 0
DWIDTH 27 0
BBX 21 37 3 0
BITMAP
078780
03CF00
01FE00
00FC00
00FC00
000000
03C780
03C780
03C780
03C780
000000
000000
FE03F8
FE03F8
FE03F8
FE03F8
FE03F8
FE03F8
FE03F8
FE03F8
FE03F8
FE03F8
FE03F8
FE03F8
FE03F8
FE03F8
FE03F8
FE03F8
FE03F8
FE03F8
FE03F8
7F07F0
7F8FF0
3FFFE0
1FFFE0
0FFF80
01FE00
ENDCHAR
STARTCHAR uni01DA
ENCODING 474
SWIDTH 693 0
DWIDTH 24 0
BBX 18 30 3 0
BITMAP
1E1E00
0F3C00
07F800
03F000
03F000
000000
0F1E00
0F1E00
0F1E00
0F1E00
000000
000000
FE1FC0
FE1FC0
FE1FC0
FE1FC0
FE1FC0
FE1FC0
FE1FC0
FE1FC0
FE1FC0
FE1FC0
FE1FC0
FE3FC0
FE3FC0
FFFFC0
FFFFC0
7FDFC0
7FDFC0
1F1FC0
ENDCHAR
STARTCHAR uni01DB
ENCODING 475
SWIDTH 783 0
DWIDTH 27 0
BBX 21 37 3 0
BITMAP
07E000
01E000
00F000
007800
003C00
000000
03C780
03C780
03C780
03C780
000000
000000
FE03F8
FE03F8
FE03F8
FE03F8
FE03F8
FE03F8
FE03F8
FE03F8
FE03F8
FE03F8
FE03F8
FE03F8
FE03F8
FE03F8
FE03F8
FE03F8
FE03F8
FE03F8
FE03F8
7F07F0
7F8FF0
3FFFE0
1FFFE0
0FFF80
01FE00
ENDCHAR
STARTCHAR uni01DC
ENCODING 476
SWIDTH 693 0
DWIDTH 24 0
BBX 18 30 3 0
BITMAP
1F8000
078000
03C000
01E000
00F000
000000
0F1E00
0F1E00
0F1E00
0F1E00
000000
000000
FE1FC0
FE1FC0
FE1FC0
FE1FC0
FE1FC0
FE1FC0
FE1FC0
FE1FC0
FE1FC0
FE1FC0
FE1FC0
FE3FC0
FE3FC0
FFFFC0
FFFFC0
7FDFC0
7FDFC0
1F1FC0
ENDCHAR
STARTCHAR uni01DD
ENCODING 477
SWIDTH 614 0
DWIDTH 21 0
BBX 18 18 1 0
BITMAP
1FE000
FFFC00
FFFE00
FFFF00
FFFF80
C07F80
001FC0
001FC0
FFFFC0
FFFFC0
FFFFC0
FFFFC0
FE1F80
7F1F80
7FFF00
3FFF00
1FFC00
07F000
ENDCHAR
STARTCHAR uni01DE
ENCODING 478
SWIDTH 773 0
DWIDTH 26 0
BBX 25 36 1 0
BITMAP
00FFE000
00FFE000
00FFE000
00FFE000
00000000
00F1E000
00F1E000
00F1E000
00F1E000
00000000
00000000
007F0000
007F8000
00FF8000
00FF8000
00FFC000
01FFC000
01FFE000
01EFE000
03CFE000
03CFF000
07C7F000
0787F000
0787F800
0F83F800
0F03FC00
0FFFFC00
1FFFFC00
1FFFFE00
1FFFFE00
3C00FE00
3C007F00
7C007F00
78003F80
78003F80
F0003F80
ENDCHAR
STARTCHAR uni01DF
ENCODING 479
SWIDTH 623 0
DWIDTH 21 0
BBX 19 29 1 0
BITMAP
0FFE00
0FFE00
0FFE00
0FFE00
000000
078F00
078F00
078F00
078F00
000000
000000
0FF800
3FFE00
3FFF00
3FFF80
307F80
203F80
003F80
0FFF80
3FFF80
7FFF80
FFFF80
FF3F80
FE3F80
FE7F80
FFFFE0
7FFFE0
3FDFE0
1F8FE0
ENDCHAR
STARTCHAR uni01E0
ENCODING 480
SWIDTH 773 0
DWIDTH 26 0
BBX 25 36 1 0
BITMAP
01FFC000
01FFC000
01FFC000
01FFC000
00000000
003E0000
003E0000
003E0000
003E0000
003E0000
00000000
007F0000
007F8000
00FF8000
00FF8000
00FFC000
01FFC000
01FFE000
01EFE000
03CFE000
03CFF000
07C7F000
0787F000
0787F800
0F83F800
0F03FC00
0FFFFC00
1FFFFC00
1FFFFE00
1FFFFE00
3C00FE00
3C007F00
7C007F00
78003F80
78003F80
F0003F80
ENDCHAR
STARTCHAR uni01E1
ENCODING 481
SWIDTH 623 0
DWIDTH 21 0
BBX 19 29 1 0
BITMAP
0FFE00
0FFE00
0FFE00
0FFE00
000000
01F000
01F000
01F000
01F000
01F000
000000
0FF800
3FFE00
3FFF00
3FFF80
307F80
203F80
003F80
0FFF80
3FFF80
7FFF80
FFFF80
FF3F80
FE3F80
FE7F80
FFFFE0
7FFFE0
3FDFE0
1F8FE0
ENDCHAR
STARTCHAR uni01E2
ENCODING 482
SWIDTH 997 0
DWIDTH 34 0
BBX 32 30 0 0
BITMAP
0007FF00
0007FF00
0007FF00
0007FF00
00000000
0007FFFE
0007FFFE
000FFFFE
000FFFFE
001FF800
003FF800
003FF800
007FF800
007BF800
00FBF800
00F3FFF8
01F3FFF8
01E3FFF8
03E3FFF8
03C3F800
07FFF800
07FFF800
0FFFF800
1FFFF800
1E03F800
3E03F800
3C03FFFF
7C03FFFF
7803FFFF
F803FFFF
ENDCHAR
STARTCHAR uni01E3
ENCODING 483
SWIDTH 913 0
DWIDTH 31 0
BBX 29 23 1 0
BITMAP
007FF000
007FF000
007FF000
007FF000
00000000
0FF07F00
3FFCFFC0
3FFFFFE0
3FFFFFF0
383FC7F0
201FC3F0
001F83F8
07FFFFF8
3FFFFFF8
7FFFFFF8
FFFFFFF8
FF1F8000
FE1FC000
FE3FE018
FFFFFFF8
7FF7FFF8
3FE1FFF8
1F807FE0
ENDCHAR
STARTCHAR uni01E4
ENCODING 484
SWIDTH 759 0
DWIDTH 26 0
BBX 23 25 1 0
BITMAP
007FFC
03FFFC
07FFFC
1FFFFC
3FF00C
3FC000
7F8000
7F0000
FF0000
FE0000
FE0000
FE0000
FE0000
FE01FC
FE01FC
FE01FC
FF01FC
7F01FE
7F81FE
3FC1FE
3FF1FE
1FFFFC
0FFFFC
03FFFC
007FE0
ENDCHAR
STARTCHAR uni01E5
ENCODING 485
SWIDTH 696 0
DWIDTH 24 0
BBX 20 25 1 -7
BITMAP
07E3F0
1FFBF0
3FFFF0
3FFFF0
7F8FF0
7F07F0
FE07F0
FE07F0
FE07F0
FE07F0
FE07F0
FF0FF0
FF0FF0
7FFFF0
7FF7F0
3FF7F0
FFFFF0
FFFFF0
FFFFF0
FFFFF0
3FFFE0
3FFFE0
3FFFC0
3FFF00
07FC00
ENDCHAR
STARTCHAR Gcaron
ENCODING 486
SWIDTH 759 0
DWIDTH 26 0
BBX 22 31 1 0
BITMAP
078780
03CF00
01FE00
00FC00
00FC00
000000
007FFC
03FFFC
07FFFC
1FFFFC
3FF00C
3FC000
7F8000
7F0000
FF0000
FE0000
FE0000
FE0000
FE0000
FE01FC
FE01FC
FE01FC
FF01FC
7F01FC
7F81FC
3FC1FC
3FF1FC
1FFFFC
0FFFFC
03FFFC
007FE0
ENDCHAR
STARTCHAR gcaron
ENCODING 487
SWIDTH 696 0
DWIDTH 24 0
BBX 20 31 1 -7
BITMAP
078780
03CF00
01FE00
00FC00
00FC00
000000
07E3F0
1FFBF0
3FFFF0
3FFFF0
7F8FF0
7F07F0
FE07F0
FE07F0
FE07F0
FE07F0
FE07F0
FF0FF0
FF0FF0
7FFFF0
7FF7F0
3FF7F0
1FE7F0
0F87F0
0007F0
300FF0
3FFFE0
3FFFE0
3FFFC0
3FFF00
07FC00
ENDCHAR
STARTCHAR uni01E8
ENCODING 488
SWIDTH 753 0
DWIDTH 26 0
BBX 23 31 3 0
BITMAP
1E1E00
0F3C00
07F800
03F000
03F000
000000
FE01F0
FE03E0
FE03C0
FE07C0
FE0F80
FE0F00
FE1F00
FE3E00
FE7C00
FE7C00
FEF800
FFFC00
FFFC00
FFFE00
FFFF00
FEFF00
FE7F80
FE7FC0
FE3FC0
FE1FE0
FE1FF0
FE0FF0
FE0FF8
FE07FC
FE03FE
ENDCHAR
STARTCHAR uni01E9
ENCODING 489
SWIDTH 681 0
DWIDTH 23 0
BBX 21 32 3 0
BITMAP
F0F000
79E000
3FC000
1F8000
1F8000
000000
FE0000
FE0000
FE0000
FE0000
FE0000
FE0000
FE0000
FE0000
FE07C0
FE0F80
FE1F00
FE1F00
FE3E00
FE7C00
FE7C00
FEFC00
FFFC00
FFFE00
FEFF00
FEFF00
FE7F80
FE7FC0
FE3FC0
FE1FE0
FE1FF0
FE0FF8
ENDCHAR
STARTCHAR uni01EA
ENCODING 490
SWIDTH 855 0
DWIDTH 29 0
BBX 27 31 1 -6
BITMAP
007FC000
03FFF800
07FFFC00
0FFFFE00
1FE0FF00
3FC07F80
7F803FC0
7F001FC0
7F001FC0
FE000FE0
FE000FE0
FE000FE0
FE000FE0
FE000FE0
FE000FE0
FE000FE0
7F001FC0
7F001FC0
7F803FC0
3FC07F80
1FE0FF00
0FFFFE00
07FFFC00
03FFF800
007FC000
00000000
000E0000
001C0000
001C0000
001F8000
000F8000
ENDCHAR
STARTCHAR uni01EB
ENCODING 491
SWIDTH 675 0
DWIDTH 23 0
BBX 20 24 1 -6
BITMAP
03FC00
0FFF00
1FFF80
3FFFC0
7F9FE0
7F0FE0
FE07F0
FE07F0
FE07F0
FE07F0
FE07F0
FE07F0
7F0FE0
7F9FE0
3FFFC0
1FFF80
0FFF00
03FC00
000000
007000
00E000
00E000
00FC00
007C00
ENDCHAR
STARTCHAR uni01EC
ENCODING 492
SWIDTH 855 0
DWIDTH 29 0
BBX 27 36 1 -6
BITMAP
00FFE000
00FFE000
00FFE000
00FFE000
00000000
007FC000
03FFF800
07FFFC00
0FFFFE00
1FE0FF00
3FC07F80
7F803FC0
7F001FC0
7F001FC0
FE000FE0
FE000FE0
FE000FE0
FE000FE0
FE000FE0
FE000FE0
FE000FE0
7F001FC0
7F001FC0
7F803FC0
3FC07F80
1FE0FF00
0FFFFE00
07FFFC00
03FFF800
007FC000
00000000
000E0000
001C0000
001C0000
001F8000
000F8000
ENDCHAR
STARTCHAR uni01ED
ENCODING 493
SWIDTH 675 0
DWIDTH 23 0
BBX 20 29 1 -6
BITMAP
07FF00
07FF00
07FF00
07FF00
000000
03FC00
0FFF00
1FFF80
3FFFC0
7F9FE0
7F0FE0
FE07F0
FE07F0
FE07F0
FE07F0
FE07F0
FE07F0
7F0FE0
7F9FE0
3FFFC0
1FFF80
0FFF00
03FC00
000000
007000
00E000
00E000
00FC00
007C00
ENDCHAR
STARTCHAR uni01F0
ENCODING 496
SWIDTH 361 0
DWIDTH 12 0
BBX 15 31 -2 -7
BITMAP
1E1E
0F3C
07F8
03F0
03F0
0000
03F8
03F8
03F8
03F8
03F8
03F8
03F8
03F8
03F8
03F8
03F8
03F8
03F8
03F8
03F8
03F8
03F8
03F8
03F8
03F8
87F8
FFF0
FFF0
FFE0
7F80
ENDCHAR
STARTCHAR uni01F4
ENCODING 500
SWIDTH 759 0
DWIDTH 26 0
BBX 22 31 1 0
BITMAP
001F80
001E00
003C00
007800
00F000
000000
007FFC
03FFFC
07FFFC
1FFFFC
3FF00C
3FC000
7F8000
7F0000
FF0000
FE0000
FE0000
FE0000
FE0000
FE01FC
FE01FC
FE01FC
FF01FC
7F01FC
7F81FC
3FC1FC
3FF1FC
1FFFFC
0FFFFC
03FFFC
007FE0
ENDCHAR
STARTCHAR uni01F5
ENCODING 501
SWIDTH 696 0
DWIDTH 24 0
BBX 20 31 1 -7
BITMAP
003F00
003C00
007800
00F000
01E000
000000
07E3F0
1FFBF0
3FFFF0
3FFFF0
7F8FF0
7F07F0
FE07F0
FE07F0
FE07F0
FE07F0
FE07F0
FF0FF0
FF0FF0
7FFFF0
7FF7F0
3FF7F0
1FE7F0
0F87F0
0007F0
300FF0
3FFFE0
3FFFE0
3FFFC0
3FFF00
07FC00
ENDCHAR
STARTCHAR uni01F8
ENCODING 504
SWIDTH 783 0
DWIDTH 27 0
BBX 21 31 3 0
BITMAP
0FC000
03C000
01E000
00F000
007800
000000
FC00F8
FE00F8
FF00F8
FF00F8
FF80F8
FFC0F8
FFE0F8
FFE0F8
FFF0F8
FFF8F8
FFF8F8
FBFCF8
FBFEF8
F9FEF8
F8FFF8
F8FFF8
F87FF8
F83FF8
F83FF8
F81FF8
F80FF8
F807F8
F807F8
F803F8
F801F8
ENDCHAR
STARTCHAR uni01F9
ENCODING 505
SWIDTH 693 0
DWIDTH 24 0
BBX 18 24 3 0
BITMAP
1F8000
078000
03C000
01E000
00F000
000000
FE3E00
FEFF80
FEFF80
FFFFC0
FFFFC0
FFFFC0
FF1FC0
FF1FC0
FE1FC0
FE1FC0
FE1FC0
FE1FC0
FE1FC0
FE1FC0
FE1FC0
FE1FC0
FE1FC0
FE1FC0
ENDCHAR
STARTCHAR Aringacute
ENCODING 506
SWIDTH 773 0
DWIDTH 26 0
BBX 25 39 1 0
BITMAP
000FC000
000F0000
001E0000
003C0000
00780000
00000000
001C0000
003E0000
00360000
00360000
003E0000
001C0000
00000000
00000000
007F0000
007F8000
00FF8000
00FF8000
00FFC000
01FFC000
01FFE000
01EFE000
03CFE000
03CFF000
07C7F000
0787F000
0787F800
0F83F800
0F03FC00
0FFFFC00
1FFFFC00
1FFFFE00
1FFFFE00
3C00FE00
3C007F00
7C007F00
78003F80
78003F80
F0003F80
ENDCHAR
STARTCHAR aringacute
ENCODING 507
SWIDTH 623 0
DWIDTH 21 0
BBX 19 32 1 0
BITMAP
007E00
007800
00F000
01E000
03C000
000000
00E000
01F000
01B000
01B000
01F000
00E000
000000
000000
0FF800
3FFE00
3FFF00
3FFF80
307F80
203F80
003F80
0FFF80
3FFF80
7FFF80
FFFF80
FF3F80
FE3F80
FE7F80
FFFFE0
7FFFE0
3FDFE0
1F8FE0
ENDCHAR
STARTCHAR AEacute
ENCODING 508
SWIDTH 997 0
DWIDTH 34 0
BBX 32 31 0 0
BITMAP
00003F00
00003C00
00007800
0000F000
0001E000
00000000
0007FFFE
0007FFFE
000FFFFE
000FFFFE
001FF800
003FF800
003FF800
007FF800
007BF800
00FBF800
00F3FFF8
01F3FFF8
01E3FFF8
03E3FFF8
03C3F800
07FFF800
07FFF800
0FFFF800
1FFFF800
1E03F800
3E03F800
3C03FFFF
7C03FFFF
7803FFFF
F803FFFF
ENDCHAR
STARTCHAR aeacute
ENCODING 509
SWIDTH 913 0
DWIDTH 31 0
BBX 29 24 1 0
BITMAP
0003F000
0003C000
00078000
000F0000
001E0000
00000000
0FF07F00
3FFCFFC0
3FFFFFE0
3FFFFFF0
383FC7F0
201FC3F0
001F83F8
07FFFFF8
3FFFFFF8
7FFFFFF8
FFFFFFF8
FF1F8000
FE1FC000
FE3FE018
FFFFFFF8
7FF7FFF8
3FE1FFF8
1F807FE0
ENDCHAR
STARTCHAR Oslashacute
ENCODING 510
SWIDTH 855 0
DWIDTH 29 0
BBX 27 31 1 0
BITMAP
0003F000
0003C000
00078000
000F0000
001E0000
00000000
007FC7E0
03FFFFC0
07FFFF80
0FFFFF00
1FE0FF00
3FC07F80
7F80FFC0
7F01FFC0
7F03FFC0
FE07EFE0
FE07CFE0
FE0F8FE0
FE1F0FE0
FE3E0FE0
FE7C0FE0
FEFC0FE0
7FF81FC0
7FF01FC0
7FE03FC0
3FC07F80
1FE0FF00
1FFFFE00
3FFFFC00
7FFFF800
FC7FC000
ENDCHAR
STARTCHAR oslashacute
ENCODING 511
SWIDTH 675 0
DWIDTH 23 0
BBX 21 24 1 0
BITMAP
001F80
001E00
003C00
007800
00F000
000000
03FDF8
0FFFF0
1FFFE0
3FFFC0
7F9FE0
7F1FE0
FE3FF0
FE7FF0
FEFFF0
FFFFF0
FFF7F0
FFE7F0
7FCFE0
7F9FE0
3FFFC0
3FFF80
7FFF00
FFFC00
ENDCHAR
STARTCHAR uni0200
ENCODING 512
SWIDTH 773 0
DWIDTH 26 0
BBX 25 31 1 0
BITMAP
079E0000
03CF0000
01E70000
00E38000
0071C000
00000000
007F0000
007F8000
00FF8000
00FF8000
00FFC000
01FFC000
01FFE000
01EFE000
03CFE000
03CFF000
07C7F000
0787F000
0787F800
0F83F800
0F03FC00
0FFFFC00
1FFFFC00
1FFFFE00
1FFFFE00
3C00FE00
3C007F00
7C007F00
78003F80
78003F80
F0003F80
ENDCHAR
STARTCHAR uni0201
ENCODING 513
SWIDTH 623 0
DWIDTH 21 0
BBX 19 24 1 0
BITMAP
3CF000
1E7800
0F3800
071C00
038E00
000000
0FF800
3FFE00
3FFF00
3FFF80
307F80
203F80
003F80
0FFF80
3FFF80
7FFF80
FFFF80
FF3F80
FE3F80
FE7F80
FFFFE0
7FFFE0
3FDFE0
1F8FE0
ENDCHAR
STARTCHAR uni0202
ENCODING 514
SWIDTH 773 0
DWIDTH 26 0
BBX 25 31 1 0
BITMAP
003E0000
007F8000
00FFC000
01FFC000
01E1E000
00000000
007F0000
007F8000
00FF8000
00FF8000
00FFC000
01FFC000
01FFE000
01EFE000
03CFE000
03CFF000
07C7F000
0787F000
0787F800
0F83F800
0F03FC00
0FFFFC00
1FFFFC00
1FFFFE00
1FFFFE00
3C00FE00
3C007F00
7C007F00
78003F80
78003F80
F0003F80
ENDCHAR
STARTCHAR uni0203
ENCODING 515
SWIDTH 623 0
DWIDTH 21 0
BBX 19 24 1 0
BITMAP
01F000
03FC00
07FE00
0FFE00
0F0F00
000000
0FF800
3FFE00
3FFF00
3FFF80
307F80
203F80
003F80
0FFF80
3FFF80
7FFF80
FFFF80
FF3F80
FE3F80
FE7F80
FFFFE0
7FFFE0
3FDFE0
1F8FE0
ENDCHAR
STARTCHAR uni0204
ENCODING 516
SWIDTH 645 0
DWIDTH 22 0
BBX 18 31 3 0
BITMAP
F3C000
79E000
3CE000
1C7000
0E3800
000000
FFFF80
FFFF80
FFFF80
FFFF80
FE0000
FE0000
FE0000
FE0000
FE0000
FE0000
FFFE00
FFFE00
FFFE00
FFFE00
FE0000
FE0000
FE0000
FE0000
FE0000
FE0000
FE0000
FFFFC0
FFFFC0
FFFFC0
FFFFC0
ENDCHAR
STARTCHAR uni0205
ENCODING 517
SWIDTH 614 0
DWIDTH 21 0
BBX 18 24 1 0
BITMAP
3CF000
1E7800
0F3800
071C00
038E00
000000
03F800
0FFE00
3FFF00
3FFF80
7E3F80
7E1FC0
FFFFC0
FFFFC0
FFFFC0
FFFFC0
FE0000
FE0000
7F80C0
7FFFC0
3FFFC0
1FFFC0
0FFFC0
01FE00
ENDCHAR
STARTCHAR uni0206
ENCODING 518
SWIDTH 645 0
DWIDTH 22 0
BBX 18 31 3 0
BITMAP
07C000
0FF000
1FF800
3FF800
3C3C00
000000
FFFF80
FFFF80
FFFF80
FFFF80
FE0000
FE0000
FE0000
FE0000
FE0000
FE0000
FFFE00
FFFE00
FFFE00
FFFE00
FE0000
FE0000
FE0000
FE0000
FE0000
FE0000
FE0000
FFFFC0
FFFFC0
FFFFC0
FFFFC0
ENDCHAR
STARTCHAR uni0207
ENCODING 519
SWIDTH 614 0
DWIDTH 21 0
BBX 18 24 1 0
BITMAP
03E000
07F800
0FFC00
1FFC00
1E1E00
000000
03F800
0FFE00
3FFF00
3FFF80
7E3F80
7E1FC0
FFFFC0
FFFFC0
FFFFC0
FFFFC0
FE0000
FE0000
7F80C0
7FFFC0
3FFFC0
1FFFC0
0FFFC0
01FE00
ENDCHAR
STARTCHAR uni0208
ENCODING 520
SWIDTH 361 0
DWIDTH 12 0
BBX 13 31 -1 0
BITMAP
F3C0
79E0
3CE0
1C70
0E38
0000
0FE0
0FE0
0FE0
0FE0
0FE0
0FE0
0FE0
0FE0
0FE0
0FE0
0FE0
0FE0
0FE0
0FE0
0FE0
0FE0
0FE0
0FE0
0FE0
0FE0
0FE0
0FE0
0FE0
0FE0
0FE0
ENDCHAR
STARTCHAR uni0209
ENCODING 521
SWIDTH 361 0
DWIDTH 12 0
BBX 13 24 -1 0
BITMAP
F3C0
79E0
3CE0
1C70
0E38
0000
0FE0
0FE0
0FE0
0FE0
0FE0
0FE0
0FE0
0FE0
0FE0
0FE0
0FE0
0FE0
0FE0
0FE0
0FE0
0FE0
0FE0
0FE0
ENDCHAR
STARTCHAR uni020A
ENCODING 522
SWIDTH 361 0
DWIDTH 12 0
BBX 12 31 1 0
BITMAP
1F00
3FC0
7FE0
FFE0
F0F0
0000
3F80
3F80
3F80
3F80
3F80
3F80
3F80
3F80
3F80
3F80
3F80
3F80
3F80
3F80
3F80
3F80
3F80
3F80
3F80
3F80
3F80
3F80
3F80
3F80
3F80
ENDCHAR
STARTCHAR uni020B
ENCODING 523
SWIDTH 361 0
DWIDTH 12 0
BBX 12 24 1 0
BITMAP
1F00
3FC0
7FE0
FFE0
F0F0
0000
3F80
3F80
3F80
3F80
3F80
3F80
3F80
3F80
3F80
3F80
3F80
3F80
3F80
3F80
3F80
3F80
3F80
3F80
ENDCHAR
STARTCHAR uni020C
ENCODING 524
SWIDTH 855 0
DWIDTH 29 0
BBX 27 31 1 0
BITMAP
03CF0000
01E78000
00F38000
0071C000
0038E000
00000000
007FC000
03FFF800
07FFFC00
0FFFFE00
1FE0FF00
3FC07F80
7F803FC0
7F001FC0
7F001FC0
FE000FE0
FE000FE0
FE000FE0
FE000FE0
FE000FE0
FE000FE0
FE000FE0
7F001FC0
7F001FC0
7F803FC0
3FC07F80
1FE0FF00
0FFFFE00
07FFFC00
03FFF800
007FC000
ENDCHAR
STARTCHAR uni020D
ENCODING 525
SWIDTH 675 0
DWIDTH 23 0
BBX 20 24 1 0
BITMAP
1E7800
0F3C00
079C00
038E00
01C700
000000
03FC00
0FFF00
1FFF80
3FFFC0
7F9FE0
7F0FE0
FE07F0
FE07F0
FE07F0
FE07F0
FE07F0
FE07F0
7F0FE0
7F9FE0
3FFFC0
1FFF80
0FFF00
03FC00
ENDCHAR
STARTCHAR uni020E
ENCODING 526
SWIDTH 855 0
DWIDTH 29 0
BBX 27 31 1 0
BITMAP
001F0000
003FC000
007FE000
00FFE000
00F0F000
00000000
007FC000
03FFF800
07FFFC00
0FFFFE00
1FE0FF00
3FC07F80
7F803FC0
7F001FC0
7F001FC0
FE000FE0
FE000FE0
FE000FE0
FE000FE0
FE000FE0
FE000FE0
FE000FE0
7F001FC0
7F001FC0
7F803FC0
3FC07F80
1FE0FF00
0FFFFE00
07FFFC00
03FFF800
007FC000
ENDCHAR
STARTCHAR uni020F
ENCODING 527
SWIDTH 675 0
DWIDTH 23 0
BBX 20 24 1 0
BITMAP
01F000
03FC00
07FE00
0FFE00
0F0F00
000000
03FC00
0FFF00
1FFF80
3FFFC0
7F9FE0
7F0FE0
FE07F0
FE07F0
FE07F0
FE07F0
FE07F0
FE07F0
7F0FE0
7F9FE0
3FFFC0
1FFF80
0FFF00
03FC00
ENDCHAR
STARTCHAR uni0210
ENCODING 528
SWIDTH 734 0
DWIDTH 25 0
BBX 23 31 3 0
BITMAP
3CF000
1E7800
0F3800
071C00
038E00
000000
FFFE00
FFFF80
FFFFC0
FFFFC0
FE1FE0
FE0FE0
FE0FE0
FE0FE0
FE0FE0
FE1FC0
FE3FC0
FFFF80
FFFF00
FFFE00
FFFF00
FE7F80
FE3F80
FE3FC0
FE1FC0
FE1FE0
FE0FF0
FE0FF0
FE07F8
FE07FC
FE03FE
ENDCHAR
STARTCHAR uni0211
ENCODING 529
SWIDTH 500 0
DWIDTH 17 0
BBX 15 24 2 0
BITMAP
F3C0
79E0
3CE0
1C70
0E38
0000
7F1E
7F3E
7F7E
7FFE
7FFE
7FFE
7FC0
7F80
7F00
7F00
7F00
7F00
7F00
7F00
7F00
7F00
7F00
7F00
ENDCHAR
STARTCHAR uni0212
ENCODING 530
SWIDTH 734 0
DWIDTH 25 0
BBX 23 31 3 0
BITMAP
01F000
03FC00
07FE00
0FFE00
0F0F00
000000
FFFE00
FFFF80
FFFFC0
FFFFC0
FE1FE0
FE0FE0
FE0FE0
FE0FE0
FE0FE0
FE1FC0
FE3FC0
FFFF80
FFFF00
FFFE00
FFFF00
FE7F80
FE3F80
FE3FC0
FE1FC0
FE1FE0
FE0FF0
FE0FF0
FE07F8
FE07FC
FE03FE
ENDCHAR
STARTCHAR uni0213
ENCODING 531
SWIDTH 500 0
DWIDTH 17 0
BBX 14 24 3 0
BITMAP
0F80
1FE0
3FF0
7FF0
7878
0000
FE3C
FE7C
FEFC
FFFC
FFFC
FFFC
FF80
FF00
FE00
FE00
FE00
FE00
FE00
FE00
FE00
FE00
FE00
FE00
ENDCHAR
STARTCHAR uni0214
ENCODING 532
SWIDTH 783 0
DWIDTH 27 0
BBX 21 31 3 0
BITMAP
1E7800
0F3C00
079C00
038E00
01C700
000000
FE03F8
FE03F8
FE03F8
FE03F8
FE03F8
FE03F8
FE03F8
FE03F8
FE03F8
FE03F8
FE03F8
FE03F8
FE03F8
FE03F8
FE03F8
FE03F8
FE03F8
FE03F8
FE03F8
7F07F0
7F8FF0
3FFFE0
1FFFE0
0FFF80
01FE00
ENDCHAR
STARTCHAR uni0215
ENCODING 533
SWIDTH 693 0
DWIDTH 24 0
BBX 18 24 3 0
BITMAP
3CF000
1E7800
0F3800
071C00
038E00
000000
FE1FC0
FE1FC0
FE1FC0
FE1FC0
FE1FC0
FE1FC0
FE1FC0
FE1FC0
FE1FC0
FE1FC0
FE1FC0
FE3FC0
FE3FC0
FFFFC0
FFFFC0
7FDFC0
7FDFC0
1F1FC0
ENDCHAR
STARTCHAR uni0216
ENCODING 534
SWIDTH 783 0
DWIDTH 27 0
BBX 21 31 3 0
BITMAP
00F800
01FE00
03FF00
07FF00
078780
000000
FE03F8
FE03F8
FE03F8
FE03F8
FE03F8
FE03F8
FE03F8
FE03F8
FE03F8
FE03F8
FE03F8
FE03F8
FE03F8
FE03F8
FE03F8
FE03F8
FE03F8
FE03F8
FE03F8
7F07F0
7F8FF0
3FFFE0
1FFFE0
0FFF80
01FE00
ENDCHAR
STARTCHAR uni0217
ENCODING 535
SWIDTH 693 0
DWIDTH 24 0
BBX 18 24 3 0
BITMAP
03E000
07F800
0FFC00
1FFC00
1E1E00
000000
FE1FC0
FE1FC0
FE1FC0
FE1FC0
FE1FC0
FE1FC0
FE1FC0
FE1FC0
FE1FC0
FE1FC0
FE1FC0
FE3FC0
FE3FC0
FFFFC0
FFFFC0
7FDFC0
7FDFC0
1F1FC0
ENDCHAR
STARTCHAR Scommaaccent
ENCODING 536
SWIDTH 594 0
DWIDTH 20 0
BBX 18 39 1 -14
BITMAP
07FF00
1FFF00
3FFF00
7FFF00
FF0300
FE0000
FE0000
FF0000
FFC000
FFE000
7FF800
3FFC00
1FFF00
0FFF80
03FF80
00FFC0
007FC0
001FC0
001FC0
001FC0
C03F80
FFFF80
FFFF00
FFFE00
FFF000
000000
03F800
03F800
03F800
03F800
03F800
03F800
03F800
007800
007800
00F000
00F000
03E000
038000
ENDCHAR
STARTCHAR scommaaccent
ENCODING 537
SWIDTH 622 0
DWIDTH 21 0
BBX 17 32 2 -14
BITMAP
0FFC00
3FFE00
7FFE00
FFFE00
FE0200
FE0000
FF0000
7FE000
3FFC00
1FFF00
03FF80
007F80
003F80
C03F80
FFFF80
FFFF00
FFFE00
3FF000
000000
07F000
07F000
07F000
07F000
07F000
07F000
07F000
00F000
00F000
01E000
01E000
07C000
070000
ENDCHAR
STARTCHAR Tcommaaccent
ENCODING 538
SWIDTH 735 0
DWIDTH 25 0
BBX 25 39 0 -14
BITMAP
FFFFFF80
FFFFFF80
FFFFFF80
FFFFFF80
007F0000
007F0000
007F0000
007F0000
007F0000
007F0000
007F0000
007F0000
007F0000
007F0000
007F0000
007F0000
007F0000
007F0000
007F0000
007F0000
007F0000
007F0000
007F0000
007F0000
007F0000
00000000
007F0000
007F0000
007F0000
007F0000
007F0000
007F0000
007F0000
000F0000
000F0000
001E0000
001E0000
007C0000
00700000
ENDCHAR
STARTCHAR tcommaaccent
ENCODING 539
SWIDTH 436 0
DWIDTH 15 0
BBX 13 37 1 -14
BITMAP
0380
3F80
3F80
3F80
3F80
FFF8
FFF8
FFF8
FFF8
3F80
3F80
3F80
3F80
3F80
3F80
3F80
3F80
3F80
3FC0
3FF8
1FF8
1FF8
07F8
0000
0FE0
0FE0
0FE0
0FE0
0FE0
0FE0
0FE0
01E0
01E0
03C0
03C0
0F80
0E00
ENDCHAR
STARTCHAR uni021E
ENCODING 542
SWIDTH 813 0
DWIDTH 28 0
BBX 22 31 3 0
BITMAP
078780
03CF00
01FE00
00FC00
00FC00
000000
FE01FC
FE01FC
FE01FC
FE01FC
FE01FC
FE01FC
FE01FC
FE01FC
FE01FC
FE01FC
FFFFFC
FFFFFC
FFFFFC
FFFFFC
FE01FC
FE01FC
FE01FC
FE01FC
FE01FC
FE01FC
FE01FC
FE01FC
FE01FC
FE01FC
FE01FC
ENDCHAR
STARTCHAR uni021F
ENCODING 543
SWIDTH 693 0
DWIDTH 24 0
BBX 19 32 2 0
BITMAP
F0F000
79E000
3FC000
1F8000
1F8000
000000
7F0000
7F0000
7F0000
7F0000
7F0000
7F0000
7F0000
7F0000
7F1F00
7F3FC0
7F7FC0
7FFFE0
7FFFE0
7FFFE0
7F8FE0
7F8FE0
7F0FE0
7F0FE0
7F0FE0
7F0FE0
7F0FE0
7F0FE0
7F0FE0
7F0FE0
7F0FE0
7F0FE0
ENDCHAR
STARTCHAR uni0226
ENCODING 550
SWIDTH 773 0
DWIDTH 26 0
BBX 25 31 1 0
BITMAP
003E0000
003E0000
003E0000
003E0000
003E0000
00000000
007F0000
007F8000
00FF8000
00FF8000
00FFC000
01FFC000
01FFE000
01EFE000
03CFE000
03CFF000
07C7F000
0787F000
0787F800
0F83F800
0F03FC00
0FFFFC00
1FFFFC00
1FFFFE00
1FFFFE00
3C00FE00
3C007F00
7C007F00
78003F80
78003F80
F0003F80
ENDCHAR
STARTCHAR uni0227
ENCODING 551
SWIDTH 623 0
DWIDTH 21 0
BBX 19 24 1 0
BITMAP
01F000
01F000
01F000
01F000
01F000
000000
0FF800
3FFE00
3FFF00
3FFF80
307F80
203F80
003F80
0FFF80
3FFF80
7FFF80
FFFF80
FF3F80
FE3F80
FE7F80
FFFFE0
7FFFE0
3FDFE0
1F8FE0
ENDCHAR
STARTCHAR uni0228
ENCODING 552
SWIDTH 645 0
DWIDTH 22 0
BBX 18 32 3 -7
BITMAP
FFFF80
FFFF80
FFFF80
FFFF80
FE0000
FE0000
FE0000
FE0000
FE0000
FE0000
FFFE00
FFFE00
FFFE00
FFFE00
FE0000
FE0000
FE0000
FE0000
FE0000
FE0000
FE0000
FFFFC0
FFFFC0
FFFFC0
FFFFC0
01C000
018000
03C000
00F000
00F000
07F000
07E000
ENDCHAR
STARTCHAR uni0229
ENCODING 553
SWIDTH 614 0
DWIDTH 21 0
BBX 18 25 1 -7
BITMAP
03F800
0FFE00
3FFF00
3FFF80
7E3F80
7E1FC0
FFFFC0
FFFFC0
FFFFC0
FFFFC0
FE0000
FE0000
7F80C0
7FFFC0
3FFFC0
1FFFC0
0FFFC0
01FE00
007000
006000
00F000
003C00
003C00
01FC00
01F800
ENDCHAR
STARTCHAR uni022A
ENCODING 554
SWIDTH 855 0
DWIDTH 29 0
BBX 27 36 1 0
BITMAP
00FFE000
00FFE000
00FFE000
00FFE000
00000000
0078F000
0078F000
0078F000
0078F000
00000000
00000000
007FC000
03FFF800
07FFFC00
0FFFFE00
1FE0FF00
3FC07F80
7F803FC0
7F001FC0
7F001FC0
FE000FE0
FE000FE0
FE000FE0
FE000FE0
FE000FE0
FE000FE0
FE000FE0
7F001FC0
7F001FC0
7F803FC0
3FC07F80
1FE0FF00
0FFFFE00
07FFFC00
03FFF800
007FC000
ENDCHAR
STARTCHAR uni022B
ENCODING 555
SWIDTH 675 0
DWIDTH 23 0
BBX 20 29 1 0
BITMAP
07FF00
07FF00
07FF00
07FF00
000000
078F00
078F00
078F00
078F00
000000
000000
03FC00
0FFF00
1FFF80
3FFFC0
7F9FE0
7F0FE0
FE07F0
FE07F0
FE07F0
FE07F0
FE07F0
FE07F0
7F0FE0
7F9FE0
3FFFC0
1FFF80
0FFF00
03FC00
ENDCHAR
STARTCHAR uni022C
ENCODING 556
SWIDTH 855 0
DWIDTH 29 0
BBX 27 37 1 0
BITMAP
00FFE000
00FFE000
00FFE000
00FFE000
00000000
003C7000
007FF000
007FE000
00FFE000
00E3C000
00000000
00000000
007FC000
03FFF800
07FFFC00
0FFFFE00
1FE0FF00
3FC07F80
7F803FC0
7F001FC0
7F001FC0
FE000FE0
FE000FE0
FE000FE0
FE000FE0
FE000FE0
FE000FE0
FE000FE0
7F001FC0
7F001FC0
7F803FC0
3FC07F80
1FE0FF00
0FFFFE00
07FFFC00
03FFF800
007FC000
ENDCHAR
STARTCHAR uni022D
ENCODING 557
SWIDTH 675 0
DWIDTH 23 0
BBX 20 30 1 0
BITMAP
07FF00
07FF00
07FF00
07FF00
000000
03C700
07FF00
07FE00
0FFE00
0E3C00
000000
000000
03FC00
0FFF00
1FFF80
3FFFC0
7F9FE0
7F0FE0
FE07F0
FE07F0
FE07F0
FE07F0
FE07F0
FE07F0
7F0FE0
7F9FE0
3FFFC0
1FFF80
0FFF00
03FC00
ENDCHAR
STARTCHAR uni022E
ENCODING 558
SWIDTH 855 0
DWIDTH 29 0
BBX 27 31 1 0
BITMAP
001F0000
001F0000
001F0000
001F0000
001F0000
00000000
007FC000
03FFF800
07FFFC00
0FFFFE00
1FE0FF00
3FC07F80
7F803FC0
7F001FC0
7F001FC0
FE000FE0
FE000FE0
FE000FE0
FE000FE0
FE000FE0
FE000FE0
FE000FE0
7F001FC0
7F001FC0
7F803FC0
3FC07F80
1FE0FF00
0FFFFE00
07FFFC00
03FFF800
007FC000
ENDCHAR
STARTCHAR uni022F
ENCODING 559
SWIDTH 675 0
DWIDTH 23 0
BBX 20 24 1 0
BITMAP
00F800
00F800
00F800
00F800
00F800
000000
03FC00
0FFF00
1FFF80
3FFFC0
7F9FE0
7F0FE0
FE07F0
FE07F0
FE07F0
FE07F0
FE07F0
FE07F0
7F0FE0
7F9FE0
3FFFC0
1FFF80
0FFF00
03FC00
ENDCHAR
STARTCHAR uni0230
ENCODING 560
SWIDTH 855 0
DWIDTH 29 0
BBX 27 36 1 0
BITMAP
00FFE000
00FFE000
00FFE000
00FFE000
00000000
001F0000
001F0000
001F0000
001F0000
001F0000
00000000
007FC000
03FFF800
07FFFC00
0FFFFE00
1FE0FF00
3FC07F80
7F803FC0
7F001FC0
7F001FC0
FE000FE0
FE000FE0
FE000FE0
FE000FE0
FE000FE0
FE000FE0
FE000FE0
7F001FC0
7F001FC0
7F803FC0
3FC07F80
1FE0FF00
0FFFFE00
07FFFC00
03FFF800
007FC000
ENDCHAR
STARTCHAR uni0231
ENCODING 561
SWIDTH 675 0
DWIDTH 23 0
BBX 20 29 1 0
BITMAP
07FF00
07FF00
07FF00
07FF00
000000
00F800
00F800
00F800
00F800
00F800
000000
03FC00
0FFF00
1FFF80
3FFFC0
7F9FE0
7F0FE0
FE07F0
FE07F0
FE07F0
FE07F0
FE07F0
FE07F0
7F0FE0
7F9FE0
3FFFC0
1FFF80
0FFF00
03FC00
ENDCHAR
STARTCHAR uni0232
ENCODING 562
SWIDTH 738 0
DWIDTH 25 0
BBX 23 30 1 0
BITMAP
07FF00
07FF00
07FF00
07FF00
000000
FF003E
FF003C
7F807C
3FC0F8
3FC0F0
1FE1F0
1FE1E0
0FF3E0
0FF7C0
07FFC0
07FF80
03FF80
03FF00
01FE00
00FE00
00FE00
00FE00
00FE00
00FE00
00FE00
00FE00
00FE00
00FE00
00FE00
00FE00
ENDCHAR
STARTCHAR uni0233
ENCODING 563
SWIDTH 645 0
DWIDTH 22 0
BBX 21 30 1 -7
BITMAP
0FFE00
0FFE00
0FFE00
0FFE00
000000
FF00F8
FF00F0
7F01F0
7F81E0
3F83E0
3F83C0
3FC7C0
1FC780
1FEF80
0FEF00
0FFF00
0FFE00
07FE00
07FC00
07FC00
03F800
03F800
01F800
01F000
03F000
03E000
07E000
0FC000
1FC000
3F8000
ENDCHAR
STARTCHAR uni0250
ENCODING 592
SWIDTH 623 0
DWIDTH 21 0
BBX 19 18 1 0
BITMAP
FE3F00
FF7F80
FFFFC0
FFFFE0
3FCFE0
3F8FE0
3F9FE0
3FFFE0
3FFFC0
3FFF80
3FFE00
3F8000
3F8080
3FC180
3FFF80
1FFF80
0FFF80
03FE00
ENDCHAR
STARTCHAR uni0254
ENCODING 596
SWIDTH 545 0
DWIDTH 19 0
BBX 16 18 1 0
BITMAP
7FC0
FFF0
FFF8
FFFC
C1FE
00FE
00FF
007F
007F
007F
007F
007F
00FE
81FE
FFFC
FFFC
FFF0
FFC0
ENDCHAR
STARTCHAR uni0258
ENCODING 600
SWIDTH 614 0
DWIDTH 21 0
BBX 18 18 1 0
BITMAP
07F000
1FFC00
3FFF00
7FFF00
7F1F80
FE1F80
FFFFC0
FFFFC0
FFFFC0
FFFFC0
001FC0
001FC0
C07F80
FFFF80
FFFF00
FFFE00
FFFC00
1FE000
ENDCHAR
STARTCHAR uni0259
ENCODING 601
SWIDTH 614 0
DWIDTH 21 0
BBX 18 18 1 0
BITMAP
1FE000
FFFC00
FFFE00
FFFF00
FFFF80
C07F80
001FC0
001FC0
FFFFC0
FFFFC0
FFFFC0
FFFFC0
FE1F80
7F1F80
7FFF00
3FFF00
1FFC00
07F000
ENDCHAR
STARTCHAR uni025F
ENCODING 607
SWIDTH 461 0
DWIDTH 16 0
BBX 15 26 1 -8
BITMAP
03F8
03F8
03F8
03F8
03F8
03F8
03F8
03F8
03F8
03F8
03F8
03F8
03F8
03F8
3FFE
3FFE
3FFE
3FFE
03F8
03F8
03F8
87F8
FFF0
FFF0
FFE0
7F80
ENDCHAR
STARTCHAR uni0265
ENCODING 613
SWIDTH 693 0
DWIDTH 24 0
BBX 18 26 3 -8
BITMAP
FE1FC0
FE1FC0
FE1FC0
FE1FC0
FE1FC0
FE1FC0
FE1FC0
FE1FC0
FE1FC0
FE1FC0
FE3FC0
FE3FC0
FFFFC0
FFFFC0
FFFFC0
7FDFC0
7F9FC0
1F1FC0
001FC0
001FC0
001FC0
001FC0
001FC0
001FC0
001FC0
001FC0
ENDCHAR
STARTCHAR uni0275
ENCODING 629
SWIDTH 675 0
DWIDTH 23 0
BBX 20 18 1 0
BITMAP
03FC00
0FFF00
1FFF80
3FFFC0
7F9FE0
7F0FE0
FE07F0
FFFFF0
FFFFF0
FFFFF0
FFFFF0
FE07F0
7F0FE0
7F9FE0
3FFFC0
1FFF80
0FFF00
03FC00
ENDCHAR
STARTCHAR uni0279
ENCODING 633
SWIDTH 500 0
DWIDTH 17 0
BBX 14 18 3 0
BITMAP
01FC
01FC
01FC
01FC
01FC
01FC
01FC
01FC
01FC
01FC
03FC
07FC
FFFC
FFFC
FFFC
FDFC
F9FC
F1FC
ENDCHAR
STARTCHAR uni0287
ENCODING 647
SWIDTH 436 0
DWIDTH 15 0
BBX 13 23 1 0
BITMAP
FF00
FFC0
FFC0
FFE0
1FE0
0FE0
0FE0
0FE0
0FE0
0FE0
0FE0
0FE0
0FE0
0FE0
FFF8
FFF8
FFF8
FFF8
0FE0
0FE0
0FE0
0FE0
0E00
ENDCHAR
STARTCHAR uni0288
ENCODING 648
SWIDTH 436 0
DWIDTH 15 0
BBX 15 30 1 -7
BITMAP
0380
3F80
3F80
3F80
3F80
FFF8
FFF8
FFF8
FFF8
3F80
3F80
3F80
3F80
3F80
3F80
3F80
3F80
3F80
3F80
3F80
3F80
3F80
3F80
3F80
3F80
3FC2
1FFE
1FFE
0FFE
03FC
ENDCHAR
STARTCHAR uni0289
ENCODING 649
SWIDTH 693 0
DWIDTH 24 0
BBX 18 18 3 0
BITMAP
FE1FC0
FE1FC0
FE1FC0
FE1FC0
FE1FC0
FE1FC0
FE1FC0
FFFFC0
FFFFC0
FFFFC0
FFFFC0
FE3FC0
FE3FC0
FFFFC0
FFFFC0
7FDFC0
7FDFC0
1F1FC0
ENDCHAR
STARTCHAR uni028C
ENCODING 652
SWIDTH 663 0
DWIDTH 23 0
BBX 21 18 1 0
BITMAP
01FC00
01FC00
03FE00
03FE00
07FF00
07FF00
07FF80
0F7F80
0F3F80
1F3FC0
1E1FC0
1E1FE0
3E1FE0
3C0FE0
7C0FF0
7807F0
7807F8
F807F8
ENDCHAR
STARTCHAR uni028D
ENCODING 653
SWIDTH 885 0
DWIDTH 30 0
BBX 28 18 1 0
BITMAP
07E07F00
07F07F00
0FF0FF00
0FF0FF80
0FF0FF80
0FF8FF80
1FF9FF80
1EF9FFC0
1EF9EFC0
3EFFEFC0
3C7FCFC0
3C7FCFE0
3C7FC7E0
787F87E0
783F87E0
783F87F0
F83F83F0
F03F03F0
ENDCHAR
STARTCHAR uni028E
ENCODING 654
SWIDTH 645 0
DWIDTH 22 0
BBX 21 25 1 0
BITMAP
000FE0
001FC0
001F80
003F00
003E00
007E00
007C00
00FC00
00FE00
00FE00
01FF00
01FF00
03FF00
03FF80
07FF80
07BF80
0FBFC0
0F1FC0
1F1FE0
1E0FE0
3E0FE0
3C0FF0
7C07F0
7807F8
F807F8
ENDCHAR
STARTCHAR uni029E
ENCODING 670
SWIDTH 681 0
DWIDTH 23 0
BBX 21 26 3 -8
BITMAP
FF83F8
7FC3F8
3FC3F8
1FE3F8
1FF3F8
0FF3F8
07FBF8
07FBF8
03FFF8
01FFF8
01FBF8
01F3F8
01F3F8
03E3F8
07C3F8
07C3F8
0F83F8
1F03F8
0003F8
0003F8
0003F8
0003F8
0003F8
0003F8
0003F8
0003F8
ENDCHAR
STARTCHAR uni02BB
ENCODING 699
SWIDTH 265 0
DWIDTH 9 0
BBX 7 12 1 14
BITMAP
0E
3E
78
78
F0
FE
FE
FE
FE
FE
FE
FE
ENDCHAR
STARTCHAR afii57929
ENCODING 700
SWIDTH 265 0
DWIDTH 9 0
BBX 7 12 1 14
BITMAP
FE
FE
FE
FE
FE
FE
FE
1E
3C
3C
F8
E0
ENDCHAR
STARTCHAR afii64937
ENCODING 701
SWIDTH 265 0
DWIDTH 9 0
BBX 7 12 1 14
BITMAP
FE
FE
FE
FE
FE
FE
FE
F0
78
78
3E
0E
ENDCHAR
STARTCHAR circumflex
ENCODING 710
SWIDTH 675 0
DWIDTH 23 0
BBX 12 5 5 21
BITMAP
1F80
1F80
3FC0
79E0
F0F0
ENDCHAR
STARTCHAR caron
ENCODING 711
SWIDTH 675 0
DWIDTH 23 0
BBX 12 5 5 21
BITMAP
F0F0
79E0
3FC0
1F80
1F80
ENDCHAR
STARTCHAR uni02C8
ENCODING 712
SWIDTH 265 0
DWIDTH 9 0
BBX 7 12 1 14
BITMAP
FE
FE
FE
FC
FC
FC
7C
7C
7C
78
78
78
ENDCHAR
STARTCHAR macron
ENCODING 713
SWIDTH 675 0
DWIDTH 23 0
BBX 11 4 6 21
BITMAP
FFE0
FFE0
FFE0
FFE0
ENDCHAR
STARTCHAR uni02CA
ENCODING 714
SWIDTH 675 0
DWIDTH 23 0
BBX 9 5 8 21
BITMAP
1F80
1E00
3C00
7800
F000
ENDCHAR
STARTCHAR uni02CB
ENCODING 715
SWIDTH 675 0
DWIDTH 23 0
BBX 9 5 6 21
BITMAP
FC00
3C00
1E00
0F00
0780
ENDCHAR
STARTCHAR uni02CD
ENCODING 717
SWIDTH 675 0
DWIDTH 23 0
BBX 11 4 6 -5
BITMAP
FFE0
FFE0
FFE0
FFE0
ENDCHAR
STARTCHAR uni02CE
ENCODING 718
SWIDTH 675 0
DWIDTH 23 0
BBX 9 5 6 -6
BITMAP
FC00
3C00
1E00
0F00
0780
ENDCHAR
STARTCHAR uni02CF
ENCODING 719
SWIDTH 675 0
DWIDTH 23 0
BBX 9 5 8 -6
BITMAP
1F80
1E00
3C00
7800
F000
ENDCHAR
STARTCHAR breve
ENCODING 728
SWIDTH 675 0
DWIDTH 23 0
BBX 12 5 5 21
BITMAP
F0F0
FFE0
7FE0
3FC0
1F00
ENDCHAR
STARTCHAR dotaccent
ENCODING 729
SWIDTH 675 0
DWIDTH 23 0
BBX 5 5 9 21
BITMAP
F8
F8
F8
F8
F8
ENDCHAR
STARTCHAR ring
ENCODING 730
SWIDTH 675 0
DWIDTH 23 0
BBX 5 6 8 20
BITMAP
70
F8
D8
D8
F8
70
ENDCHAR
STARTCHAR ogonek
ENCODING 731
SWIDTH 675 0
DWIDTH 23 0
BBX 6 5 9 -6
BITMAP
70
E0
E0
FC
7C
ENDCHAR
STARTCHAR tilde
ENCODING 732
SWIDTH 675 0
DWIDTH 23 0
BBX 12 5 5 21
BITMAP
3C70
7FF0
7FE0
FFE0
E3C0
ENDCHAR
STARTCHAR hungarumlaut
ENCODING 733
SWIDTH 675 0
DWIDTH 23 0
BBX 13 5 7 21
BITMAP
1E78
3CF0
39E0
71C0
E380
ENDCHAR
STARTCHAR uni02EE
ENCODING 750
SWIDTH 530 0
DWIDTH 18 0
BBX 16 12 1 14
BITMAP
FE7F
FE7F
FE7F
FE7F
FE7F
FE7F
FE7F
3E0F
3C0E
3C1E
F87C
E070
ENDCHAR
STARTCHAR uni037E
ENCODING 894
SWIDTH 343 0
DWIDTH 12 0
BBX 7 24 2 -6
BITMAP
FE
FE
FE
FE
FE
FE
FE
00
00
00
00
00
FE
FE
FE
FE
FE
FE
1E
1E
3C
3C
F8
E0
ENDCHAR
STARTCHAR tonos
ENCODING 900
SWIDTH 675 0
DWIDTH 23 0
BBX 9 5 8 21
BITMAP
1F80
1E00
3C00
7800
F000
ENDCHAR
STARTCHAR dieresistonos
ENCODING 901
SWIDTH 675 0
DWIDTH 23 0
BBX 11 10 6 21
BITMAP
07E0
0780
0F00
1E00
3C00
0000
F1E0
F1E0
F1E0
F1E0
ENDCHAR
STARTCHAR anoteleia
ENCODING 903
SWIDTH 343 0
DWIDTH 23 0
BBX 5 5 9 7
BITMAP
F8
F8
F8
F8
F8
ENDCHAR
STARTCHAR mu
ENCODING 956
SWIDTH 699 0
DWIDTH 24 0
BBX 18 24 3 -6
BITMAP
FE1FC0
FE1FC0
FE1FC0
FE1FC0
FE1FC0
FE1FC0
FE1FC0
FE1FC0
FE1FC0
FE1FC0
FE1FC0
FE3FC0
FE3FC0
FFFFC0
FFFFC0
FFFFC0
FFDFC0
FF9FC0
FE0000
FE0000
FE0000
FE0000
FE0000
FE0000
ENDCHAR
STARTCHAR uni1E00
ENCODING 7680
SWIDTH 773 0
DWIDTH 26 0
BBX 25 32 1 -7
BITMAP
007F0000
007F8000
00FF8000
00FF8000
00FFC000
01FFC000
01FFE000
01EFE000
03CFE000
03CFF000
07C7F000
0787F000
0787F800
0F83F800
0F03FC00
0FFFFC00
1FFFFC00
1FFFFE00
1FFFFE00
3C00FE00
3C007F00
7C007F00
78003F80
78003F80
F0003F80
00000000
000E0000
001F0000
001B0000
001B0000
001F0000
000E0000
ENDCHAR
STARTCHAR uni1E01
ENCODING 7681
SWIDTH 623 0
DWIDTH 21 0
BBX 19 25 1 -7
BITMAP
0FF800
3FFE00
3FFF00
3FFF80
307F80
203F80
003F80
0FFF80
3FFF80
7FFF80
FFFF80
FF3F80
FE3F80
FE7F80
FFFFE0
7FFFE0
3FDFE0
1F8FE0
000000
00E000
01F000
01B000
01B000
01F000
00E000
ENDCHAR
STARTCHAR uni1E02
ENCODING 7682
SWIDTH 669 0
DWIDTH 23 0
BBX 19 31 3 0
BITMAP
03E000
03E000
03E000
03E000
03E000
000000
FFFC00
FFFF00
FFFF80
FFFFC0
FE3FC0
FE1FC0
FE1FC0
FE1FC0
FE3F80
FE3F00
FFFE00
FFF800
FFFC00
FFFF00
FE3FC0
FE1FC0
FE0FE0
FE0FE0
FE0FE0
FE0FE0
FE1FE0
FFFFC0
FFFFC0
FFFF80
FFFE00
ENDCHAR
STARTCHAR uni1E03
ENCODING 7683
SWIDTH 696 0
DWIDTH 24 0
BBX 20 32 3 0
BITMAP
1F0000
1F0000
1F0000
1F0000
1F0000
000000
FE0000
FE0000
FE0000
FE0000
FE0000
FE0000
FE0000
FE0000
FE3F00
FE7F80
FEFFC0
FFFFE0
FFFFE0
FF0FF0
FE0FF0
FE07F0
FE07F0
FE07F0
FE07F0
FE07F0
FE0FE0
FF1FE0
FFFFE0
FFFFC0
FDFF80
FC7E00
ENDCHAR
STARTCHAR uni1E04
ENCODING 7684
SWIDTH 669 0
DWIDTH 23 0
BBX 19 31 3 -6
BITMAP
FFFC00
FFFF00
FFFF80
FFFFC0
FE3FC0
FE1FC0
FE1FC0
FE1FC0
FE3F80
FE3F00
FFFE00
FFF800
FFFC00
FFFF00
FE3FC0
FE1FC0
FE0FE0
FE0FE0
FE0FE0
FE0FE0
FE1FE0
FFFFC0
FFFFC0
FFFF80
FFFE00
000000
01F000
01F000
01F000
01F000
01F000
ENDCHAR
STARTCHAR uni1E05
ENCODING 7685
SWIDTH 696 0
DWIDTH 24 0
BBX 20 32 3 -6
BITMAP
FE0000
FE0000
FE0000
FE0000
FE0000
FE0000
FE0000
FE0000
FE3F00
FE7F80
FEFFC0
FFFFE0
FFFFE0
FF0FF0
FE0FF0
FE07F0
FE07F0
FE07F0
FE07F0
FE07F0
FE0FE0
FF1FE0
FFFFE0
FFFFC0
FDFF80
FC7E00
000000
01F000
01F000
01F000
01F000
01F000
ENDCHAR
STARTCHAR uni1E06
ENCODING 7686
SWIDTH 669 0
DWIDTH 23 0
BBX 19 30 3 -5
BITMAP
FFFC00
FFFF00
FFFF80
FFFFC0
FE3FC0
FE1FC0
FE1FC0
FE1FC0
FE3F80
FE3F00
FFFE00
FFF800
FFFC00
FFFF00
FE3FC0
FE1FC0
FE0FE0
FE0FE0
FE0FE0
FE0FE0
FE1FE0
FFFFC0
FFFFC0
FFFF80
FFFE00
000000
0FFE00
0FFE00
0FFE00
0FFE00
ENDCHAR
STARTCHAR uni1E07
ENCODING 7687
SWIDTH 696 0
DWIDTH 24 0
BBX 20 31 3 -5
BITMAP
FE0000
FE0000
FE0000
FE0000
FE0000
FE0000
FE0000
FE0000
FE3F00
FE7F80
FEFFC0
FFFFE0
FFFFE0
FF0FF0
FE0FF0
FE07F0
FE07F0
FE07F0
FE07F0
FE07F0
FE0FE0
FF1FE0
FFFFE0
FFFFC0
FDFF80
FC7E00
000000
0FFE00
0FFE00
0FFE00
0FFE00
ENDCHAR
STARTCHAR uni1E08
ENCODING 7688
SWIDTH 726 0
DWIDTH 25 0
BBX 23 38 1 -7
BITMAP
001F80
001E00
003C00
007800
00F000
000000
003FF8
01FFFE
07FFFE
1FFFFE
1FF00E
3FC000
7F8000
7F0000
7F0000
FE0000
FE0000
FE0000
FE0000
FE0000
FE0000
FF0000
7F0000
7F8000
7FC002
3FF00E
1FFFFE
1FFFFE
07FFFE
03FFFE
007FE0
003800
003000
007800
001E00
001E00
00FE00
00FC00
ENDCHAR
STARTCHAR uni1E09
ENCODING 7689
SWIDTH 545 0
DWIDTH 19 0
BBX 16 31 1 -7
BITMAP
00FC
00F0
01E0
03C0
0780
0000
03FE
0FFF
1FFF
3FFF
7F83
7F00
FF00
FE00
FE00
FE00
FE00
FE00
7F00
7F81
3FFF
3FFF
0FFF
03FF
01C0
0180
03C0
00F0
00F0
07F0
07E0
ENDCHAR
STARTCHAR uni1E0A
ENCODING 7690
SWIDTH 819 0
DWIDTH 28 0
BBX 24 31 3 0
BITMAP
00F800
00F800
00F800
00F800
00F800
000000
FFFF00
FFFFE0
FFFFF0
FFFFF8
FE07FC
FE01FE
FE01FE
FE00FE
FE007F
FE007F
FE007F
FE007F
FE007F
FE007F
FE007F
FE007F
FE00FE
FE00FE
FE01FE
FE07FC
FFFFFC
FFFFF8
FFFFF0
FFFFC0
FFFF00
ENDCHAR
STARTCHAR uni1E0B
ENCODING 7691
SWIDTH 696 0
DWIDTH 24 0
BBX 20 32 1 0
BITMAP
000F80
000F80
000F80
000F80
000F80
000000
0007F0
0007F0
0007F0
0007F0
0007F0
0007F0
0007F0
0007F0
07C7F0
1FF7F0
3FFFF0
7FFFF0
7F8FF0
FF07F0
FE07F0
FE07F0
FE07F0
FE07F0
FE07F0
FF07F0
FF0FF0
7FFFF0
7FFFF0
3FF7F0
1FE7F0
0FC7F0
ENDCHAR
STARTCHAR uni1E0C
ENCODING 7692
SWIDTH 819 0
DWIDTH 28 0
BBX 24 31 3 -6
BITMAP
FFFF00
FFFFE0
FFFFF0
FFFFF8
FE07FC
FE01FE
FE01FE
FE00FE
FE007F
FE007F
FE007F
FE007F
FE007F
FE007F
FE007F
FE007F
FE00FE
FE00FE
FE01FE
FE07FC
FFFFFC
FFFFF8
FFFFF0
FFFFC0
FFFF00
000000
00F800
00F800
00F800
00F800
00F800
ENDCHAR
STARTCHAR uni1E0D
ENCODING 7693
SWIDTH 696 0
DWIDTH 24 0
BBX 20 32 1 -6
BITMAP
0007F0
0007F0
0007F0
0007F0
0007F0
0007F0
0007F0
0007F0
07C7F0
1FF7F0
3FFFF0
7FFFF0
7F8FF0
FF07F0
FE07F0
FE07F0
FE07F0
FE07F0
FE07F0
FF07F0
FF0FF0
7FFFF0
7FFFF0
3FF7F0
1FE7F0
0FC7F0
000000
00F800
00F800
00F800
00F800
00F800
ENDCHAR
STARTCHAR uni1E0E
ENCODING 7694
SWIDTH 819 0
DWIDTH 28 0
BBX 24 30 3 -5
BITMAP
FFFF00
FFFFE0
FFFFF0
FFFFF8
FE07FC
FE01FE
FE01FE
FE00FE
FE007F
FE007F
FE007F
FE007F
FE007F
FE007F
FE007F
FE007F
FE00FE
FE00FE
FE01FE
FE07FC
FFFFFC
FFFFF8
FFFFF0
FFFFC0
FFFF00
000000
07FF00
07FF00
07FF00
07FF00
ENDCHAR
STARTCHAR uni1E0F
ENCODING 7695
SWIDTH 696 0
DWIDTH 24 0
BBX 20 31 1 -5
BITMAP
0007F0
0007F0
0007F0
0007F0
0007F0
0007F0
0007F0
0007F0
07C7F0
1FF7F0
3FFFF0
7FFFF0
7F8FF0
FF07F0
FE07F0
FE07F0
FE07F0
FE07F0
FE07F0
FF07F0
FF0FF0
7FFFF0
7FFFF0
3FF7F0
1FE7F0
0FC7F0
000000
07FF00
07FF00
07FF00
07FF00
ENDCHAR
STARTCHAR uni1E10
ENCODING 7696
SWIDTH 819 0
DWIDTH 28 0
BBX 24 32 3 -7
BITMAP
FFFF00
FFFFE0
FFFFF0
FFFFF8
FE07FC
FE01FE
FE01FE
FE00FE
FE007F
FE007F
FE007F
FE007F
FE007F
FE007F
FE007F
FE007F
FE00FE
FE00FE
FE01FE
FE07FC
FFFFFC
FFFFF8
FFFFF0
FFFFC0
FFFF00
007000
006000
00F000
003C00
003C00
01FC00
01F800
ENDCHAR
STARTCHAR uni1E11
ENCODING 7697
SWIDTH 696 0
DWIDTH 24 0
BBX 20 33 1 -7
BITMAP
0007F0
0007F0
0007F0
0007F0
0007F0
0007F0
0007F0
0007F0
07C7F0
1FF7F0
3FFFF0
7FFFF0
7F8FF0
FF07F0
FE07F0
FE07F0
FE07F0
FE07F0
FE07F0
FF07F0
FF0FF0
7FFFF0
7FFFF0
3FF7F0
1FE7F0
0FC7F0
007000
006000
00F000
003C00
003C00
01FC00
01F800
ENDCHAR
STARTCHAR uni1E12
ENCODING 7698
SWIDTH 819 0
DWIDTH 28 0
BBX 24 31 3 -6
BITMAP
FFFF00
FFFFE0
FFFFF0
FFFFF8
FE07FC
FE01FE
FE01FE
FE00FE
FE007F
FE007F
FE007F
FE007F
FE007F
FE007F
FE007F
FE007F
FE00FE
FE00FE
FE01FE
FE07FC
FFFFFC
FFFFF8
FFFFF0
FFFFC0
FFFF00
000000
00FC00
00FC00
01FE00
03CF00
078780
ENDCHAR
STARTCHAR uni1E13
ENCODING 7699
SWIDTH 696 0
DWIDTH 24 0
BBX 20 32 1 -6
BITMAP
0007F0
0007F0
0007F0
0007F0
0007F0
0007F0
0007F0
0007F0
07C7F0
1FF7F0
3FFFF0
7FFFF0
7F8FF0
FF07F0
FE07F0
FE07F0
FE07F0
FE07F0
FE07F0
FF07F0
FF0FF0
7FFFF0
7FFFF0
3FF7F0
1FE7F0
0FC7F0
000000
01F800
01F800
03FC00
079E00
0F0F00
ENDCHAR
STARTCHAR uni1E14
ENCODING 7700
SWIDTH 645 0
DWIDTH 22 0
BBX 18 36 3 0
BITMAP
1F8000
078000
03C000
01E000
00F000
000000
3FF800
3FF800
3FF800
3FF800
000000
FFFF80
FFFF80
FFFF80
FFFF80
FE0000
FE0000
FE0000
FE0000
FE0000
FE0000
FFFE00
FFFE00
FFFE00
FFFE00
FE0000
FE0000
FE0000
FE0000
FE0000
FE0000
FE0000
FFFFC0
FFFFC0
FFFFC0
FFFFC0
ENDCHAR
STARTCHAR uni1E15
ENCODING 7701
SWIDTH 614 0
DWIDTH 21 0
BBX 18 29 1 0
BITMAP
0FC000
03C000
01E000
00F000
007800
000000
0FFE00
0FFE00
0FFE00
0FFE00
000000
03F800
0FFE00
3FFF00
3FFF80
7E3F80
7E1FC0
FFFFC0
FFFFC0
FFFFC0
FFFFC0
FE0000
FE0000
7F80C0
7FFFC0
3FFFC0
1FFFC0
0FFFC0
01FE00
ENDCHAR
STARTCHAR uni1E16
ENCODING 7702
SWIDTH 645 0
DWIDTH 22 0
BBX 18 36 3 0
BITMAP
00FC00
00F000
01E000
03C000
078000
000000
3FF800
3FF800
3FF800
3FF800
000000
FFFF80
FFFF80
FFFF80
FFFF80
FE0000
FE0000
FE0000
FE0000
FE0000
FE0000
FFFE00
FFFE00
FFFE00
FFFE00
FE0000
FE0000
FE0000
FE0000
FE0000
FE0000
FE0000
FFFFC0
FFFFC0
FFFFC0
FFFFC0
ENDCHAR
STARTCHAR uni1E17
ENCODING 7703
SWIDTH 614 0
DWIDTH 21 0
BBX 18 29 1 0
BITMAP
007E00
007800
00F000
01E000
03C000
000000
0FFE00
0FFE00
0FFE00
0FFE00
000000
03F800
0FFE00
3FFF00
3FFF80
7E3F80
7E1FC0
FFFFC0
FFFFC0
FFFFC0
FFFFC0
FE0000
FE0000
7F80C0
7FFFC0
3FFFC0
1FFFC0
0FFFC0
01FE00
ENDCHAR
STARTCHAR uni1E18
ENCODING 7704
SWIDTH 645 0
DWIDTH 22 0
BBX 18 31 3 -6
BITMAP
FFFF80
FFFF80
FFFF80
FFFF80
FE0000
FE0000
FE0000
FE0000
FE0000
FE0000
FFFE00
FFFE00
FFFE00
FFFE00
FE0000
FE0000
FE0000
FE0000
FE0000
FE0000
FE0000
FFFFC0
FFFFC0
FFFFC0
FFFFC0
000000
07E000
07E000
0FF000
1E7800
3C3C00
ENDCHAR
STARTCHAR uni1E19
ENCODING 7705
SWIDTH 614 0
DWIDTH 21 0
BBX 18 24 1 -6
BITMAP
03F800
0FFE00
3FFF00
3FFF80
7E3F80
7E1FC0
FFFFC0
FFFFC0
FFFFC0
FFFFC0
FE0000
FE0000
7F80C0
7FFFC0
3FFFC0
1FFFC0
0FFFC0
01FE00
000000
01F800
01F800
03FC00
079E00
0F0F00
ENDCHAR
STARTCHAR uni1E1A
ENCODING 7706
SWIDTH 645 0
DWIDTH 22 0
BBX 18 31 3 -6
BITMAP
FFFF80
FFFF80
FFFF80
FFFF80
FE0000
FE0000
FE0000
FE0000
FE0000
FE0000
FFFE00
FFFE00
FFFE00
FFFE00
FE0000
FE0000
FE0000
FE0000
FE0000
FE0000
FE0000
FFFFC0
FFFFC0
FFFFC0
FFFFC0
000000
0F1C00
1FFC00
1FF800
3FF800
38F000
ENDCHAR
STARTCHAR uni1E1B
ENCODING 7707
SWIDTH 614 0
DWIDTH 21 0
BBX 18 24 1 -6
BITMAP
03F800
0FFE00
3FFF00
3FFF80
7E3F80
7E1FC0
FFFFC0
FFFFC0
FFFFC0
FFFFC0
FE0000
FE0000
7F80C0
7FFFC0
3FFFC0
1FFFC0
0FFFC0
01FE00
000000
078E00
0FFE00
0FFC00
1FFC00
1C7800
ENDCHAR
STARTCHAR uni1E1C
ENCODING 7708
SWIDTH 645 0
DWIDTH 22 0
BBX 18 38 3 -7
BITMAP
3C3C00
3FF800
1FF800
0FF000
07C000
000000
FFFF80
FFFF80
FFFF80
FFFF80
FE0000
FE0000
FE0000
FE0000
FE0000
FE0000
FFFE00
FFFE00
FFFE00
FFFE00
FE0000
FE0000
FE0000
FE0000
FE0000
FE0000
FE0000
FFFFC0
FFFFC0
FFFFC0
FFFFC0
01C000
018000
03C000
00F000
00F000
07F000
07E000
ENDCHAR
STARTCHAR uni1E1D
ENCODING 7709
SWIDTH 614 0
DWIDTH 21 0
BBX 18 31 1 -7
BITMAP
1E1E00
1FFC00
0FFC00
07F800
03E000
000000
03F800
0FFE00
3FFF00
3FFF80
7E3F80
7E1FC0
FFFFC0
FFFFC0
FFFFC0
FFFFC0
FE0000
FE0000
7F80C0
7FFFC0
3FFFC0
1FFFC0
0FFFC0
01FE00
007000
006000
00F000
003C00
003C00
01FC00
01F800
ENDCHAR
STARTCHAR uni1E1E
ENCODING 7710
SWIDTH 602 0
DWIDTH 20 0
BBX 17 31 3 0
BITMAP
07C000
07C000
07C000
07C000
07C000
000000
FFFF80
FFFF80
FFFF80
FFFF80
FE0000
FE0000
FE0000
FE0000
FE0000
FE0000
FE0000
FFFE00
FFFE00
FFFE00
FFFE00
FE0000
FE0000
FE0000
FE0000
FE0000
FE0000
FE0000
FE0000
FE0000
FE0000
ENDCHAR
STARTCHAR uni1E1F
ENCODING 7711
SWIDTH 461 0
DWIDTH 16 0
BBX 15 32 1 0
BITMAP
07C0
07C0
07C0
07C0
07C0
0000
03FC
0FFE
1FFE
1FFE
3FC2
3F80
3F80
3F80
FFF8
FFF8
FFF8
FFF8
3F80
3F80
3F80
3F80
3F80
3F80
3F80
3F80
3F80
3F80
3F80
3F80
3F80
3F80
ENDCHAR
STARTCHAR uni1E20
ENCODING 7712
SWIDTH 759 0
DWIDTH 26 0
BBX 22 30 1 0
BITMAP
03FF80
03FF80
03FF80
03FF80
000000
007FFC
03FFFC
07FFFC
1FFFFC
3FF00C
3FC000
7F8000
7F0000
FF0000
FE0000
FE0000
FE0000
FE0000
FE01FC
FE01FC
FE01FC
FF01FC
7F01FC
7F81FC
3FC1FC
3FF1FC
1FFFFC
0FFFFC
03FFFC
007FE0
ENDCHAR
STARTCHAR uni1E21
ENCODING 7713
SWIDTH 696 0
DWIDTH 24 0
BBX 20 30 1 -7
BITMAP
07FF00
07FF00
07FF00
07FF00
000000
07E3F0
1FFBF0
3FFFF0
3FFFF0
7F8FF0
7F07F0
FE07F0
FE07F0
FE07F0
FE07F0
FE07F0
FF0FF0
FF0FF0
7FFFF0
7FF7F0
3FF7F0
1FE7F0
0F87F0
0007F0
300FF0
3FFFE0
3FFFE0
3FFFC0
3FFF00
07FC00
ENDCHAR
STARTCHAR uni1E22
ENCODING 7714
SWIDTH 813 0
DWIDTH 28 0
BBX 22 31 3 0
BITMAP
007C00
007C00
007C00
007C00
007C00
000000
FE01FC
FE01FC
FE01FC
FE01FC
FE01FC
FE01FC
FE01FC
FE01FC
FE01FC
FE01FC
FFFFFC
FFFFFC
FFFFFC
FFFFFC
FE01FC
FE01FC
FE01FC
FE01FC
FE01FC
FE01FC
FE01FC
FE01FC
FE01FC
FE01FC
FE01FC
ENDCHAR
STARTCHAR uni1E23
ENCODING 7715
SWIDTH 693 0
DWIDTH 24 0
BBX 18 32 3 0
BITMAP
1F0000
1F0000
1F0000
1F0000
1F0000
000000
FE0000
FE0000
FE0000
FE0000
FE0000
FE0000
FE0000
FE0000
FE3E00
FE7F80
FEFF80
FFFFC0
FFFFC0
FFFFC0
FF1FC0
FF1FC0
FE1FC0
FE1FC0
FE1FC0
FE1FC0
FE1FC0
FE1FC0
FE1FC0
FE1FC0
FE1FC0
FE1FC0
ENDCHAR
STARTCHAR uni1E24
ENCODING 7716
SWIDTH 813 0
DWIDTH 28 0
BBX 22 31 3 -6
BITMAP
FE01FC
FE01FC
FE01FC
FE01FC
FE01FC
FE01FC
FE01FC
FE01FC
FE01FC
FE01FC
FFFFFC
FFFFFC
FFFFFC
FFFFFC
FE01FC
FE01FC
FE01FC
FE01FC
FE01FC
FE01FC
FE01FC
FE01FC
FE01FC
FE01FC
FE01FC
000000
007C00
007C00
007C00
007C00
007C00
ENDCHAR
STARTCHAR uni1E25
ENCODING 7717
SWIDTH 693 0
DWIDTH 24 0
BBX 18 32 3 -6
BITMAP
FE0000
FE0000
FE0000
FE0000
FE0000
FE0000
FE0000
FE0000
FE3E00
FE7F80
FEFF80
FFFFC0
FFFFC0
FFFFC0
FF1FC0
FF1FC0
FE1FC0
FE1FC0
FE1FC0
FE1FC0
FE1FC0
FE1FC0
FE1FC0
FE1FC0
FE1FC0
FE1FC0
000000
01F000
01F000
01F000
01F000
01F000
ENDCHAR
STARTCHAR uni1E26
ENCODING 7718
SWIDTH 813 0
DWIDTH 28 0
BBX 22 30 3 0
BITMAP
03C780
03C780
03C780
03C780
000000
FE01FC
FE01FC
FE01FC
FE01FC
FE01FC
FE01FC
FE01FC
FE01FC
FE01FC
FE01FC
FFFFFC
FFFFFC
FFFFFC
FFFFFC
FE01FC
FE01FC
FE01FC
FE01FC
FE01FC
FE01FC
FE01FC
FE01FC
FE01FC
FE01FC
FE01FC
ENDCHAR
STARTCHAR uni1E27
ENCODING 7719
SWIDTH 693 0
DWIDTH 24 0
BBX 18 31 3 0
BITMAP
F1E000
F1E000
F1E000
F1E000
000000
FE0000
FE0000
FE0000
FE0000
FE0000
FE0000
FE0000
FE0000
FE3E00
FE7F80
FEFF80
FFFFC0
FFFFC0
FFFFC0
FF1FC0
FF1FC0
FE1FC0
FE1FC0
FE1FC0
FE1FC0
FE1FC0
FE1FC0
FE1FC0
FE1FC0
FE1FC0
FE1FC0
ENDCHAR
STARTCHAR uni1E28
ENCODING 7720
SWIDTH 813 0
DWIDTH 28 0
BBX 22 32 3 -7
BITMAP
FE01FC
FE01FC
FE01FC
FE01FC
FE01FC
FE01FC
FE01FC
FE01FC
FE01FC
FE01FC
FFFFFC
FFFFFC
FFFFFC
FFFFFC
FE01FC
FE01FC
FE01FC
FE01FC
FE01FC
FE01FC
FE01FC
FE01FC
FE01FC
FE01FC
FE01FC
003800
003000
007800
001E00
001E00
00FE00
00FC00
ENDCHAR
STARTCHAR uni1E29
ENCODING 7721
SWIDTH 693 0
DWIDTH 24 0
BBX 18 33 3 -7
BITMAP
FE0000
FE0000
FE0000
FE0000
FE0000
FE0000
FE0000
FE0000
FE3E00
FE7F80
FEFF80
FFFFC0
FFFFC0
FFFFC0
FF1FC0
FF1FC0
FE1FC0
FE1FC0
FE1FC0
FE1FC0
FE1FC0
FE1FC0
FE1FC0
FE1FC0
FE1FC0
FE1FC0
00E000
00C000
01E000
007800
007800
03F800
03F000
ENDCHAR
STARTCHAR uni1E2A
ENCODING 7722
SWIDTH 813 0
DWIDTH 28 0
BBX 22 31 3 -6
BITMAP
FE01FC
FE01FC
FE01FC
FE01FC
FE01FC
FE01FC
FE01FC
FE01FC
FE01FC
FE01FC
FFFFFC
FFFFFC
FFFFFC
FFFFFC
FE01FC
FE01FC
FE01FC
FE01FC
FE01FC
FE01FC
FE01FC
FE01FC
FE01FC
FE01FC
FE01FC
000000
078780
07FF00
03FF00
01FE00
00F800
ENDCHAR
STARTCHAR uni1E2B
ENCODING 7723
SWIDTH 693 0
DWIDTH 24 0
BBX 18 32 3 -6
BITMAP
FE0000
FE0000
FE0000
FE0000
FE0000
FE0000
FE0000
FE0000
FE3E00
FE7F80
FEFF80
FFFFC0
FFFFC0
FFFFC0
FF1FC0
FF1FC0
FE1FC0
FE1FC0
FE1FC0
FE1FC0
FE1FC0
FE1FC0
FE1FC0
FE1FC0
FE1FC0
FE1FC0
000000
1E1E00
1FFC00
0FFC00
07F800
03E000
ENDCHAR
STARTCHAR uni1E2C
ENCODING 7724
SWIDTH 361 0
DWIDTH 12 0
BBX 12 31 0 -6
BITMAP
1FC0
1FC0
1FC0
1FC0
1FC0
1FC0
1FC0
1FC0
1FC0
1FC0
1FC0
1FC0
1FC0
1FC0
1FC0
1FC0
1FC0
1FC0
1FC0
1FC0
1FC0
1FC0
1FC0
1FC0
1FC0
0000
3C70
7FF0
7FE0
FFE0
E3C0
ENDCHAR
STARTCHAR uni1E2D
ENCODING 7725
SWIDTH 361 0
DWIDTH 12 0
BBX 12 32 0 -6
BITMAP
1FC0
1FC0
1FC0
1FC0
1FC0
0000
0000
0000
1FC0
1FC0
1FC0
1FC0
1FC0
1FC0
1FC0
1FC0
1FC0
1FC0
1FC0
1FC0
1FC0
1FC0
1FC0
1FC0
1FC0
1FC0
0000
3C70
7FF0
7FE0
FFE0
E3C0
ENDCHAR
STARTCHAR uni1E2E
ENCODING 7726
SWIDTH 361 0
DWIDTH 12 0
BBX 11 36 1 0
BITMAP
07E0
0780
0F00
1E00
3C00
0000
F1E0
F1E0
F1E0
F1E0
0000
3F80
3F80
3F80
3F80
3F80
3F80
3F80
3F80
3F80
3F80
3F80
3F80
3F80
3F80
3F80
3F80
3F80
3F80
3F80
3F80
3F80
3F80
3F80
3F80
3F80
ENDCHAR
STARTCHAR uni1E2F
ENCODING 7727
SWIDTH 361 0
DWIDTH 12 0
BBX 11 29 1 0
BITMAP
07E0
0780
0F00
1E00
3C00
0000
F1E0
F1E0
F1E0
F1E0
0000
3F80
3F80
3F80
3F80
3F80
3F80
3F80
3F80
3F80
3F80
3F80
3F80
3F80
3F80
3F80
3F80
3F80
3F80
ENDCHAR
STARTCHAR uni1E30
ENCODING 7728
SWIDTH 753 0
DWIDTH 26 0
BBX 23 31 3 0
BITMAP
007E00
007800
00F000
01E000
03C000
000000
FE01F0
FE03E0
FE03C0
FE07C0
FE0F80
FE0F00
FE1F00
FE3E00
FE7C00
FE7C00
FEF800
FFFC00
FFFC00
FFFE00
FFFF00
FEFF00
FE7F80
FE7FC0
FE3FC0
FE1FE0
FE1FF0
FE0FF0
FE0FF8
FE07FC
FE03FE
ENDCHAR
STARTCHAR uni1E31
ENCODING 7729
SWIDTH 681 0
DWIDTH 23 0
BBX 21 32 3 0
BITMAP
03F000
03C000
078000
0F0000
1E0000
000000
FE0000
FE0000
FE0000
FE0000
FE0000
FE0000
FE0000
FE0000
FE07C0
FE0F80
FE1F00
FE1F00
FE3E00
FE7C00
FE7C00
FEFC00
FFFC00
FFFE00
FEFF00
FEFF00
FE7F80
FE7FC0
FE3FC0
FE1FE0
FE1FF0
FE0FF8
ENDCHAR
STARTCHAR uni1E32
ENCODING 7730
SWIDTH 753 0
DWIDTH 26 0
BBX 23 31 3 -6
BITMAP
FE01F0
FE03E0
FE03C0
FE07C0
FE0F80
FE0F00
FE1F00
FE3E00
FE7C00
FE7C00
FEF800
FFFC00
FFFC00
FFFE00
FFFF00
FEFF00
FE7F80
FE7FC0
FE3FC0
FE1FE0
FE1FF0
FE0FF0
FE0FF8
FE07FC
FE03FE
000000
00F800
00F800
00F800
00F800
00F800
ENDCHAR
STARTCHAR uni1E33
ENCODING 7731
SWIDTH 681 0
DWIDTH 23 0
BBX 21 32 3 -6
BITMAP
FE0000
FE0000
FE0000
FE0000
FE0000
FE0000
FE0000
FE0000
FE07C0
FE0F80
FE1F00
FE1F00
FE3E00
FE7C00
FE7C00
FEFC00
FFFC00
FFFE00
FEFF00
FEFF00
FE7F80
FE7FC0
FE3FC0
FE1FE0
FE1FF0
FE0FF8
000000
01F000
01F000
01F000
01F000
01F000
ENDCHAR
STARTCHAR uni1E34
ENCODING 7732
SWIDTH 753 0
DWIDTH 26 0
BBX 23 30 3 -5
BITMAP
FE01F0
FE03E0
FE03C0
FE07C0
FE0F80
FE0F00
FE1F00
FE3E00
FE7C00
FE7C00
FEF800
FFFC00
FFFC00
FFFE00
FFFF00
FEFF00
FE7F80
FE7FC0
FE3FC0
FE1FE0
FE1FF0
FE0FF0
FE0FF8
FE07FC
FE03FE
000000
07FF00
07FF00
07FF00
07FF00
ENDCHAR
STARTCHAR uni1E35
ENCODING 7733
SWIDTH 681 0
DWIDTH 23 0
BBX 21 31 3 -5
BITMAP
FE0000
FE0000
FE0000
FE0000
FE0000
FE0000
FE0000
FE0000
FE07C0
FE0F80
FE1F00
FE1F00
FE3E00
FE7C00
FE7C00
FEFC00
FFFC00
FFFE00
FEFF00
FEFF00
FE7F80
FE7FC0
FE3FC0
FE1FE0
FE1FF0
FE0FF8
000000
0FFE00
0FFE00
0FFE00
0FFE00
ENDCHAR
STARTCHAR uni1E36
ENCODING 7734
SWIDTH 620 0
DWIDTH 21 0
BBX 18 31 3 -6
BITMAP
FE0000
FE0000
FE0000
FE0000
FE0000
FE0000
FE0000
FE0000
FE0000
FE0000
FE0000
FE0000
FE0000
FE0000
FE0000
FE0000
FE0000
FE0000
FE0000
FE0000
FE0000
FFFFC0
FFFFC0
FFFFC0
FFFFC0
000000
03E000
03E000
03E000
03E000
03E000
ENDCHAR
STARTCHAR uni1E37
ENCODING 7735
SWIDTH 361 0
DWIDTH 12 0
BBX 7 32 3 -6
BITMAP
FE
FE
FE
FE
FE
FE
FE
FE
FE
FE
FE
FE
FE
FE
FE
FE
FE
FE
FE
FE
FE
FE
FE
FE
FE
FE
00
7C
7C
7C
7C
7C
ENDCHAR
STARTCHAR uni1E38
ENCODING 7736
SWIDTH 620 0
DWIDTH 21 0
BBX 18 36 3 -6
BITMAP
FFE000
FFE000
FFE000
FFE000
000000
FE0000
FE0000
FE0000
FE0000
FE0000
FE0000
FE0000
FE0000
FE0000
FE0000
FE0000
FE0000
FE0000
FE0000
FE0000
FE0000
FE0000
FE0000
FE0000
FE0000
FE0000
FFFFC0
FFFFC0
FFFFC0
FFFFC0
000000
03E000
03E000
03E000
03E000
03E000
ENDCHAR
STARTCHAR uni1E39
ENCODING 7737
SWIDTH 361 0
DWIDTH 12 0
BBX 11 37 1 -6
BITMAP
FFE0
FFE0
FFE0
FFE0
0000
3F80
3F80
3F80
3F80
3F80
3F80
3F80
3F80
3F80
3F80
3F80
3F80
3F80
3F80
3F80
3F80
3F80
3F80
3F80
3F80
3F80
3F80
3F80
3F80
3F80
3F80
0000
1F00
1F00
1F00
1F00
1F00
ENDCHAR
STARTCHAR uni1E3A
ENCODING 7738
SWIDTH 620 0
DWIDTH 21 0
BBX 18 30 3 -5
BITMAP
FE0000
FE0000
FE0000
FE0000
FE0000
FE0000
FE0000
FE0000
FE0000
FE0000
FE0000
FE0000
FE0000
FE0000
FE0000
FE0000
FE0000
FE0000
FE0000
FE0000
FE0000
FFFFC0
FFFFC0
FFFFC0
FFFFC0
000000
1FFC00
1FFC00
1FFC00
1FFC00
ENDCHAR
STARTCHAR uni1E3B
ENCODING 7739
SWIDTH 361 0
DWIDTH 12 0
BBX 11 31 1 -5
BITMAP
3F80
3F80
3F80
3F80
3F80
3F80
3F80
3F80
3F80
3F80
3F80
3F80
3F80
3F80
3F80
3F80
3F80
3F80
3F80
3F80
3F80
3F80
3F80
3F80
3F80
3F80
0000
FFE0
FFE0
FFE0
FFE0
ENDCHAR
STARTCHAR uni1E3C
ENCODING 7740
SWIDTH 620 0
DWIDTH 21 0
BBX 18 31 3 -6
BITMAP
FE0000
FE0000
FE0000
FE0000
FE0000
FE0000
FE0000
FE0000
FE0000
FE0000
FE0000
FE0000
FE0000
FE0000
FE0000
FE0000
FE0000
FE0000
FE0000
FE0000
FE0000
FFFFC0
FFFFC0
FFFFC0
FFFFC0
000000
07E000
07E000
0FF000
1E7800
3C3C00
ENDCHAR
STARTCHAR uni1E3D
ENCODING 7741
SWIDTH 361 0
DWIDTH 12 0
BBX 12 32 1 -6
BITMAP
3F80
3F80
3F80
3F80
3F80
3F80
3F80
3F80
3F80
3F80
3F80
3F80
3F80
3F80
3F80
3F80
3F80
3F80
3F80
3F80
3F80
3F80
3F80
3F80
3F80
3F80
0000
1F80
1F80
3FC0
79E0
F0F0
ENDCHAR
STARTCHAR uni1E3E
ENCODING 7742
SWIDTH 940 0
DWIDTH 32 0
BBX 26 31 3 0
BITMAP
0007E000
00078000
000F0000
001E0000
003C0000
00000000
FF803FC0
FF803FC0
FF807FC0
FFC07FC0
FFC07FC0
FFC0FFC0
FFE0FFC0
FFE0FFC0
FFE1FFC0
FFF1FFC0
FBF1FFC0
FBF3DFC0
FBFBDFC0
F9FBDFC0
F9FF9FC0
F9FF9FC0
F8FF9FC0
F8FF9FC0
F8FF1FC0
F8FF1FC0
F87F1FC0
F87E1FC0
F87E1FC0
F8001FC0
F8001FC0
ENDCHAR
STARTCHAR uni1E3F
ENCODING 7743
SWIDTH 1006 0
DWIDTH 34 0
BBX 29 24 3 0
BITMAP
0003F000
0003C000
00078000
000F0000
001E0000
00000000
FE3E07E0
FEFF8FF0
FDFF9FF8
FFFFFFF8
FFFFFFF8
FFFFFFF8
FF1FE3F8
FE1FC3F8
FE1FC3F8
FE1FC3F8
FE1FC3F8
FE1FC3F8
FE1FC3F8
FE1FC3F8
FE1FC3F8
FE1FC3F8
FE1FC3F8
FE1FC3F8
ENDCHAR
STARTCHAR uni1E40
ENCODING 7744
SWIDTH 940 0
DWIDTH 32 0
BBX 26 31 3 0
BITMAP
003E0000
003E0000
003E0000
003E0000
003E0000
00000000
FF803FC0
FF803FC0
FF807FC0
FFC07FC0
FFC07FC0
FFC0FFC0
FFE0FFC0
FFE0FFC0
FFE1FFC0
FFF1FFC0
FBF1FFC0
FBF3DFC0
FBFBDFC0
F9FBDFC0
F9FF9FC0
F9FF9FC0
F8FF9FC0
F8FF9FC0
F8FF1FC0
F8FF1FC0
F87F1FC0
F87E1FC0
F87E1FC0
F8001FC0
F8001FC0
ENDCHAR
STARTCHAR uni1E41
ENCODING 7745
SWIDTH 1006 0
DWIDTH 34 0
BBX 29 24 3 0
BITMAP
000F8000
000F8000
000F8000
000F8000
000F8000
00000000
FE3E07E0
FEFF8FF0
FDFF9FF8
FFFFFFF8
FFFFFFF8
FFFFFFF8
FF1FE3F8
FE1FC3F8
FE1FC3F8
FE1FC3F8
FE1FC3F8
FE1FC3F8
FE1FC3F8
FE1FC3F8
FE1FC3F8
FE1FC3F8
FE1FC3F8
FE1FC3F8
ENDCHAR
STARTCHAR uni1E42
ENCODING 7746
SWIDTH 940 0
DWIDTH 32 0
BBX 26 31 3 -6
BITMAP
FF803FC0
FF803FC0
FF807FC0
FFC07FC0
FFC07FC0
FFC0FFC0
FFE0FFC0
FFE0FFC0
FFE1FFC0
FFF1FFC0
FBF1FFC0
FBF3DFC0
FBFBDFC0
F9FBDFC0
F9FF9FC0
F9FF9FC0
F8FF9FC0
F8FF9FC0
F8FF1FC0
F8FF1FC0
F87F1FC0
F87E1FC0
F87E1FC0
F8001FC0
F8001FC0
00000000
001F0000
001F0000
001F0000
001F0000
001F0000
ENDCHAR
STARTCHAR uni1E43
ENCODING 7747
SWIDTH 1006 0
DWIDTH 34 0
BBX 29 24 3 -6
BITMAP
FE3E07E0
FEFF8FF0
FDFF9FF8
FFFFFFF8
FFFFFFF8
FFFFFFF8
FF1FE3F8
FE1FC3F8
FE1FC3F8
FE1FC3F8
FE1FC3F8
FE1FC3F8
FE1FC3F8
FE1FC3F8
FE1FC3F8
FE1FC3F8
FE1FC3F8
FE1FC3F8
00000000
000F8000
000F8000
000F8000
000F8000
000F8000
ENDCHAR
STARTCHAR uni1E44
ENCODING 7748
SWIDTH 783 0
DWIDTH 27 0
BBX 21 31 3 0
BITMAP
01F000
01F000
01F000
01F000
01F000
000000
FC00F8
FE00F8
FF00F8
FF00F8
FF80F8
FFC0F8
FFE0F8
FFE0F8
FFF0F8
FFF8F8
FFF8F8
FBFCF8
FBFEF8
F9FEF8
F8FFF8
F8FFF8
F87FF8
F83FF8
F83FF8
F81FF8
F80FF8
F807F8
F807F8
F803F8
F801F8
ENDCHAR
STARTCHAR uni1E45
ENCODING 7749
SWIDTH 693 0
DWIDTH 24 0
BBX 18 24 3 0
BITMAP
03E000
03E000
03E000
03E000
03E000
000000
FE3E00
FEFF80
FEFF80
FFFFC0
FFFFC0
FFFFC0
FF1FC0
FF1FC0
FE1FC0
FE1FC0
FE1FC0
FE1FC0
FE1FC0
FE1FC0
FE1FC0
FE1FC0
FE1FC0
FE1FC0
ENDCHAR
STARTCHAR uni1E46
ENCODING 7750
SWIDTH 783 0
DWIDTH 27 0
BBX 21 31 3 -6
BITMAP
FC00F8
FE00F8
FF00F8
FF00F8
FF80F8
FFC0F8
FFE0F8
FFE0F8
FFF0F8
FFF8F8
FFF8F8
FBFCF8
FBFEF8
F9FEF8
F8FFF8
F8FFF8
F87FF8
F83FF8
F83FF8
F81FF8
F80FF8
F807F8
F807F8
F803F8
F801F8
000000
007C00
007C00
007C00
007C00
007C00
ENDCHAR
STARTCHAR uni1E47
ENCODING 7751
SWIDTH 693 0
DWIDTH 24 0
BBX 18 24 3 -6
BITMAP
FE3E00
FEFF80
FEFF80
FFFFC0
FFFFC0
FFFFC0
FF1FC0
FF1FC0
FE1FC0
FE1FC0
FE1FC0
FE1FC0
FE1FC0
FE1FC0
FE1FC0
FE1FC0
FE1FC0
FE1FC0
000000
01F000
01F000
01F000
01F000
01F000
ENDCHAR
STARTCHAR uni1E48
ENCODING 7752
SWIDTH 783 0
DWIDTH 27 0
BBX 21 30 3 -5
BITMAP
FC00F8
FE00F8
FF00F8
FF00F8
FF80F8
FFC0F8
FFE0F8
FFE0F8
FFF0F8
FFF8F8
FFF8F8
FBFCF8
FBFEF8
F9FEF8
F8FFF8
F8FFF8
F87FF8
F83FF8
F83FF8
F81FF8
F80FF8
F807F8
F807F8
F803F8
F801F8
000000
03FF80
03FF80
03FF80
03FF80
ENDCHAR
STARTCHAR uni1E49
ENCODING 7753
SWIDTH 693 0
DWIDTH 24 0
BBX 18 23 3 -5
BITMAP
FE3E00
FEFF80
FEFF80
FFFFC0
FFFFC0
FFFFC0
FF1FC0
FF1FC0
FE1FC0
FE1FC0
FE1FC0
FE1FC0
FE1FC0
FE1FC0
FE1FC0
FE1FC0
FE1FC0
FE1FC0
000000
0FFE00
0FFE00
0FFE00
0FFE00
ENDCHAR
STARTCHAR uni1E4A
ENCODING 7754
SWIDTH 783 0
DWIDTH 27 0
BBX 21 31 3 -6
BITMAP
FC00F8
FE00F8
FF00F8
FF00F8
FF80F8
FFC0F8
FFE0F8
FFE0F8
FFF0F8
FFF8F8
FFF8F8
FBFCF8
FBFEF8
F9FEF8
F8FFF8
F8FFF8
F87FF8
F83FF8
F83FF8
F81FF8
F80FF8
F807F8
F807F8
F803F8
F801F8
000000
00FC00
00FC00
01FE00
03CF00
078780
ENDCHAR
STARTCHAR uni1E4B
ENCODING 7755
SWIDTH 693 0
DWIDTH 24 0
BBX 18 24 3 -6
BITMAP
FE3E00
FEFF80
FEFF80
FFFFC0
FFFFC0
FFFFC0
FF1FC0
FF1FC0
FE1FC0
FE1FC0
FE1FC0
FE1FC0
FE1FC0
FE1FC0
FE1FC0
FE1FC0
FE1FC0
FE1FC0
000000
03F000
03F000
07F800
0F3C00
1E1E00
ENDCHAR
STARTCHAR uni1E4C
ENCODING 7756
SWIDTH 855 0
DWIDTH 29 0
BBX 27 38 1 0
BITMAP
0003F000
0003C000
00078000
000F0000
001E0000
00000000
003C7000
007FF000
007FE000
00FFE000
00E3C000
00000000
00000000
007FC000
03FFF800
07FFFC00
0FFFFE00
1FE0FF00
3FC07F80
7F803FC0
7F001FC0
7F001FC0
FE000FE0
FE000FE0
FE000FE0
FE000FE0
FE000FE0
FE000FE0
FE000FE0
7F001FC0
7F001FC0
7F803FC0
3FC07F80
1FE0FF00
0FFFFE00
07FFFC00
03FFF800
007FC000
ENDCHAR
STARTCHAR uni1E4D
ENCODING 7757
SWIDTH 675 0
DWIDTH 23 0
BBX 20 31 1 0
BITMAP
003F00
003C00
007800
00F000
01E000
000000
03C700
07FF00
07FE00
0FFE00
0E3C00
000000
000000
03FC00
0FFF00
1FFF80
3FFFC0
7F9FE0
7F0FE0
FE07F0
FE07F0
FE07F0
FE07F0
FE07F0
FE07F0
7F0FE0
7F9FE0
3FFFC0
1FFF80
0FFF00
03FC00
ENDCHAR
STARTCHAR uni1E4E
ENCODING 7758
SWIDTH 855 0
DWIDTH 29 0
BBX 27 37 1 0
BITMAP
00F1E000
00F1E000
00F1E000
00F1E000
00000000
003C7000
007FF000
007FE000
00FFE000
00E3C000
00000000
00000000
007FC000
03FFF800
07FFFC00
0FFFFE00
1FE0FF00
3FC07F80
7F803FC0
7F001FC0
7F001FC0
FE000FE0
FE000FE0
FE000FE0
FE000FE0
FE000FE0
FE000FE0
FE000FE0
7F001FC0
7F001FC0
7F803FC0
3FC07F80
1FE0FF00
0FFFFE00
07FFFC00
03FFF800
007FC000
ENDCHAR
STARTCHAR uni1E4F
ENCODING 7759
SWIDTH 675 0
DWIDTH 23 0
BBX 20 30 1 0
BITMAP
078F00
078F00
078F00
078F00
000000
03C700
07FF00
07FE00
0FFE00
0E3C00
000000
000000
03FC00
0FFF00
1FFF80
3FFFC0
7F9FE0
7F0FE0
FE07F0
FE07F0
FE07F0
FE07F0
FE07F0
FE07F0
7F0FE0
7F9FE0
3FFFC0
1FFF80
0FFF00
03FC00
ENDCHAR
STARTCHAR uni1E50
ENCODING 7760
SWIDTH 855 0
DWIDTH 29 0
BBX 27 36 1 0
BITMAP
00FC0000
003C0000
001E0000
000F0000
00078000
00000000
00FFE000
00FFE000
00FFE000
00FFE000
00000000
007FC000
03FFF800
07FFFC00
0FFFFE00
1FE0FF00
3FC07F80
7F803FC0
7F001FC0
7F001FC0
FE000FE0
FE000FE0
FE000FE0
FE000FE0
FE000FE0
FE000FE0
FE000FE0
7F001FC0
7F001FC0
7F803FC0
3FC07F80
1FE0FF00
0FFFFE00
07FFFC00
03FFF800
007FC000
ENDCHAR
STARTCHAR uni1E51
ENCODING 7761
SWIDTH 675 0
DWIDTH 23 0
BBX 20 29 1 0
BITMAP
0FC000
03C000
01E000
00F000
007800
000000
07FF00
07FF00
07FF00
07FF00
000000
03FC00
0FFF00
1FFF80
3FFFC0
7F9FE0
7F0FE0
FE07F0
FE07F0
FE07F0
FE07F0
FE07F0
FE07F0
7F0FE0
7F9FE0
3FFFC0
1FFF80
0FFF00
03FC00
ENDCHAR
STARTCHAR uni1E52
ENCODING 7762
SWIDTH 855 0
DWIDTH 29 0
BBX 27 36 1 0
BITMAP
0007E000
00078000
000F0000
001E0000
003C0000
00000000
00FFE000
00FFE000
00FFE000
00FFE000
00000000
007FC000
03FFF800
07FFFC00
0FFFFE00
1FE0FF00
3FC07F80
7F803FC0
7F001FC0
7F001FC0
FE000FE0
FE000FE0
FE000FE0
FE000FE0
FE000FE0
FE000FE0
FE000FE0
7F001FC0
7F001FC0
7F803FC0
3FC07F80
1FE0FF00
0FFFFE00
07FFFC00
03FFF800
007FC000
ENDCHAR
STARTCHAR uni1E53
ENCODING 7763
SWIDTH 675 0
DWIDTH 23 0
BBX 20 29 1 0
BITMAP
003F00
003C00
007800
00F000
01E000
000000
07FF00
07FF00
07FF00
07FF00
000000
03FC00
0FFF00
1FFF80
3FFFC0
7F9FE0
7F0FE0
FE07F0
FE07F0
FE07F0
FE07F0
FE07F0
FE07F0
7F0FE0
7F9FE0
3FFFC0
1FFF80
0FFF00
03FC00
ENDCHAR
STARTCHAR uni1E54
ENCODING 7764
SWIDTH 657 0
DWIDTH 22 0
BBX 19 31 3 0
BITMAP
007E00
007800
00F000
01E000
03C000
000000
FFFE00
FFFF80
FFFFC0
FFFFE0
FE1FE0
FE0FE0
FE0FE0
FE0FE0
FE0FE0
FE1FE0
FE3FC0
FFFFC0
FFFF80
FFFF00
FFF800
FE0000
FE0000
FE0000
FE0000
FE0000
FE0000
FE0000
FE0000
FE0000
FE0000
ENDCHAR
STARTCHAR uni1E55
ENCODING 7765
SWIDTH 696 0
DWIDTH 24 0
BBX 20 31 3 -7
BITMAP
007E00
007800
00F000
01E000
03C000
000000
FE3F00
FE7F80
FEFFC0
FFFFE0
FFFFE0
FF0FF0
FE0FF0
FE07F0
FE07F0
FE07F0
FE07F0
FE07F0
FE0FF0
FF1FE0
FFFFE0
FFFFC0
FEFF80
FE3E00
FE0000
FE0000
FE0000
FE0000
FE0000
FE0000
FE0000
ENDCHAR
STARTCHAR uni1E56
ENCODING 7766
SWIDTH 657 0
DWIDTH 22 0
BBX 19 31 3 0
BITMAP
01F000
01F000
01F000
01F000
01F000
000000
FFFE00
FFFF80
FFFFC0
FFFFE0
FE1FE0
FE0FE0
FE0FE0
FE0FE0
FE0FE0
FE1FE0
FE3FC0
FFFFC0
FFFF80
FFFF00
FFF800
FE0000
FE0000
FE0000
FE0000
FE0000
FE0000
FE0000
FE0000
FE0000
FE0000
ENDCHAR
STARTCHAR uni1E57
ENCODING 7767
SWIDTH 696 0
DWIDTH 24 0
BBX 20 31 3 -7
BITMAP
01F000
01F000
01F000
01F000
01F000
000000
FE3F00
FE7F80
FEFFC0
FFFFE0
FFFFE0
FF0FF0
FE0FF0
FE07F0
FE07F0
FE07F0
FE07F0
FE07F0
FE0FF0
FF1FE0
FFFFE0
FFFFC0
FEFF80
FE3E00
FE0000
FE0000
FE0000
FE0000
FE0000
FE0000
FE0000
ENDCHAR
STARTCHAR uni1E58
ENCODING 7768
SWIDTH 734 0
DWIDTH 25 0
BBX 23 31 3 0
BITMAP
01F000
01F000
01F000
01F000
01F000
000000
FFFE00
FFFF80
FFFFC0
FFFFC0
FE1FE0
FE0FE0
FE0FE0
FE0FE0
FE0FE0
FE1FC0
FE3FC0
FFFF80
FFFF00
FFFE00
FFFF00
FE7F80
FE3F80
FE3FC0
FE1FC0
FE1FE0
FE0FF0
FE0FF0
FE07F8
FE07FC
FE03FE
ENDCHAR
STARTCHAR uni1E59
ENCODING 7769
SWIDTH 500 0
DWIDTH 17 0
BBX 14 24 3 0
BITMAP
0F80
0F80
0F80
0F80
0F80
0000
FE3C
FE7C
FEFC
FFFC
FFFC
FFFC
FF80
FF00
FE00
FE00
FE00
FE00
FE00
FE00
FE00
FE00
FE00
FE00
ENDCHAR
STARTCHAR uni1E5A
ENCODING 7770
SWIDTH 734 0
DWIDTH 25 0
BBX 23 31 3 -6
BITMAP
FFFE00
FFFF80
FFFFC0
FFFFC0
FE1FE0
FE0FE0
FE0FE0
FE0FE0
FE0FE0
FE1FC0
FE3FC0
FFFF80
FFFF00
FFFE00
FFFF00
FE7F80
FE3F80
FE3FC0
FE1FC0
FE1FE0
FE0FF0
FE0FF0
FE07F8
FE07FC
FE03FE
000000
00F800
00F800
00F800
00F800
00F800
ENDCHAR
STARTCHAR uni1E5B
ENCODING 7771
SWIDTH 500 0
DWIDTH 17 0
BBX 14 24 3 -6
BITMAP
FE3C
FE7C
FEFC
FFFC
FFFC
FFFC
FF80
FF00
FE00
FE00
FE00
FE00
FE00
FE00
FE00
FE00
FE00
FE00
0000
3E00
3E00
3E00
3E00
3E00
ENDCHAR
STARTCHAR uni1E5C
ENCODING 7772
SWIDTH 734 0
DWIDTH 25 0
BBX 23 36 3 -6
BITMAP
0FFE00
0FFE00
0FFE00
0FFE00
000000
FFFE00
FFFF80
FFFFC0
FFFFC0
FE1FE0
FE0FE0
FE0FE0
FE0FE0
FE0FE0
FE1FC0
FE3FC0
FFFF80
FFFF00
FFFE00
FFFF00
FE7F80
FE3F80
FE3FC0
FE1FC0
FE1FE0
FE0FF0
FE0FF0
FE07F8
FE07FC
FE03FE
000000
00F800
00F800
00F800
00F800
00F800
ENDCHAR
STARTCHAR uni1E5D
ENCODING 7773
SWIDTH 500 0
DWIDTH 17 0
BBX 14 29 3 -6
BITMAP
7FF0
7FF0
7FF0
7FF0
0000
FE3C
FE7C
FEFC
FFFC
FFFC
FFFC
FF80
FF00
FE00
FE00
FE00
FE00
FE00
FE00
FE00
FE00
FE00
FE00
0000
3E00
3E00
3E00
3E00
3E00
ENDCHAR
STARTCHAR uni1E5E
ENCODING 7774
SWIDTH 734 0
DWIDTH 25 0
BBX 23 30 3 -5
BITMAP
FFFE00
FFFF80
FFFFC0
FFFFC0
FE1FE0
FE0FE0
FE0FE0
FE0FE0
FE0FE0
FE1FC0
FE3FC0
FFFF80
FFFF00
FFFE00
FFFF00
FE7F80
FE3F80
FE3FC0
FE1FC0
FE1FE0
FE0FF0
FE0FF0
FE07F8
FE07FC
FE03FE
000000
07FF00
07FF00
07FF00
07FF00
ENDCHAR
STARTCHAR uni1E5F
ENCODING 7775
SWIDTH 500 0
DWIDTH 17 0
BBX 15 23 2 -5
BITMAP
7F1E
7F3E
7F7E
7FFE
7FFE
7FFE
7FC0
7F80
7F00
7F00
7F00
7F00
7F00
7F00
7F00
7F00
7F00
7F00
0000
FFE0
FFE0
FFE0
FFE0
ENDCHAR
STARTCHAR uni1E60
ENCODING 7776
SWIDTH 594 0
DWIDTH 20 0
BBX 18 31 1 0
BITMAP
03E000
03E000
03E000
03E000
03E000
000000
07FF00
1FFF00
3FFF00
7FFF00
FF0300
FE0000
FE0000
FF0000
FFC000
FFE000
7FF800
3FFC00
1FFF00
0FFF80
03FF80
00FFC0
007FC0
001FC0
001FC0
001FC0
C03F80
FFFF80
FFFF00
FFFE00
FFF000
ENDCHAR
STARTCHAR uni1E61
ENCODING 7777
SWIDTH 622 0
DWIDTH 21 0
BBX 17 24 2 0
BITMAP
07C000
07C000
07C000
07C000
07C000
000000
0FFC00
3FFE00
7FFE00
FFFE00
FE0200
FE0000
FF0000
7FE000
3FFC00
1FFF00
03FF80
007F80
003F80
C03F80
FFFF80
FFFF00
FFFE00
3FF000
ENDCHAR
STARTCHAR uni1E62
ENCODING 7778
SWIDTH 594 0
DWIDTH 20 0
BBX 18 31 1 -6
BITMAP
07FF00
1FFF00
3FFF00
7FFF00
FF0300
FE0000
FE0000
FF0000
FFC000
FFE000
7FF800
3FFC00
1FFF00
0FFF80
03FF80
00FFC0
007FC0
001FC0
001FC0
001FC0
C03F80
FFFF80
FFFF00
FFFE00
FFF000
000000
01F000
01F000
01F000
01F000
01F000
ENDCHAR
STARTCHAR uni1E63
ENCODING 7779
SWIDTH 622 0
DWIDTH 21 0
BBX 17 24 2 -6
BITMAP
0FFC00
3FFE00
7FFE00
FFFE00
FE0200
FE0000
FF0000
7FE000
3FFC00
1FFF00
03FF80
007F80
003F80
C03F80
FFFF80
FFFF00
FFFE00
3FF000
000000
03E000
03E000
03E000
03E000
03E000
ENDCHAR
STARTCHAR uni1E64
ENCODING 7780
SWIDTH 594 0
DWIDTH 20 0
BBX 18 37 1 0
BITMAP
01F000
01F000
01F000
01F000
01F000
000000
00FC00
00F000
01E000
03C000
078000
000000
07FF00
1FFF00
3FFF00
7FFF00
FF0300
FE0000
FE0000
FF0000
FFC000
FFE000
7FF800
3FFC00
1FFF00
0FFF80
03FF80
00FFC0
007FC0
001FC0
001FC0
001FC0
C03F80
FFFF80
FFFF00
FFFE00
FFF000
ENDCHAR
STARTCHAR uni1E65
ENCODING 7781
SWIDTH 622 0
DWIDTH 21 0
BBX 17 30 2 0
BITMAP
03E000
03E000
03E000
03E000
03E000
000000
00FC00
00F000
01E000
03C000
078000
000000
0FFC00
3FFE00
7FFE00
FFFE00
FE0200
FE0000
FF0000
7FE000
3FFC00
1FFF00
03FF80
007F80
003F80
C03F80
FFFF80
FFFF00
FFFE00
3FF000
ENDCHAR
STARTCHAR uni1E66
ENCODING 7782
SWIDTH 594 0
DWIDTH 20 0
BBX 18 38 1 0
BITMAP
01F000
01F000
01F000
01F000
01F000
000000
1E1E00
0F3C00
07F800
03F000
03F000
000000
000000
07FF00
1FFF00
3FFF00
7FFF00
FF0300
FE0000
FE0000
FF0000
FFC000
FFE000
7FF800
3FFC00
1FFF00
0FFF80
03FF80
00FFC0
007FC0
001FC0
001FC0
001FC0
C03F80
FFFF80
FFFF00
FFFE00
FFF000
ENDCHAR
STARTCHAR uni1E67
ENCODING 7783
SWIDTH 622 0
DWIDTH 21 0
BBX 17 31 2 0
BITMAP
03E000
03E000
03E000
03E000
03E000
000000
1E1E00
0F3C00
07F800
03F000
03F000
000000
000000
0FFC00
3FFE00
7FFE00
FFFE00
FE0200
FE0000
FF0000
7FE000
3FFC00
1FFF00
03FF80
007F80
003F80
C03F80
FFFF80
FFFF00
FFFE00
3FF000
ENDCHAR
STARTCHAR uni1E68
ENCODING 7784
SWIDTH 594 0
DWIDTH 20 0
BBX 18 37 1 -6
BITMAP
07C000
07C000
07C000
07C000
07C000
000000
07FF00
1FFF00
3FFF00
7FFF00
FF0300
FE0000
FE0000
FF0000
FFC000
FFE000
7FF800
3FFC00
1FFF00
0FFF80
03FF80
00FFC0
007FC0
001FC0
001FC0
001FC0
C03F80
FFFF80
FFFF00
FFFE00
FFF000
000000
01F000
01F000
01F000
01F000
01F000
ENDCHAR
STARTCHAR uni1E69
ENCODING 7785
SWIDTH 622 0
DWIDTH 21 0
BBX 17 30 2 -6
BITMAP
07C000
07C000
07C000
07C000
07C000
000000
0FFC00
3FFE00
7FFE00
FFFE00
FE0200
FE0000
FF0000
7FE000
3FFC00
1FFF00
03FF80
007F80
003F80
C03F80
FFFF80
FFFF00
FFFE00
3FF000
000000
03E000
03E000
03E000
03E000
03E000
ENDCHAR
STARTCHAR uni1E6A
ENCODING 7786
SWIDTH 735 0
DWIDTH 25 0
BBX 25 31 0 0
BITMAP
003E0000
003E0000
003E0000
003E0000
003E0000
00000000
FFFFFF80
FFFFFF80
FFFFFF80
FFFFFF80
007F0000
007F0000
007F0000
007F0000
007F0000
007F0000
007F0000
007F0000
007F0000
007F0000
007F0000
007F0000
007F0000
007F0000
007F0000
007F0000
007F0000
007F0000
007F0000
007F0000
007F0000
ENDCHAR
STARTCHAR uni1E6B
ENCODING 7787
SWIDTH 436 0
DWIDTH 15 0
BBX 13 29 1 0
BITMAP
0F80
0F80
0F80
0F80
0F80
0000
0380
3F80
3F80
3F80
3F80
FFF8
FFF8
FFF8
FFF8
3F80
3F80
3F80
3F80
3F80
3F80
3F80
3F80
3F80
3FC0
3FF8
1FF8
1FF8
07F8
ENDCHAR
STARTCHAR uni1E6C
ENCODING 7788
SWIDTH 735 0
DWIDTH 25 0
BBX 25 31 0 -6
BITMAP
FFFFFF80
FFFFFF80
FFFFFF80
FFFFFF80
007F0000
007F0000
007F0000
007F0000
007F0000
007F0000
007F0000
007F0000
007F0000
007F0000
007F0000
007F0000
007F0000
007F0000
007F0000
007F0000
007F0000
007F0000
007F0000
007F0000
007F0000
00000000
003E0000
003E0000
003E0000
003E0000
003E0000
ENDCHAR
STARTCHAR uni1E6D
ENCODING 7789
SWIDTH 436 0
DWIDTH 15 0
BBX 13 29 1 -6
BITMAP
0380
3F80
3F80
3F80
3F80
FFF8
FFF8
FFF8
FFF8
3F80
3F80
3F80
3F80
3F80
3F80
3F80
3F80
3F80
3FC0
3FF8
1FF8
1FF8
07F8
0000
07C0
07C0
07C0
07C0
07C0
ENDCHAR
STARTCHAR uni1E6E
ENCODING 7790
SWIDTH 735 0
DWIDTH 25 0
BBX 25 30 0 -5
BITMAP
FFFFFF80
FFFFFF80
FFFFFF80
FFFFFF80
007F0000
007F0000
007F0000
007F0000
007F0000
007F0000
007F0000
007F0000
007F0000
007F0000
007F0000
007F0000
007F0000
007F0000
007F0000
007F0000
007F0000
007F0000
007F0000
007F0000
007F0000
00000000
01FFC000
01FFC000
01FFC000
01FFC000
ENDCHAR
STARTCHAR uni1E6F
ENCODING 7791
SWIDTH 436 0
DWIDTH 15 0
BBX 13 28 1 -5
BITMAP
0380
3F80
3F80
3F80
3F80
FFF8
FFF8
FFF8
FFF8
3F80
3F80
3F80
3F80
3F80
3F80
3F80
3F80
3F80
3FC0
3FF8
1FF8
1FF8
07F8
0000
3FF8
3FF8
3FF8
3FF8
ENDCHAR
STARTCHAR uni1E70
ENCODING 7792
SWIDTH 735 0
DWIDTH 25 0
BBX 25 31 0 -6
BITMAP
FFFFFF80
FFFFFF80
FFFFFF80
FFFFFF80
007F0000
007F0000
007F0000
007F0000
007F0000
007F0000
007F0000
007F0000
007F0000
007F0000
007F0000
007F0000
007F0000
007F0000
007F0000
007F0000
007F0000
007F0000
007F0000
007F0000
007F0000
00000000
003F0000
003F0000
007F8000
00F3C000
01E1E000
ENDCHAR
STARTCHAR uni1E71
ENCODING 7793
SWIDTH 436 0
DWIDTH 15 0
BBX 13 29 1 -6
BITMAP
0380
3F80
3F80
3F80
3F80
FFF8
FFF8
FFF8
FFF8
3F80
3F80
3F80
3F80
3F80
3F80
3F80
3F80
3F80
3FC0
3FF8
1FF8
1FF8
07F8
0000
0FC0
0FC0
1FE0
3CF0
7878
ENDCHAR
STARTCHAR uni1E72
ENCODING 7794
SWIDTH 783 0
DWIDTH 27 0
BBX 21 30 3 -5
BITMAP
FE03F8
FE03F8
FE03F8
FE03F8
FE03F8
FE03F8
FE03F8
FE03F8
FE03F8
FE03F8
FE03F8
FE03F8
FE03F8
FE03F8
FE03F8
FE03F8
FE03F8
FE03F8
FE03F8
7F07F0
7F8FF0
3FFFE0
1FFFE0
0FFF80
01FE00
000000
078F00
078F00
078F00
078F00
ENDCHAR
STARTCHAR uni1E73
ENCODING 7795
SWIDTH 693 0
DWIDTH 24 0
BBX 18 23 3 -5
BITMAP
FE1FC0
FE1FC0
FE1FC0
FE1FC0
FE1FC0
FE1FC0
FE1FC0
FE1FC0
FE1FC0
FE1FC0
FE1FC0
FE3FC0
FE3FC0
FFFFC0
FFFFC0
7FDFC0
7FDFC0
1F1FC0
000000
0F1E00
0F1E00
0F1E00
0F1E00
ENDCHAR
STARTCHAR uni1E74
ENCODING 7796
SWIDTH 783 0
DWIDTH 27 0
BBX 21 31 3 -6
BITMAP
FE03F8
FE03F8
FE03F8
FE03F8
FE03F8
FE03F8
FE03F8
FE03F8
FE03F8
FE03F8
FE03F8
FE03F8
FE03F8
FE03F8
FE03F8
FE03F8
FE03F8
FE03F8
FE03F8
7F07F0
7F8FF0
3FFFE0
1FFFE0
0FFF80
01FE00
000000
03C700
07FF00
07FE00
0FFE00
0E3C00
ENDCHAR
STARTCHAR uni1E75
ENCODING 7797
SWIDTH 693 0
DWIDTH 24 0
BBX 18 24 3 -6
BITMAP
FE1FC0
FE1FC0
FE1FC0
FE1FC0
FE1FC0
FE1FC0
FE1FC0
FE1FC0
FE1FC0
FE1FC0
FE1FC0
FE3FC0
FE3FC0
FFFFC0
FFFFC0
7FDFC0
7FDFC0
1F1FC0
000000
078E00
0FFE00
0FFC00
1FFC00
1C7800
ENDCHAR
STARTCHAR uni1E76
ENCODING 7798
SWIDTH 783 0
DWIDTH 27 0
BBX 21 31 3 -6
BITMAP
FE03F8
FE03F8
FE03F8
FE03F8
FE03F8
FE03F8
FE03F8
FE03F8
FE03F8
FE03F8
FE03F8
FE03F8
FE03F8
FE03F8
FE03F8
FE03F8
FE03F8
FE03F8
FE03F8
7F07F0
7F8FF0
3FFFE0
1FFFE0
0FFF80
01FE00
000000
00FC00
00FC00
01FE00
03CF00
078780
ENDCHAR
STARTCHAR uni1E77
ENCODING 7799
SWIDTH 693 0
DWIDTH 24 0
BBX 18 24 3 -6
BITMAP
FE1FC0
FE1FC0
FE1FC0
FE1FC0
FE1FC0
FE1FC0
FE1FC0
FE1FC0
FE1FC0
FE1FC0
FE1FC0
FE3FC0
FE3FC0
FFFFC0
FFFFC0
7FDFC0
7FDFC0
1F1FC0
000000
03F000
03F000
07F800
0F3C00
1E1E00
ENDCHAR
STARTCHAR uni1E78
ENCODING 7800
SWIDTH 783 0
DWIDTH 27 0
BBX 21 37 3 0
BITMAP
001F80
001E00
003C00
007800
00F000
000000
01E380
03FF80
03FF00
07FF00
071E00
000000
FE03F8
FE03F8
FE03F8
FE03F8
FE03F8
FE03F8
FE03F8
FE03F8
FE03F8
FE03F8
FE03F8
FE03F8
FE03F8
FE03F8
FE03F8
FE03F8
FE03F8
FE03F8
FE03F8
7F07F0
7F8FF0
3FFFE0
1FFFE0
0FFF80
01FE00
ENDCHAR
STARTCHAR uni1E79
ENCODING 7801
SWIDTH 693 0
DWIDTH 24 0
BBX 18 30 3 0
BITMAP
007E00
007800
00F000
01E000
03C000
000000
078E00
0FFE00
0FFC00
1FFC00
1C7800
000000
FE1FC0
FE1FC0
FE1FC0
FE1FC0
FE1FC0
FE1FC0
FE1FC0
FE1FC0
FE1FC0
FE1FC0
FE1FC0
FE3FC0
FE3FC0
FFFFC0
FFFFC0
7FDFC0
7FDFC0
1F1FC0
ENDCHAR
STARTCHAR uni1E7A
ENCODING 7802
SWIDTH 783 0
DWIDTH 27 0
BBX 21 35 3 0
BITMAP
078F00
078F00
078F00
078F00
000000
07FF00
07FF00
07FF00
07FF00
000000
FE03F8
FE03F8
FE03F8
FE03F8
FE03F8
FE03F8
FE03F8
FE03F8
FE03F8
FE03F8
FE03F8
FE03F8
FE03F8
FE03F8
FE03F8
FE03F8
FE03F8
FE03F8
FE03F8
7F07F0
7F8FF0
3FFFE0
1FFFE0
0FFF80
01FE00
ENDCHAR
STARTCHAR uni1E7B
ENCODING 7803
SWIDTH 693 0
DWIDTH 24 0
BBX 18 28 3 0
BITMAP
0F1E00
0F1E00
0F1E00
0F1E00
000000
0FFE00
0FFE00
0FFE00
0FFE00
000000
FE1FC0
FE1FC0
FE1FC0
FE1FC0
FE1FC0
FE1FC0
FE1FC0
FE1FC0
FE1FC0
FE1FC0
FE1FC0
FE3FC0
FE3FC0
FFFFC0
FFFFC0
7FDFC0
7FDFC0
1F1FC0
ENDCHAR
STARTCHAR uni1E7C
ENCODING 7804
SWIDTH 735 0
DWIDTH 25 0
BBX 24 31 0 0
BITMAP
01E380
03FF80
03FF00
07FF00
071E00
000000
FE000F
FF001E
7F001E
7F003E
7F803C
3F803C
3F807C
3FC078
1FC078
1FE0F8
1FE0F0
0FE0F0
0FF1F0
07F1E0
07F1E0
07FBE0
03FBC0
03FBC0
03FFC0
01FF80
01FF80
01FF80
00FF00
00FF00
00FE00
ENDCHAR
STARTCHAR uni1E7D
ENCODING 7805
SWIDTH 663 0
DWIDTH 23 0
BBX 21 24 1 0
BITMAP
03C700
07FF00
07FE00
0FFE00
0E3C00
000000
FF00F8
FF00F0
7F00F0
7F81F0
3F81E0
3FC3E0
3FC3C0
1FC3C0
1FE7C0
0FE780
0FF780
0FFF00
07FF00
07FF00
03FE00
03FE00
01FC00
01FC00
ENDCHAR
STARTCHAR uni1E7E
ENCODING 7806
SWIDTH 735 0
DWIDTH 25 0
BBX 24 31 0 -6
BITMAP
FE000F
FF001E
7F001E
7F003E
7F803C
3F803C
3F807C
3FC078
1FC078
1FE0F8
1FE0F0
0FE0F0
0FF1F0
07F1E0
07F1E0
07FBE0
03FBC0
03FBC0
03FFC0
01FF80
01FF80
01FF80
00FF00
00FF00
00FE00
000000
007C00
007C00
007C00
007C00
007C00
ENDCHAR
STARTCHAR uni1E7F
ENCODING 7807
SWIDTH 663 0
DWIDTH 23 0
BBX 21 24 1 -6
BITMAP
FF00F8
FF00F0
7F00F0
7F81F0
3F81E0
3FC3E0
3FC3C0
1FC3C0
1FE7C0
0FE780
0FF780
0FFF00
07FF00
07FF00
03FE00
03FE00
01FC00
01FC00
000000
00F800
00F800
00F800
00F800
00F800
ENDCHAR
STARTCHAR Wgrave
ENCODING 7808
SWIDTH 940 0
DWIDTH 32 0
BBX 31 31 1 0
BITMAP
007E0000
001E0000
000F0000
00078000
0003C000
00000000
FE03E01E
FE07F01E
FE07F03C
FF07F03C
7F07F03C
7F07F03C
7F0FF878
7F0FF878
7F8FF878
3F8FF878
3F9FF8F0
3F9EFCF0
3FDEFCF0
1FDEFCF0
1FDEFDE0
1FFCFFE0
1FFC7FE0
0FFC7FE0
0FFC7FE0
0FF87FC0
0FF83FC0
07F83FC0
07F83FC0
07F83F80
07F03F80
ENDCHAR
STARTCHAR wgrave
ENCODING 7809
SWIDTH 885 0
DWIDTH 30 0
BBX 28 24 1 0
BITMAP
00FC0000
003C0000
001E0000
000F0000
00078000
00000000
FC0FC0F0
FC1FC1F0
FE1FC1E0
7E1FC1E0
7E1FE1E0
7E3FE3C0
7F3FE3C0
3F3FE3C0
3F7FF7C0
3F79F780
3FF9F780
1FF9FF80
1FF1FF00
1FF0FF00
1FF0FF00
0FF0FF00
0FE0FE00
0FE07E00
ENDCHAR
STARTCHAR Wacute
ENCODING 7810
SWIDTH 940 0
DWIDTH 32 0
BBX 31 31 1 0
BITMAP
0003F000
0003C000
00078000
000F0000
001E0000
00000000
FE03E01E
FE07F01E
FE07F03C
FF07F03C
7F07F03C
7F07F03C
7F0FF878
7F0FF878
7F8FF878
3F8FF878
3F9FF8F0
3F9EFCF0
3FDEFCF0
1FDEFCF0
1FDEFDE0
1FFCFFE0
1FFC7FE0
0FFC7FE0
0FFC7FE0
0FF87FC0
0FF83FC0
07F83FC0
07F83FC0
07F83F80
07F03F80
ENDCHAR
STARTCHAR wacute
ENCODING 7811
SWIDTH 885 0
DWIDTH 30 0
BBX 28 24 1 0
BITMAP
0007E000
00078000
000F0000
001E0000
003C0000
00000000
FC0FC0F0
FC1FC1F0
FE1FC1E0
7E1FC1E0
7E1FE1E0
7E3FE3C0
7F3FE3C0
3F3FE3C0
3F7FF7C0
3F79F780
3FF9F780
1FF9FF80
1FF1FF00
1FF0FF00
1FF0FF00
0FF0FF00
0FE0FE00
0FE07E00
ENDCHAR
STARTCHAR Wdieresis
ENCODING 7812
SWIDTH 940 0
DWIDTH 32 0
BBX 31 30 1 0
BITMAP
0078F000
0078F000
0078F000
0078F000
00000000
FE03E01E
FE07F01E
FE07F03C
FF07F03C
7F07F03C
7F07F03C
7F0FF878
7F0FF878
7F8FF878
3F8FF878
3F9FF8F0
3F9EFCF0
3FDEFCF0
1FDEFCF0
1FDEFDE0
1FFCFFE0
1FFC7FE0
0FFC7FE0
0FFC7FE0
0FF87FC0
0FF83FC0
07F83FC0
07F83FC0
07F83F80
07F03F80
ENDCHAR
STARTCHAR wdieresis
ENCODING 7813
SWIDTH 885 0
DWIDTH 30 0
BBX 28 23 1 0
BITMAP
00F1E000
00F1E000
00F1E000
00F1E000
00000000
FC0FC0F0
FC1FC1F0
FE1FC1E0
7E1FC1E0
7E1FE1E0
7E3FE3C0
7F3FE3C0
3F3FE3C0
3F7FF7C0
3F79F780
3FF9F780
1FF9FF80
1FF1FF00
1FF0FF00
1FF0FF00
0FF0FF00
0FE0FE00
0FE07E00
ENDCHAR
STARTCHAR uni1E86
ENCODING 7814
SWIDTH 940 0
DWIDTH 32 0
BBX 31 31 1 0
BITMAP
000F8000
000F8000
000F8000
000F8000
000F8000
00000000
FE03E01E
FE07F01E
FE07F03C
FF07F03C
7F07F03C
7F07F03C
7F0FF878
7F0FF878
7F8FF878
3F8FF878
3F9FF8F0
3F9EFCF0
3FDEFCF0
1FDEFCF0
1FDEFDE0
1FFCFFE0
1FFC7FE0
0FFC7FE0
0FFC7FE0
0FF87FC0
0FF83FC0
07F83FC0
07F83FC0
07F83F80
07F03F80
ENDCHAR
STARTCHAR uni1E87
ENCODING 7815
SWIDTH 885 0
DWIDTH 30 0
BBX 28 24 1 0
BITMAP
001F0000
001F0000
001F0000
001F0000
001F0000
00000000
FC0FC0F0
FC1FC1F0
FE1FC1E0
7E1FC1E0
7E1FE1E0
7E3FE3C0
7F3FE3C0
3F3FE3C0
3F7FF7C0
3F79F780
3FF9F780
1FF9FF80
1FF1FF00
1FF0FF00
1FF0FF00
0FF0FF00
0FE0FE00
0FE07E00
ENDCHAR
STARTCHAR uni1E88
ENCODING 7816
SWIDTH 940 0
DWIDTH 32 0
BBX 31 31 1 -6
BITMAP
FE03E01E
FE07F01E
FE07F03C
FF07F03C
7F07F03C
7F07F03C
7F0FF878
7F0FF878
7F8FF878
3F8FF878
3F9FF8F0
3F9EFCF0
3FDEFCF0
1FDEFCF0
1FDEFDE0
1FFCFFE0
1FFC7FE0
0FFC7FE0
0FFC7FE0
0FF87FC0
0FF83FC0
07F83FC0
07F83FC0
07F83F80
07F03F80
00000000
0007C000
0007C000
0007C000
0007C000
0007C000
ENDCHAR
STARTCHAR uni1E89
ENCODING 7817
SWIDTH 885 0
DWIDTH 30 0
BBX 28 24 1 -6
BITMAP
FC0FC0F0
FC1FC1F0
FE1FC1E0
7E1FC1E0
7E1FE1E0
7E3FE3C0
7F3FE3C0
3F3FE3C0
3F7FF7C0
3F79F780
3FF9F780
1FF9FF80
1FF1FF00
1FF0FF00
1FF0FF00
0FF0FF00
0FE0FE00
0FE07E00
00000000
001F0000
001F0000
001F0000
001F0000
001F0000
ENDCHAR
STARTCHAR uni1E8A
ENCODING 7818
SWIDTH 699 0
DWIDTH 24 0
BBX 22 31 1 0
BITMAP
00F800
00F800
00F800
00F800
00F800
000000
FF00FC
7F80F8
7F81F0
3FC1E0
1FE3E0
1FE7C0
0FF780
0FFF80
07FF00
07FF00
03FE00
01FE00
01FE00
01FF00
01FF00
03FF80
07FF80
07FFC0
0F9FE0
0F1FE0
1F0FF0
3E0FF0
3C07F8
7C07F8
F803FC
ENDCHAR
STARTCHAR uni1E8B
ENCODING 7819
SWIDTH 568 0
DWIDTH 19 0
BBX 18 24 1 0
BITMAP
03E000
03E000
03E000
03E000
03E000
000000
FF07C0
7F0F80
3F9F00
3F9E00
1FFE00
0FFC00
0FFC00
07F800
07F800
03F800
07FC00
0FFC00
0FFE00
1FFE00
3E7F00
3C3F80
7C3F80
F81FC0
ENDCHAR
STARTCHAR uni1E8C
ENCODING 7820
SWIDTH 699 0
DWIDTH 24 0
BBX 22 30 1 0
BITMAP
078F00
078F00
078F00
078F00
000000
FF00FC
7F80F8
7F81F0
3FC1E0
1FE3E0
1FE7C0
0FF780
0FFF80
07FF00
07FF00
03FE00
01FE00
01FE00
01FF00
01FF00
03FF80
07FF80
07FFC0
0F9FE0
0F1FE0
1F0FF0
3E0FF0
3C07F8
7C07F8
F803FC
ENDCHAR
STARTCHAR uni1E8D
ENCODING 7821
SWIDTH 568 0
DWIDTH 19 0
BBX 18 23 1 0
BITMAP
1E3C00
1E3C00
1E3C00
1E3C00
000000
FF07C0
7F0F80
3F9F00
3F9E00
1FFE00
0FFC00
0FFC00
07F800
07F800
03F800
07FC00
0FFC00
0FFE00
1FFE00
3E7F00
3C3F80
7C3F80
F81FC0
ENDCHAR
STARTCHAR uni1E8E
ENCODING 7822
SWIDTH 738 0
DWIDTH 25 0
BBX 23 31 1 0
BITMAP
00F800
00F800
00F800
00F800
00F800
000000
FF003E
FF003C
7F807C
3FC0F8
3FC0F0
1FE1F0
1FE1E0
0FF3E0
0FF7C0
07FFC0
07FF80
03FF80
03FF00
01FE00
00FE00
00FE00
00FE00
00FE00
00FE00
00FE00
00FE00
00FE00
00FE00
00FE00
00FE00
ENDCHAR
STARTCHAR uni1E8F
ENCODING 7823
SWIDTH 645 0
DWIDTH 22 0
BBX 21 31 1 -7
BITMAP
01F000
01F000
01F000
01F000
01F000
000000
FF00F8
FF00F0
7F01F0
7F81E0
3F83E0
3F83C0
3FC7C0
1FC780
1FEF80
0FEF00
0FFF00
0FFE00
07FE00
07FC00
07FC00
03F800
03F800
01F800
01F000
03F000
03E000
07E000
0FC000
1FC000
3F8000
ENDCHAR
STARTCHAR uni1E90
ENCODING 7824
SWIDTH 675 0
DWIDTH 23 0
BBX 19 31 2 0
BITMAP
00FC00
00FC00
01FE00
03CF00
078780
000000
7FFFE0
7FFFE0
7FFFE0
7FFFE0
001FE0
003FC0
007FC0
007F80
00FF00
01FF00
01FE00
03FC00
07FC00
07F800
0FF000
1FF000
1FE000
3FC000
7FC000
7F8000
FF0000
FFFFE0
FFFFE0
FFFFE0
FFFFE0
ENDCHAR
STARTCHAR uni1E91
ENCODING 7825
SWIDTH 608 0
DWIDTH 21 0
BBX 17 24 2 0
BITMAP
03F000
03F000
07F800
0F3C00
1E1E00
000000
FFFF80
FFFF80
FFFF80
FFFF80
00FF80
01FF00
03FE00
07FC00
0FFC00
1FF800
3FF000
7FE000
FFC000
FF8000
FFFF80
FFFF80
FFFF80
FFFF80
ENDCHAR
STARTCHAR uni1E92
ENCODING 7826
SWIDTH 675 0
DWIDTH 23 0
BBX 19 31 2 -6
BITMAP
7FFFE0
7FFFE0
7FFFE0
7FFFE0
001FE0
003FC0
007FC0
007F80
00FF00
01FF00
01FE00
03FC00
07FC00
07F800
0FF000
1FF000
1FE000
3FC000
7FC000
7F8000
FF0000
FFFFE0
FFFFE0
FFFFE0
FFFFE0
000000
03E000
03E000
03E000
03E000
03E000
ENDCHAR
STARTCHAR uni1E93
ENCODING 7827
SWIDTH 608 0
DWIDTH 21 0
BBX 17 24 2 -6
BITMAP
FFFF80
FFFF80
FFFF80
FFFF80
00FF80
01FF00
03FE00
07FC00
0FFC00
1FF800
3FF000
7FE000
FFC000
FF8000
FFFF80
FFFF80
FFFF80
FFFF80
000000
03E000
03E000
03E000
03E000
03E000
ENDCHAR
STARTCHAR uni1E94
ENCODING 7828
SWIDTH 675 0
DWIDTH 23 0
BBX 19 30 2 -5
BITMAP
7FFFE0
7FFFE0
7FFFE0
7FFFE0
001FE0
003FC0
007FC0
007F80
00FF00
01FF00
01FE00
03FC00
07FC00
07F800
0FF000
1FF000
1FE000
3FC000
7FC000
7F8000
FF0000
FFFFE0
FFFFE0
FFFFE0
FFFFE0
000000
1FFC00
1FFC00
1FFC00
1FFC00
ENDCHAR
STARTCHAR uni1E95
ENCODING 7829
SWIDTH 608 0
DWIDTH 21 0
BBX 17 23 2 -5
BITMAP
FFFF80
FFFF80
FFFF80
FFFF80
00FF80
01FF00
03FE00
07FC00
0FFC00
1FF800
3FF000
7FE000
FFC000
FF8000
FFFF80
FFFF80
FFFF80
FFFF80
000000
1FFC00
1FFC00
1FFC00
1FFC00
ENDCHAR
STARTCHAR uni1E96
ENCODING 7830
SWIDTH 693 0
DWIDTH 24 0
BBX 18 31 3 -5
BITMAP
FE0000
FE0000
FE0000
FE0000
FE0000
FE0000
FE0000
FE0000
FE3E00
FE7F80
FEFF80
FFFFC0
FFFFC0
FFFFC0
FF1FC0
FF1FC0
FE1FC0
FE1FC0
FE1FC0
FE1FC0
FE1FC0
FE1FC0
FE1FC0
FE1FC0
FE1FC0
FE1FC0
000000
0FFE00
0FFE00
0FFE00
0FFE00
ENDCHAR
STARTCHAR uni1E97
ENCODING 7831
SWIDTH 436 0
DWIDTH 15 0
BBX 13 28 1 0
BITMAP
78F0
78F0
78F0
78F0
0000
0380
3F80
3F80
3F80
3F80
FFF8
FFF8
FFF8
FFF8
3F80
3F80
3F80
3F80
3F80
3F80
3F80
3F80
3F80
3FC0
3FF8
1FF8
1FF8
07F8
ENDCHAR
STARTCHAR uni1E98
ENCODING 7832
SWIDTH 885 0
DWIDTH 30 0
BBX 28 25 1 0
BITMAP
000E0000
001F0000
001B0000
001B0000
001F0000
000E0000
00000000
FC0FC0F0
FC1FC1F0
FE1FC1E0
7E1FC1E0
7E1FE1E0
7E3FE3C0
7F3FE3C0
3F3FE3C0
3F7FF7C0
3F79F780
3FF9F780
1FF9FF80
1FF1FF00
1FF0FF00
1FF0FF00
0FF0FF00
0FE0FE00
0FE07E00
ENDCHAR
STARTCHAR uni1E99
ENCODING 7833
SWIDTH 645 0
DWIDTH 22 0
BBX 21 32 1 -7
BITMAP
00E000
01F000
01B000
01B000
01F000
00E000
000000
FF00F8
FF00F0
7F01F0
7F81E0
3F83E0
3F83C0
3FC7C0
1FC780
1FEF80
0FEF00
0FFF00
0FFE00
07FE00
07FC00
07FC00
03F800
03F800
01F800
01F000
03F000
03E000
07E000
0FC000
1FC000
3F8000
ENDCHAR
STARTCHAR uni1EA0
ENCODING 7840
SWIDTH 773 0
DWIDTH 26 0
BBX 25 31 1 -6
BITMAP
007F0000
007F8000
00FF8000
00FF8000
00FFC000
01FFC000
01FFE000
01EFE000
03CFE000
03CFF000
07C7F000
0787F000
0787F800
0F83F800
0F03FC00
0FFFFC00
1FFFFC00
1FFFFE00
1FFFFE00
3C00FE00
3C007F00
7C007F00
78003F80
78003F80
F0003F80
00000000
001F0000
001F0000
001F0000
001F0000
001F0000
ENDCHAR
STARTCHAR uni1EA1
ENCODING 7841
SWIDTH 623 0
DWIDTH 21 0
BBX 19 24 1 -6
BITMAP
0FF800
3FFE00
3FFF00
3FFF80
307F80
203F80
003F80
0FFF80
3FFF80
7FFF80
FFFF80
FF3F80
FE3F80
FE7F80
FFFFE0
7FFFE0
3FDFE0
1F8FE0
000000
01F000
01F000
01F000
01F000
01F000
ENDCHAR
STARTCHAR uni1EA4
ENCODING 7844
SWIDTH 773 0
DWIDTH 26 0
BBX 25 38 1 0
BITMAP
0007E000
00078000
000F0000
001E0000
003C0000
00000000
003F0000
003F0000
007F8000
00F3C000
01E1E000
00000000
00000000
007F0000
007F8000
00FF8000
00FF8000
00FFC000
01FFC000
01FFE000
01EFE000
03CFE000
03CFF000
07C7F000
0787F000
0787F800
0F83F800
0F03FC00
0FFFFC00
1FFFFC00
1FFFFE00
1FFFFE00
3C00FE00
3C007F00
7C007F00
78003F80
78003F80
F0003F80
ENDCHAR
STARTCHAR uni1EA5
ENCODING 7845
SWIDTH 623 0
DWIDTH 21 0
BBX 19 31 1 0
BITMAP
003F00
003C00
007800
00F000
01E000
000000
01F800
01F800
03FC00
079E00
0F0F00
000000
000000
0FF800
3FFE00
3FFF00
3FFF80
307F80
203F80
003F80
0FFF80
3FFF80
7FFF80
FFFF80
FF3F80
FE3F80
FE7F80
FFFFE0
7FFFE0
3FDFE0
1F8FE0
ENDCHAR
STARTCHAR uni1EA6
ENCODING 7846
SWIDTH 773 0
DWIDTH 26 0
BBX 25 38 1 0
BITMAP
01F80000
00780000
003C0000
001E0000
000F0000
00000000
003F0000
003F0000
007F8000
00F3C000
01E1E000
00000000
00000000
007F0000
007F8000
00FF8000
00FF8000
00FFC000
01FFC000
01FFE000
01EFE000
03CFE000
03CFF000
07C7F000
0787F000
0787F800
0F83F800
0F03FC00
0FFFFC00
1FFFFC00
1FFFFE00
1FFFFE00
3C00FE00
3C007F00
7C007F00
78003F80
78003F80
F0003F80
ENDCHAR
STARTCHAR uni1EA7
ENCODING 7847
SWIDTH 623 0
DWIDTH 21 0
BBX 19 31 1 0
BITMAP
0FC000
03C000
01E000
00F000
007800
000000
01F800
01F800
03FC00
079E00
0F0F00
000000
000000
0FF800
3FFE00
3FFF00
3FFF80
307F80
203F80
003F80
0FFF80
3FFF80
7FFF80
FFFF80
FF3F80
FE3F80
FE7F80
FFFFE0
7FFFE0
3FDFE0
1F8FE0
ENDCHAR
STARTCHAR uni1EAA
ENCODING 7850
SWIDTH 773 0
DWIDTH 26 0
BBX 25 38 1 0
BITMAP
0078E000
00FFE000
00FFC000
01FFC000
01C78000
00000000
003F0000
003F0000
007F8000
00F3C000
01E1E000
00000000
00000000
007F0000
007F8000
00FF8000
00FF8000
00FFC000
01FFC000
01FFE000
01EFE000
03CFE000
03CFF000
07C7F000
0787F000
0787F800
0F83F800
0F03FC00
0FFFFC00
1FFFFC00
1FFFFE00
1FFFFE00
3C00FE00
3C007F00
7C007F00
78003F80
78003F80
F0003F80
ENDCHAR
STARTCHAR uni1EAB
ENCODING 7851
SWIDTH 623 0
DWIDTH 21 0
BBX 19 31 1 0
BITMAP
03C700
07FF00
07FE00
0FFE00
0E3C00
000000
01F800
01F800
03FC00
079E00
0F0F00
000000
000000
0FF800
3FFE00
3FFF00
3FFF80
307F80
203F80
003F80
0FFF80
3FFF80
7FFF80
FFFF80
FF3F80
FE3F80
FE7F80
FFFFE0
7FFFE0
3FDFE0
1F8FE0
ENDCHAR
STARTCHAR uni1EAC
ENCODING 7852
SWIDTH 773 0
DWIDTH 26 0
BBX 25 37 1 -6
BITMAP
003F0000
003F0000
007F8000
00F3C000
01E1E000
00000000
007F0000
007F8000
00FF8000
00FF8000
00FFC000
01FFC000
01FFE000
01EFE000
03CFE000
03CFF000
07C7F000
0787F000
0787F800
0F83F800
0F03FC00
0FFFFC00
1FFFFC00
1FFFFE00
1FFFFE00
3C00FE00
3C007F00
7C007F00
78003F80
78003F80
F0003F80
00000000
001F0000
001F0000
001F0000
001F0000
001F0000
ENDCHAR
STARTCHAR uni1EAD
ENCODING 7853
SWIDTH 623 0
DWIDTH 21 0
BBX 19 30 1 -6
BITMAP
01F800
01F800
03FC00
079E00
0F0F00
000000
0FF800
3FFE00
3FFF00
3FFF80
307F80
203F80
003F80
0FFF80
3FFF80
7FFF80
FFFF80
FF3F80
FE3F80
FE7F80
FFFFE0
7FFFE0
3FDFE0
1F8FE0
000000
01F000
01F000
01F000
01F000
01F000
ENDCHAR
STARTCHAR uni1EAE
ENCODING 7854
SWIDTH 773 0
DWIDTH 26 0
BBX 25 37 1 0
BITMAP
0007E000
00078000
000F0000
001E0000
003C0000
00000000
01E1E000
01FFC000
00FFC000
007F8000
003E0000
00000000
007F0000
007F8000
00FF8000
00FF8000
00FFC000
01FFC000
01FFE000
01EFE000
03CFE000
03CFF000
07C7F000
0787F000
0787F800
0F83F800
0F03FC00
0FFFFC00
1FFFFC00
1FFFFE00
1FFFFE00
3C00FE00
3C007F00
7C007F00
78003F80
78003F80
F0003F80
ENDCHAR
STARTCHAR uni1EAF
ENCODING 7855
SWIDTH 623 0
DWIDTH 21 0
BBX 19 30 1 0
BITMAP
007E00
007800
00F000
01E000
03C000
000000
1E1E00
1FFC00
0FFC00
07F800
03E000
000000
0FF800
3FFE00
3FFF00
3FFF80
307F80
203F80
003F80
0FFF80
3FFF80
7FFF80
FFFF80
FF3F80
FE3F80
FE7F80
FFFFE0
7FFFE0
3FDFE0
1F8FE0
ENDCHAR
STARTCHAR uni1EB0
ENCODING 7856
SWIDTH 773 0
DWIDTH 26 0
BBX 25 37 1 0
BITMAP
01F80000
00780000
003C0000
001E0000
000F0000
00000000
01E1E000
01FFC000
00FFC000
007F8000
003E0000
00000000
007F0000
007F8000
00FF8000
00FF8000
00FFC000
01FFC000
01FFE000
01EFE000
03CFE000
03CFF000
07C7F000
0787F000
0787F800
0F83F800
0F03FC00
0FFFFC00
1FFFFC00
1FFFFE00
1FFFFE00
3C00FE00
3C007F00
7C007F00
78003F80
78003F80
F0003F80
ENDCHAR
STARTCHAR uni1EB1
ENCODING 7857
SWIDTH 623 0
DWIDTH 21 0
BBX 19 30 1 0
BITMAP
1F8000
078000
03C000
01E000
00F000
000000
1E1E00
1FFC00
0FFC00
07F800
03E000
000000
0FF800
3FFE00
3FFF00
3FFF80
307F80
203F80
003F80
0FFF80
3FFF80
7FFF80
FFFF80
FF3F80
FE3F80
FE7F80
FFFFE0
7FFFE0
3FDFE0
1F8FE0
ENDCHAR
STARTCHAR uni1EB4
ENCODING 7860
SWIDTH 773 0
DWIDTH 26 0
BBX 25 37 1 0
BITMAP
0078E000
00FFE000
00FFC000
01FFC000
01C78000
00000000
01E1E000
01FFC000
00FFC000
007F8000
003E0000
00000000
007F0000
007F8000
00FF8000
00FF8000
00FFC000
01FFC000
01FFE000
01EFE000
03CFE000
03CFF000
07C7F000
0787F000
0787F800
0F83F800
0F03FC00
0FFFFC00
1FFFFC00
1FFFFE00
1FFFFE00
3C00FE00
3C007F00
7C007F00
78003F80
78003F80
F0003F80
ENDCHAR
STARTCHAR uni1EB5
ENCODING 7861
SWIDTH 623 0
DWIDTH 21 0
BBX 19 30 1 0
BITMAP
078E00
0FFE00
0FFC00
1FFC00
1C7800
000000
1E1E00
1FFC00
0FFC00
07F800
03E000
000000
0FF800
3FFE00
3FFF00
3FFF80
307F80
203F80
003F80
0FFF80
3FFF80
7FFF80
FFFF80
FF3F80
FE3F80
FE7F80
FFFFE0
7FFFE0
3FDFE0
1F8FE0
ENDCHAR
STARTCHAR uni1EB6
ENCODING 7862
SWIDTH 773 0
DWIDTH 26 0
BBX 25 37 1 -6
BITMAP
01E1E000
01FFC000
00FFC000
007F8000
003E0000
00000000
007F0000
007F8000
00FF8000
00FF8000
00FFC000
01FFC000
01FFE000
01EFE000
03CFE000
03CFF000
07C7F000
0787F000
0787F800
0F83F800
0F03FC00
0FFFFC00
1FFFFC00
1FFFFE00
1FFFFE00
3C00FE00
3C007F00
7C007F00
78003F80
78003F80
F0003F80
00000000
001F0000
001F0000
001F0000
001F0000
001F0000
ENDCHAR
STARTCHAR uni1EB7
ENCODING 7863
SWIDTH 623 0
DWIDTH 21 0
BBX 19 30 1 -6
BITMAP
0F0F00
0FFE00
07FE00
03FC00
01F000
000000
0FF800
3FFE00
3FFF00
3FFF80
307F80
203F80
003F80
0FFF80
3FFF80
7FFF80
FFFF80
FF3F80
FE3F80
FE7F80
FFFFE0
7FFFE0
3FDFE0
1F8FE0
000000
01F000
01F000
01F000
01F000
01F000
ENDCHAR
STARTCHAR uni1EB8
ENCODING 7864
SWIDTH 645 0
DWIDTH 22 0
BBX 18 31 3 -6
BITMAP
FFFF80
FFFF80
FFFF80
FFFF80
FE0000
FE0000
FE0000
FE0000
FE0000
FE0000
FFFE00
FFFE00
FFFE00
FFFE00
FE0000
FE0000
FE0000
FE0000
FE0000
FE0000
FE0000
FFFFC0
FFFFC0
FFFFC0
FFFFC0
000000
03E000
03E000
03E000
03E000
03E000
ENDCHAR
STARTCHAR uni1EB9
ENCODING 7865
SWIDTH 614 0
DWIDTH 21 0
BBX 18 24 1 -6
BITMAP
03F800
0FFE00
3FFF00
3FFF80
7E3F80
7E1FC0
FFFFC0
FFFFC0
FFFFC0
FFFFC0
FE0000
FE0000
7F80C0
7FFFC0
3FFFC0
1FFFC0
0FFFC0
01FE00
000000
01F000
01F000
01F000
01F000
01F000
ENDCHAR
STARTCHAR uni1EBC
ENCODING 7868
SWIDTH 645 0
DWIDTH 22 0
BBX 18 31 3 0
BITMAP
0F1C00
1FFC00
1FF800
3FF800
38F000
000000
FFFF80
FFFF80
FFFF80
FFFF80
FE0000
FE0000
FE0000
FE0000
FE0000
FE0000
FFFE00
FFFE00
FFFE00
FFFE00
FE0000
FE0000
FE0000
FE0000
FE0000
FE0000
FE0000
FFFFC0
FFFFC0
FFFFC0
FFFFC0
ENDCHAR
STARTCHAR uni1EBD
ENCODING 7869
SWIDTH 614 0
DWIDTH 21 0
BBX 18 24 1 0
BITMAP
03C700
07FF00
07FE00
0FFE00
0E3C00
000000
03F800
0FFE00
3FFF00
3FFF80
7E3F80
7E1FC0
FFFFC0
FFFFC0
FFFFC0
FFFFC0
FE0000
FE0000
7F80C0
7FFFC0
3FFFC0
1FFFC0
0FFFC0
01FE00
ENDCHAR
STARTCHAR uni1EBE
ENCODING 7870
SWIDTH 645 0
DWIDTH 22 0
BBX 18 38 3 0
BITMAP
007E00
007800
00F000
01E000
03C000
000000
03F000
03F000
07F800
0F3C00
1E1E00
000000
000000
FFFF80
FFFF80
FFFF80
FFFF80
FE0000
FE0000
FE0000
FE0000
FE0000
FE0000
FFFE00
FFFE00
FFFE00
FFFE00
FE0000
FE0000
FE0000
FE0000
FE0000
FE0000
FE0000
FFFFC0
FFFFC0
FFFFC0
FFFFC0
ENDCHAR
STARTCHAR uni1EBF
ENCODING 7871
SWIDTH 614 0
DWIDTH 21 0
BBX 18 31 1 0
BITMAP
003F00
003C00
007800
00F000
01E000
000000
01F800
01F800
03FC00
079E00
0F0F00
000000
000000
03F800
0FFE00
3FFF00
3FFF80
7E3F80
7E1FC0
FFFFC0
FFFFC0
FFFFC0
FFFFC0
FE0000
FE0000
7F80C0
7FFFC0
3FFFC0
1FFFC0
0FFFC0
01FE00
ENDCHAR
STARTCHAR uni1EC0
ENCODING 7872
SWIDTH 645 0
DWIDTH 22 0
BBX 18 38 3 0
BITMAP
1F8000
078000
03C000
01E000
00F000
000000
03F000
03F000
07F800
0F3C00
1E1E00
000000
000000
FFFF80
FFFF80
FFFF80
FFFF80
FE0000
FE0000
FE0000
FE0000
FE0000
FE0000
FFFE00
FFFE00
FFFE00
FFFE00
FE0000
FE0000
FE0000
FE0000
FE0000
FE0000
FE0000
FFFFC0
FFFFC0
FFFFC0
FFFFC0
ENDCHAR
STARTCHAR uni1EC1
ENCODING 7873
SWIDTH 614 0
DWIDTH 21 0
BBX 18 31 1 0
BITMAP
0FC000
03C000
01E000
00F000
007800
000000
01F800
01F800
03FC00
079E00
0F0F00
000000
000000
03F800
0FFE00
3FFF00
3FFF80
7E3F80
7E1FC0
FFFFC0
FFFFC0
FFFFC0
FFFFC0
FE0000
FE0000
7F80C0
7FFFC0
3FFFC0
1FFFC0
0FFFC0
01FE00
ENDCHAR
STARTCHAR uni1EC4
ENCODING 7876
SWIDTH 645 0
DWIDTH 22 0
BBX 18 38 3 0
BITMAP
078E00
0FFE00
0FFC00
1FFC00
1C7800
000000
03F000
03F000
07F800
0F3C00
1E1E00
000000
000000
FFFF80
FFFF80
FFFF80
FFFF80
FE0000
FE0000
FE0000
FE0000
FE0000
FE0000
FFFE00
FFFE00
FFFE00
FFFE00
FE0000
FE0000
FE0000
FE0000
FE0000
FE0000
FE0000
FFFFC0
FFFFC0
FFFFC0
FFFFC0
ENDCHAR
STARTCHAR uni1EC5
ENCODING 7877
SWIDTH 614 0
DWIDTH 21 0
BBX 18 31 1 0
BITMAP
03C700
07FF00
07FE00
0FFE00
0E3C00
000000
01F800
01F800
03FC00
079E00
0F0F00
000000
000000
03F800
0FFE00
3FFF00
3FFF80
7E3F80
7E1FC0
FFFFC0
FFFFC0
FFFFC0
FFFFC0
FE0000
FE0000
7F80C0
7FFFC0
3FFFC0
1FFFC0
0FFFC0
01FE00
ENDCHAR
STARTCHAR uni1EC6
ENCODING 7878
SWIDTH 645 0
DWIDTH 22 0
BBX 18 37 3 -6
BITMAP
07E000
07E000
0FF000
1E7800
3C3C00
000000
FFFF80
FFFF80
FFFF80
FFFF80
FE0000
FE0000
FE0000
FE0000
FE0000
FE0000
FFFE00
FFFE00
FFFE00
FFFE00
FE0000
FE0000
FE0000
FE0000
FE0000
FE0000
FE0000
FFFFC0
FFFFC0
FFFFC0
FFFFC0
000000
03E000
03E000
03E000
03E000
03E000
ENDCHAR
STARTCHAR uni1EC7
ENCODING 7879
SWIDTH 614 0
DWIDTH 21 0
BBX 18 30 1 -6
BITMAP
03F000
03F000
07F800
0F3C00
1E1E00
000000
03F800
0FFE00
3FFF00
3FFF80
7E3F80
7E1FC0
FFFFC0
FFFFC0
FFFFC0
FFFFC0
FE0000
FE0000
7F80C0
7FFFC0
3FFFC0
1FFFC0
0FFFC0
01FE00
000000
01F000
01F000
01F000
01F000
01F000
ENDCHAR
STARTCHAR uni1ECA
ENCODING 7882
SWIDTH 361 0
DWIDTH 12 0
BBX 7 31 3 -6
BITMAP
FE
FE
FE
FE
FE
FE
FE
FE
FE
FE
FE
FE
FE
FE
FE
FE
FE
FE
FE
FE
FE
FE
FE
FE
FE
00
7C
7C
7C
7C
7C
ENDCHAR
STARTCHAR uni1ECB
ENCODING 7883
SWIDTH 361 0
DWIDTH 12 0
BBX 7 32 3 -6
BITMAP
FE
FE
FE
FE
FE
00
00
00
FE
FE
FE
FE
FE
FE
FE
FE
FE
FE
FE
FE
FE
FE
FE
FE
FE
FE
00
7C
7C
7C
7C
7C
ENDCHAR
STARTCHAR uni1ECC
ENCODING 7884
SWIDTH 855 0
DWIDTH 29 0
BBX 27 31 1 -6
BITMAP
007FC000
03FFF800
07FFFC00
0FFFFE00
1FE0FF00
3FC07F80
7F803FC0
7F001FC0
7F001FC0
FE000FE0
FE000FE0
FE000FE0
FE000FE0
FE000FE0
FE000FE0
FE000FE0
7F001FC0
7F001FC0
7F803FC0
3FC07F80
1FE0FF00
0FFFFE00
07FFFC00
03FFF800
007FC000
00000000
001F0000
001F0000
001F0000
001F0000
001F0000
ENDCHAR
STARTCHAR uni1ECD
ENCODING 7885
SWIDTH 675 0
DWIDTH 23 0
BBX 20 24 1 -6
BITMAP
03FC00
0FFF00
1FFF80
3FFFC0
7F9FE0
7F0FE0
FE07F0
FE07F0
FE07F0
FE07F0
FE07F0
FE07F0
7F0FE0
7F9FE0
3FFFC0
1FFF80
0FFF00
03FC00
000000
00F800
00F800
00F800
00F800
00F800
ENDCHAR
STARTCHAR uni1ED0
ENCODING 7888
SWIDTH 855 0
DWIDTH 29 0
BBX 27 38 1 0
BITMAP
0003F000
0003C000
00078000
000F0000
001E0000
00000000
001F8000
001F8000
003FC000
0079E000
00F0F000
00000000
00000000
007FC000
03FFF800
07FFFC00
0FFFFE00
1FE0FF00
3FC07F80
7F803FC0
7F001FC0
7F001FC0
FE000FE0
FE000FE0
FE000FE0
FE000FE0
FE000FE0
FE000FE0
FE000FE0
7F001FC0
7F001FC0
7F803FC0
3FC07F80
1FE0FF00
0FFFFE00
07FFFC00
03FFF800
007FC000
ENDCHAR
STARTCHAR uni1ED1
ENCODING 7889
SWIDTH 675 0
DWIDTH 23 0
BBX 20 31 1 0
BITMAP
003F00
003C00
007800
00F000
01E000
000000
01F800
01F800
03FC00
079E00
0F0F00
000000
000000
03FC00
0FFF00
1FFF80
3FFFC0
7F9FE0
7F0FE0
FE07F0
FE07F0
FE07F0
FE07F0
FE07F0
FE07F0
7F0FE0
7F9FE0
3FFFC0
1FFF80
0FFF00
03FC00
ENDCHAR
STARTCHAR uni1ED2
ENCODING 7890
SWIDTH 855 0
DWIDTH 29 0
BBX 27 38 1 0
BITMAP
00FC0000
003C0000
001E0000
000F0000
00078000
00000000
001F8000
001F8000
003FC000
0079E000
00F0F000
00000000
00000000
007FC000
03FFF800
07FFFC00
0FFFFE00
1FE0FF00
3FC07F80
7F803FC0
7F001FC0
7F001FC0
FE000FE0
FE000FE0
FE000FE0
FE000FE0
FE000FE0
FE000FE0
FE000FE0
7F001FC0
7F001FC0
7F803FC0
3FC07F80
1FE0FF00
0FFFFE00
07FFFC00
03FFF800
007FC000
ENDCHAR
STARTCHAR uni1ED3
ENCODING 7891
SWIDTH 675 0
DWIDTH 23 0
BBX 20 31 1 0
BITMAP
0FC000
03C000
01E000
00F000
007800
000000
01F800
01F800
03FC00
079E00
0F0F00
000000
000000
03FC00
0FFF00
1FFF80
3FFFC0
7F9FE0
7F0FE0
FE07F0
FE07F0
FE07F0
FE07F0
FE07F0
FE07F0
7F0FE0
7F9FE0
3FFFC0
1FFF80
0FFF00
03FC00
ENDCHAR
STARTCHAR uni1ED6
ENCODING 7894
SWIDTH 855 0
DWIDTH 29 0
BBX 27 38 1 0
BITMAP
003C7000
007FF000
007FE000
00FFE000
00E3C000
00000000
001F8000
001F8000
003FC000
0079E000
00F0F000
00000000
00000000
007FC000
03FFF800
07FFFC00
0FFFFE00
1FE0FF00
3FC07F80
7F803FC0
7F001FC0
7F001FC0
FE000FE0
FE000FE0
FE000FE0
FE000FE0
FE000FE0
FE000FE0
FE000FE0
7F001FC0
7F001FC0
7F803FC0
3FC07F80
1FE0FF00
0FFFFE00
07FFFC00
03FFF800
007FC000
ENDCHAR
STARTCHAR uni1ED7
ENCODING 7895
SWIDTH 675 0
DWIDTH 23 0
BBX 20 31 1 0
BITMAP
03C700
07FF00
07FE00
0FFE00
0E3C00
000000
01F800
01F800
03FC00
079E00
0F0F00
000000
000000
03FC00
0FFF00
1FFF80
3FFFC0
7F9FE0
7F0FE0
FE07F0
FE07F0
FE07F0
FE07F0
FE07F0
FE07F0
7F0FE0
7F9FE0
3FFFC0
1FFF80
0FFF00
03FC00
ENDCHAR
STARTCHAR uni1ED8
ENCODING 7896
SWIDTH 855 0
DWIDTH 29 0
BBX 27 37 1 -6
BITMAP
001F8000
001F8000
003FC000
0079E000
00F0F000
00000000
007FC000
03FFF800
07FFFC00
0FFFFE00
1FE0FF00
3FC07F80
7F803FC0
7F001FC0
7F001FC0
FE000FE0
FE000FE0
FE000FE0
FE000FE0
FE000FE0
FE000FE0
FE000FE0
7F001FC0
7F001FC0
7F803FC0
3FC07F80
1FE0FF00
0FFFFE00
07FFFC00
03FFF800
007FC000
00000000
001F0000
001F0000
001F0000
001F0000
001F0000
ENDCHAR
STARTCHAR uni1ED9
ENCODING 7897
SWIDTH 675 0
DWIDTH 23 0
BBX 20 30 1 -6
BITMAP
01F800
01F800
03FC00
079E00
0F0F00
000000
03FC00
0FFF00
1FFF80
3FFFC0
7F9FE0
7F0FE0
FE07F0
FE07F0
FE07F0
FE07F0
FE07F0
FE07F0
7F0FE0
7F9FE0
3FFFC0
1FFF80
0FFF00
03FC00
000000
00F800
00F800
00F800
00F800
00F800
ENDCHAR
STARTCHAR uni1EDA
ENCODING 7898
SWIDTH 855 0
DWIDTH 29 0
BBX 31 31 1 0
BITMAP
00007E00
00007800
0000F000
0001E000
0003C000
00000000
007FC0FE
03FFF8FE
07FFFCFE
0FFFFEFE
1FE0FFFE
3FC07FFE
7F803FFE
7F001FDE
7F001FFC
FE000FFC
FE000FF8
FE000FE0
FE000FE0
FE000FE0
FE000FE0
FE000FE0
7F001FC0
7F001FC0
7F803FC0
3FC07F80
1FE0FF00
0FFFFE00
07FFFC00
03FFF800
007FC000
ENDCHAR
STARTCHAR uni1EDB
ENCODING 7899
SWIDTH 675 0
DWIDTH 23 0
BBX 25 24 1 0
BITMAP
0007E000
00078000
000F0000
001E0000
003C0000
00000000
03FC3F80
0FFF3F80
1FFFBF80
3FFFFF80
7F9FFF80
7F0FFF80
FE07FF80
FE07F780
FE07FF00
FE07FF00
FE07FE00
FE07F800
7F0FE000
7F9FE000
3FFFC000
1FFF8000
0FFF0000
03FC0000
ENDCHAR
STARTCHAR uni1EDC
ENCODING 7900
SWIDTH 855 0
DWIDTH 29 0
BBX 31 31 1 0
BITMAP
001F8000
00078000
0003C000
0001E000
0000F000
00000000
007FC0FE
03FFF8FE
07FFFCFE
0FFFFEFE
1FE0FFFE
3FC07FFE
7F803FFE
7F001FDE
7F001FFC
FE000FFC
FE000FF8
FE000FE0
FE000FE0
FE000FE0
FE000FE0
FE000FE0
7F001FC0
7F001FC0
7F803FC0
3FC07F80
1FE0FF00
0FFFFE00
07FFFC00
03FFF800
007FC000
ENDCHAR
STARTCHAR uni1EDD
ENCODING 7901
SWIDTH 675 0
DWIDTH 23 0
BBX 25 24 1 0
BITMAP
00FC0000
003C0000
001E0000
000F0000
00078000
00000000
03FC3F80
0FFF3F80
1FFFBF80
3FFFFF80
7F9FFF80
7F0FFF80
FE07FF80
FE07F780
FE07FF00
FE07FF00
FE07FE00
FE07F800
7F0FE000
7F9FE000
3FFFC000
1FFF8000
0FFF0000
03FC0000
ENDCHAR
STARTCHAR uni1EE0
ENCODING 7904
SWIDTH 855 0
DWIDTH 29 0
BBX 31 31 1 0
BITMAP
00078E00
000FFE00
000FFC00
001FFC00
001C7800
00000000
007FC0FE
03FFF8FE
07FFFCFE
0FFFFEFE
1FE0FFFE
3FC07FFE
7F803FFE
7F001FDE
7F001FFC
FE000FFC
FE000FF8
FE000FE0
FE000FE0
FE000FE0
FE000FE0
FE000FE0
7F001FC0
7F001FC0
7F803FC0
3FC07F80
1FE0FF00
0FFFFE00
07FFFC00
03FFF800
007FC000
ENDCHAR
STARTCHAR uni1EE1
ENCODING 7905
SWIDTH 675 0
DWIDTH 23 0
BBX 25 24 1 0
BITMAP
003C7000
007FF000
007FE000
00FFE000
00E3C000
00000000
03FC3F80
0FFF3F80
1FFFBF80
3FFFFF80
7F9FFF80
7F0FFF80
FE07FF80
FE07F780
FE07FF00
FE07FF00
FE07FE00
FE07F800
7F0FE000
7F9FE000
3FFFC000
1FFF8000
0FFF0000
03FC0000
ENDCHAR
STARTCHAR uni1EE2
ENCODING 7906
SWIDTH 855 0
DWIDTH 29 0
BBX 31 31 1 -6
BITMAP
007FC0FE
03FFF8FE
07FFFCFE
0FFFFEFE
1FE0FFFE
3FC07FFE
7F803FFE
7F001FDE
7F001FFC
FE000FFC
FE000FF8
FE000FE0
FE000FE0
FE000FE0
FE000FE0
FE000FE0
7F001FC0
7F001FC0
7F803FC0
3FC07F80
1FE0FF00
0FFFFE00
07FFFC00
03FFF800
007FC000
00000000
000F8000
000F8000
000F8000
000F8000
000F8000
ENDCHAR
STARTCHAR uni1EE3
ENCODING 7907
SWIDTH 675 0
DWIDTH 23 0
BBX 25 24 1 -6
BITMAP
03FC3F80
0FFF3F80
1FFFBF80
3FFFFF80
7F9FFF80
7F0FFF80
FE07FF80
FE07F780
FE07FF00
FE07FF00
FE07FE00
FE07F800
7F0FE000
7F9FE000
3FFFC000
1FFF8000
0FFF0000
03FC0000
00000000
00F80000
00F80000
00F80000
00F80000
00F80000
ENDCHAR
STARTCHAR uni1EE4
ENCODING 7908
SWIDTH 783 0
DWIDTH 27 0
BBX 21 31 3 -6
BITMAP
FE03F8
FE03F8
FE03F8
FE03F8
FE03F8
FE03F8
FE03F8
FE03F8
FE03F8
FE03F8
FE03F8
FE03F8
FE03F8
FE03F8
FE03F8
FE03F8
FE03F8
FE03F8
FE03F8
7F07F0
7F8FF0
3FFFE0
1FFFE0
0FFF80
01FE00
000000
00F800
00F800
00F800
00F800
00F800
ENDCHAR
STARTCHAR uni1EE5
ENCODING 7909
SWIDTH 693 0
DWIDTH 24 0
BBX 18 24 3 -6
BITMAP
FE1FC0
FE1FC0
FE1FC0
FE1FC0
FE1FC0
FE1FC0
FE1FC0
FE1FC0
FE1FC0
FE1FC0
FE1FC0
FE3FC0
FE3FC0
FFFFC0
FFFFC0
7FDFC0
7FDFC0
1F1FC0
000000
01F000
01F000
01F000
01F000
01F000
ENDCHAR
STARTCHAR uni1EE8
ENCODING 7912
SWIDTH 783 0
DWIDTH 27 0
BBX 26 31 3 0
BITMAP
0007E000
00078000
000F0000
001E0000
003C0000
00000000
FE03FFC0
FE03FFC0
FE03FFC0
FE03FFC0
FE03FFC0
FE03FFC0
FE03FFC0
FE03FBC0
FE03FF80
FE03FF80
FE03FF00
FE03FC00
FE03F800
FE03F800
FE03F800
FE03F800
FE03F800
FE03F800
FE03F800
7F07F000
7F8FF000
3FFFE000
1FFFE000
0FFF8000
01FE0000
ENDCHAR
STARTCHAR uni1EE9
ENCODING 7913
SWIDTH 693 0
DWIDTH 24 0
BBX 23 24 3 0
BITMAP
000FC0
000F00
001E00
003C00
007800
000000
FE1FFE
FE1FFE
FE1FFE
FE1FFE
FE1FFE
FE1FFE
FE1FFE
FE1FDE
FE1FFC
FE1FFC
FE1FF8
FE3FE0
FE3FC0
FFFFC0
FFFFC0
7FDFC0
7FDFC0
1F1FC0
ENDCHAR
STARTCHAR uni1EEA
ENCODING 7914
SWIDTH 783 0
DWIDTH 27 0
BBX 26 31 3 0
BITMAP
00FC0000
003C0000
001E0000
000F0000
00078000
00000000
FE03FFC0
FE03FFC0
FE03FFC0
FE03FFC0
FE03FFC0
FE03FFC0
FE03FFC0
FE03FBC0
FE03FF80
FE03FF80
FE03FF00
FE03FC00
FE03F800
FE03F800
FE03F800
FE03F800
FE03F800
FE03F800
FE03F800
7F07F000
7F8FF000
3FFFE000
1FFFE000
0FFF8000
01FE0000
ENDCHAR
STARTCHAR uni1EEB
ENCODING 7915
SWIDTH 693 0
DWIDTH 24 0
BBX 23 24 3 0
BITMAP
03F000
00F000
007800
003C00
001E00
000000
FE1FFE
FE1FFE
FE1FFE
FE1FFE
FE1FFE
FE1FFE
FE1FFE
FE1FDE
FE1FFC
FE1FFC
FE1FF8
FE3FE0
FE3FC0
FFFFC0
FFFFC0
7FDFC0
7FDFC0
1F1FC0
ENDCHAR
STARTCHAR uni1EEE
ENCODING 7918
SWIDTH 783 0
DWIDTH 27 0
BBX 26 31 3 0
BITMAP
003C7000
007FF000
007FE000
00FFE000
00E3C000
00000000
FE03FFC0
FE03FFC0
FE03FFC0
FE03FFC0
FE03FFC0
FE03FFC0
FE03FFC0
FE03FBC0
FE03FF80
FE03FF80
FE03FF00
FE03FC00
FE03F800
FE03F800
FE03F800
FE03F800
FE03F800
FE03F800
FE03F800
7F07F000
7F8FF000
3FFFE000
1FFFE000
0FFF8000
01FE0000
ENDCHAR
STARTCHAR uni1EEF
ENCODING 7919
SWIDTH 693 0
DWIDTH 24 0
BBX 23 24 3 0
BITMAP
00F1C0
01FFC0
01FF80
03FF80
038F00
000000
FE1FFE
FE1FFE
FE1FFE
FE1FFE
FE1FFE
FE1FFE
FE1FFE
FE1FDE
FE1FFC
FE1FFC
FE1FF8
FE3FE0
FE3FC0
FFFFC0
FFFFC0
7FDFC0
7FDFC0
1F1FC0
ENDCHAR
STARTCHAR uni1EF0
ENCODING 7920
SWIDTH 783 0
DWIDTH 27 0
BBX 26 31 3 -6
BITMAP
FE03FFC0
FE03FFC0
FE03FFC0
FE03FFC0
FE03FFC0
FE03FFC0
FE03FFC0
FE03FBC0
FE03FF80
FE03FF80
FE03FF00
FE03FC00
FE03F800
FE03F800
FE03F800
FE03F800
FE03F800
FE03F800
FE03F800
7F07F000
7F8FF000
3FFFE000
1FFFE000
0FFF8000
01FE0000
00000000
007C0000
007C0000
007C0000
007C0000
007C0000
ENDCHAR
STARTCHAR uni1EF1
ENCODING 7921
SWIDTH 693 0
DWIDTH 24 0
BBX 23 24 3 -6
BITMAP
FE1FFE
FE1FFE
FE1FFE
FE1FFE
FE1FFE
FE1FFE
FE1FFE
FE1FDE
FE1FFC
FE1FFC
FE1FF8
FE3FE0
FE3FC0
FFFFC0
FFFFC0
7FDFC0
7FDFC0
1F1FC0
000000
00F800
00F800
00F800
00F800
00F800
ENDCHAR
STARTCHAR Ygrave
ENCODING 7922
SWIDTH 738 0
DWIDTH 25 0
BBX 23 31 1 0
BITMAP
07E000
01E000
00F000
007800
003C00
000000
FF003E
FF003C
7F807C
3FC0F8
3FC0F0
1FE1F0
1FE1E0
0FF3E0
0FF7C0
07FFC0
07FF80
03FF80
03FF00
01FE00
00FE00
00FE00
00FE00
00FE00
00FE00
00FE00
00FE00
00FE00
00FE00
00FE00
00FE00
ENDCHAR
STARTCHAR ygrave
ENCODING 7923
SWIDTH 645 0
DWIDTH 22 0
BBX 21 31 1 -7
BITMAP
0FC000
03C000
01E000
00F000
007800
000000
FF00F8
FF00F0
7F01F0
7F81E0
3F83E0
3F83C0
3FC7C0
1FC780
1FEF80
0FEF00
0FFF00
0FFE00
07FE00
07FC00
07FC00
03F800
03F800
01F800
01F000
03F000
03E000
07E000
0FC000
1FC000
3F8000
ENDCHAR
STARTCHAR uni1EF4
ENCODING 7924
SWIDTH 738 0
DWIDTH 25 0
BBX 23 31 1 -6
BITMAP
FF003E
FF003C
7F807C
3FC0F8
3FC0F0
1FE1F0
1FE1E0
0FF3E0
0FF7C0
07FFC0
07FF80
03FF80
03FF00
01FE00
00FE00
00FE00
00FE00
00FE00
00FE00
00FE00
00FE00
00FE00
00FE00
00FE00
00FE00
000000
007C00
007C00
007C00
007C00
007C00
ENDCHAR
STARTCHAR uni1EF5
ENCODING 7925
SWIDTH 645 0
DWIDTH 22 0
BBX 21 31 1 -13
BITMAP
FF00F8
FF00F0
7F01F0
7F81E0
3F83E0
3F83C0
3FC7C0
1FC780
1FEF80
0FEF00
0FFF00
0FFE00
07FE00
07FC00
07FC00
03F800
03F800
01F800
01F000
03F000
03E000
07E000
0FC000
1FC000
3F8000
000000
03E000
03E000
03E000
03E000
03E000
ENDCHAR
STARTCHAR uni1EF8
ENCODING 7928
SWIDTH 738 0
DWIDTH 25 0
BBX 23 31 1 0
BITMAP
01E380
03FF80
03FF00
07FF00
071E00
000000
FF003E
FF003C
7F807C
3FC0F8
3FC0F0
1FE1F0
1FE1E0
0FF3E0
0FF7C0
07FFC0
07FF80
03FF80
03FF00
01FE00
00FE00
00FE00
00FE00
00FE00
00FE00
00FE00
00FE00
00FE00
00FE00
00FE00
00FE00
ENDCHAR
STARTCHAR uni1EF9
ENCODING 7929
SWIDTH 645 0
DWIDTH 22 0
BBX 21 31 1 -7
BITMAP
03C700
07FF00
07FE00
0FFE00
0E3C00
000000
FF00F8
FF00F0
7F01F0
7F81E0
3F83E0
3F83C0
3FC7C0
1FC780
1FEF80
0FEF00
0FFF00
0FFE00
07FE00
07FC00
07FC00
03F800
03F800
01F800
01F000
03F000
03E000
07E000
0FC000
1FC000
3F8000
ENDCHAR
STARTCHAR uni2000
ENCODING 8192
SWIDTH 500 0
DWIDTH 17 0
BBX 1 1 0 0
BITMAP
00
ENDCHAR
STARTCHAR uni2001
ENCODING 8193
SWIDTH 1000 0
DWIDTH 33 0
BBX 1 1 0 0
BITMAP
00
ENDCHAR
STARTCHAR uni2002
ENCODING 8194
SWIDTH 500 0
DWIDTH 17 0
BBX 1 1 0 0
BITMAP
00
ENDCHAR
STARTCHAR uni2003
ENCODING 8195
SWIDTH 1000 0
DWIDTH 33 0
BBX 1 1 0 0
BITMAP
00
ENDCHAR
STARTCHAR uni2004
ENCODING 8196
SWIDTH 333 0
DWIDTH 11 0
BBX 1 1 0 0
BITMAP
00
ENDCHAR
STARTCHAR uni2005
ENCODING 8197
SWIDTH 250 0
DWIDTH 8 0
BBX 1 1 0 0
BITMAP
00
ENDCHAR
STARTCHAR uni2006
ENCODING 8198
SWIDTH 167 0
DWIDTH 6 0
BBX 1 1 0 0
BITMAP
00
ENDCHAR
STARTCHAR uni2007
ENCODING 8199
SWIDTH 687 0
DWIDTH 23 0
BBX 1 1 0 0
BITMAP
00
ENDCHAR
STARTCHAR uni2008
ENCODING 8200
SWIDTH 343 0
DWIDTH 12 0
BBX 1 1 0 0
BITMAP
00
ENDCHAR
STARTCHAR uni2009
ENCODING 8201
SWIDTH 200 0
DWIDTH 7 0
BBX 1 1 0 0
BITMAP
00
ENDCHAR
STARTCHAR uni200A
ENCODING 8202
SWIDTH 100 0
DWIDTH 3 0
BBX 1 1 0 0
BITMAP
00
ENDCHAR
STARTCHAR uni200B
ENCODING 8203
SWIDTH 0 0
DWIDTH 0 0
BBX 1 1 0 0
BITMAP
00
ENDCHAR
STARTCHAR uni2010
ENCODING 8208
SWIDTH 289 0
DWIDTH 10 0
BBX 7 4 1 9
BITMAP
FE
FE
FE
FE
ENDCHAR
STARTCHAR uni2011
ENCODING 8209
SWIDTH 289 0
DWIDTH 10 0
BBX 7 4 1 9
BITMAP
FE
FE
FE
FE
ENDCHAR
STARTCHAR figuredash
ENCODING 8210
SWIDTH 500 0
DWIDTH 17 0
BBX 15 4 1 8
BITMAP
FFFE
FFFE
FFFE
FFFE
ENDCHAR
STARTCHAR endash
ENCODING 8211
SWIDTH 500 0
DWIDTH 17 0
BBX 15 4 1 8
BITMAP
FFFE
FFFE
FFFE
FFFE
ENDCHAR
STARTCHAR emdash
ENCODING 8212
SWIDTH 1000 0
DWIDTH 34 0
BBX 32 3 1 8
BITMAP
FFFFFFFF
FFFFFFFF
FFFFFFFF
ENDCHAR
STARTCHAR afii00208
ENCODING 8213
SWIDTH 1000 0
DWIDTH 34 0
BBX 32 3 1 8
BITMAP
FFFFFFFF
FFFFFFFF
FFFFFFFF
ENDCHAR
STARTCHAR quoteleft
ENCODING 8216
SWIDTH 265 0
DWIDTH 9 0
BBX 7 12 1 14
BITMAP
0E
3E
78
78
F0
FE
FE
FE
FE
FE
FE
FE
ENDCHAR
STARTCHAR quoteright
ENCODING 8217
SWIDTH 265 0
DWIDTH 9 0
BBX 7 12 1 14
BITMAP
FE
FE
FE
FE
FE
FE
FE
1E
3C
3C
F8
E0
ENDCHAR
STARTCHAR quotesinglbase
ENCODING 8218
SWIDTH 265 0
DWIDTH 9 0
BBX 7 13 1 -6
BITMAP
FE
FE
FE
FE
FE
FE
FE
1E
1E
3C
3C
F8
E0
ENDCHAR
STARTCHAR quotereversed
ENCODING 8219
SWIDTH 265 0
DWIDTH 9 0
BBX 7 12 1 14
BITMAP
FE
FE
FE
FE
FE
FE
FE
F0
78
78
3E
0E
ENDCHAR
STARTCHAR quotedblleft
ENCODING 8220
SWIDTH 530 0
DWIDTH 18 0
BBX 16 12 1 14
BITMAP
0E07
3E1F
783C
703C
F07C
FE7F
FE7F
FE7F
FE7F
FE7F
FE7F
FE7F
ENDCHAR
STARTCHAR quotedblright
ENCODING 8221
SWIDTH 530 0
DWIDTH 18 0
BBX 16 12 1 14
BITMAP
FE7F
FE7F
FE7F
FE7F
FE7F
FE7F
FE7F
3E0F
3C0E
3C1E
F87C
E070
ENDCHAR
STARTCHAR quotedblbase
ENCODING 8222
SWIDTH 530 0
DWIDTH 18 0
BBX 16 13 1 -6
BITMAP
FE7F
FE7F
FE7F
FE7F
FE7F
FE7F
FE7F
3E0F
3E0F
3C1E
3C1E
F87C
E070
ENDCHAR
STARTCHAR uni201F
ENCODING 8223
SWIDTH 530 0
DWIDTH 18 0
BBX 16 12 1 14
BITMAP
FE7F
FE7F
FE7F
FE7F
FE7F
FE7F
FE7F
F07C
703C
783C
3E1F
0E07
ENDCHAR
STARTCHAR dagger
ENCODING 8224
SWIDTH 693 0
DWIDTH 23 0
BBX 18 31 3 -6
BITMAP
03F000
03F000
03F000
03F000
03F000
03F000
03F000
03F000
FFFFC0
FFFFC0
FFFFC0
FFFFC0
03F000
03F000
03F000
03F000
03F000
03F000
03F000
03F000
03F000
03F000
03F000
03F000
03F000
03F000
03F000
03F000
03F000
03F000
03F000
ENDCHAR
STARTCHAR daggerdbl
ENCODING 8225
SWIDTH 693 0
DWIDTH 23 0
BBX 18 31 3 -6
BITMAP
03F000
03F000
03F000
03F000
03F000
03F000
03F000
03F000
FFFFC0
FFFFC0
FFFFC0
FFFFC0
03F000
03F000
03F000
03F000
03F000
03F000
FFFFC0
FFFFC0
FFFFC0
FFFFC0
03F000
03F000
03F000
03F000
03F000
03F000
03F000
03F000
03F000
ENDCHAR
STARTCHAR bullet
ENCODING 8226
SWIDTH 687 0
DWIDTH 23 0
BBX 13 13 5 4
BITMAP
FFF8
FFF8
FFF8
FFF8
FFF8
FFF8
FFF8
FFF8
FFF8
FFF8
FFF8
FFF8
FFF8
ENDCHAR
STARTCHAR ellipsis
ENCODING 8230
SWIDTH 1000 0
DWIDTH 34 0
BBX 27 4 4 0
BITMAP
F01E01E0
F01E01E0
F01E01E0
F01E01E0
ENDCHAR
STARTCHAR perthousand
ENCODING 8240
SWIDTH 1313 0
DWIDTH 45 0
BBX 43 25 1 0
BITMAP
0F8007E00000
3FE00F800000
7FF00F800000
7FF01F000000
FDF83E000000
F8F87C000000
F8F87C000000
F8F8F8000000
FDF9F0000000
7FF3E0000000
7FF3E0000000
3FE7C0000000
0F8F80000000
001F0F803E00
003F3FE0FF80
003E7FF1FFC0
007CFFFBFFE0
00F8FDFBF7E0
01F8F8FBE3E0
01F0F8FBE3E0
03E0FDFBF7E0
07C0FFFBFFE0
0F807FF1FFC0
0F803FE0FF80
3F000F803E00
ENDCHAR
STARTCHAR guilsinglleft
ENCODING 8249
SWIDTH 361 0
DWIDTH 12 0
BBX 10 16 1 1
BITMAP
0300
0780
0FC0
0FC0
1F80
3F00
7F00
FE00
FE00
7F00
3F00
1F80
0FC0
0FC0
0780
0300
ENDCHAR
STARTCHAR guilsinglright
ENCODING 8250
SWIDTH 361 0
DWIDTH 12 0
BBX 10 16 1 1
BITMAP
3000
7800
FC00
FC00
7E00
3F00
3F80
1FC0
1FC0
3F80
3F00
7E00
FC00
FC00
7800
3000
ENDCHAR
STARTCHAR fraction
ENCODING 8260
SWIDTH 93 0
DWIDTH 3 0
BBX 24 25 -10 0
BITMAP
00003F
00007E
0000FE
0000FC
0001F8
0003F0
0007F0
0007E0
000FC0
001F80
003F80
003F00
007E00
00FC00
01FC00
01F800
03F000
07E000
0FE000
0FC000
1F8000
3F0000
7F0000
7E0000
FC0000
ENDCHAR
STARTCHAR oneinferior
ENCODING 8321
SWIDTH 536 0
DWIDTH 14 0
BBX 5 15 -24 -8
BITMAP
F8
F8
38
38
38
38
38
38
38
38
38
38
38
38
38
ENDCHAR
STARTCHAR twoinferior
ENCODING 8322
SWIDTH 536 0
DWIDTH 14 0
BBX 11 15 -22 -8
BITMAP
7F00
FFC0
C1E0
00E0
00E0
00E0
01C0
0380
0700
0E00
3C00
7800
F800
FFE0
FFE0
ENDCHAR
STARTCHAR threeinferior
ENCODING 8323
SWIDTH 536 0
DWIDTH 14 0
BBX 11 15 -23 -8
BITMAP
7F00
FFC0
C1E0
00E0
00E0
01C0
7F80
7F00
03C0
01E0
00E0
00E0
C1E0
FFC0
FF00
ENDCHAR
STARTCHAR uni20A5
ENCODING 8357
SWIDTH 1006 0
DWIDTH 34 0
BBX 29 32 3 -7
BITMAP
00000F80
00001F80
00001F00
00003F00
00003E00
00007E00
00007C00
FE3EFFE0
FEFFFFF0
FDFFFFF8
FFFFFFF8
FFFFFFF8
FFFFFFF8
FF1FE3F8
FE1FC3F8
FE1FC3F8
FE1FC3F8
FE1FC3F8
FE1FC3F8
FE1FC3F8
FE3FC3F8
FE3FC3F8
FE7FC3F8
FE7FC3F8
FEFFC3F8
00F80000
01F80000
01F00000
03F00000
03E00000
07E00000
07C00000
ENDCHAR
STARTCHAR uni20A6
ENCODING 8358
SWIDTH 783 0
DWIDTH 27 0
BBX 21 25 3 0
BITMAP
FC00F8
FE00F8
FF00F8
FF00F8
FF80F8
FFC0F8
FFFFF8
FFFFF8
FFFFF8
FFFFF8
FFF8F8
FBFCF8
FBFEF8
F9FEF8
F8FFF8
FFFFF8
FFFFF8
FFFFF8
FFFFF8
F81FF8
F80FF8
F807F8
F807F8
F803F8
F801F8
ENDCHAR
STARTCHAR uni20A9
ENCODING 8361
SWIDTH 940 0
DWIDTH 32 0
BBX 31 25 1 0
BITMAP
FE03E01E
FE07F01E
FE07F03C
FF07F03C
7F07F03C
7F07F03C
7FFFFFF8
7FFFFFF8
7FFFFFF8
3FFFFFF8
3F9FF8F0
3F9EFCF0
3FDEFCF0
1FDEFCF0
1FDEFDE0
1FFFFFE0
1FFFFFE0
0FFFFFE0
0FFFFFE0
0FF87FC0
0FF83FC0
07F83FC0
07F83FC0
07F83F80
07F03F80
ENDCHAR
STARTCHAR Euro
ENCODING 8364
SWIDTH 726 0
DWIDTH 25 0
BBX 28 25 -4 0
BITMAP
0001FFC0
000FFFF0
003FFFF0
00FFFFF0
00FF8070
01FE0000
FFFFF000
FFFFF000
FFFFF000
FFFFF000
07F00000
07F00000
07F00000
07F00000
07F00000
FFFFF000
FFFFF000
FFFFF000
FFFFF010
01FF8070
00FFFFF0
00FFFFF0
003FFFF0
001FFFF0
0003FF00
ENDCHAR
STARTCHAR uni20AD
ENCODING 8365
SWIDTH 753 0
DWIDTH 26 0
BBX 23 25 3 0
BITMAP
FE01F0
FE03E0
FE03C0
FE07C0
FE0F80
FE0F00
FE1F00
FE3E00
FE7C00
FE7C00
FFFFFE
FFFFFE
FFFFFE
FFFFFE
FFFF00
FEFF00
FE7F80
FE7FC0
FE3FC0
FE1FE0
FE1FF0
FE0FF0
FE0FF8
FE07FC
FE03FE
ENDCHAR
STARTCHAR uni2103
ENCODING 8451
SWIDTH 955 0
DWIDTH 33 0
BBX 31 25 1 0
BITMAP
78003FF8
FC01FFFE
CC07FFFE
CC1FFFFE
FC1FF00E
783FC000
007F8000
007F0000
007F0000
00FE0000
00FE0000
00FE0000
00FE0000
00FE0000
00FE0000
00FF0000
007F0000
007F8000
007FC002
003FF00E
001FFFFE
001FFFFE
0007FFFE
0003FFFE
00007FE0
ENDCHAR
STARTCHAR uni2109
ENCODING 8457
SWIDTH 831 0
DWIDTH 28 0
BBX 27 25 1 0
BITMAP
783FFFE0
FC3FFFE0
CC3FFFE0
CC3FFFE0
FC3F8000
783F8000
003F8000
003F8000
003F8000
003F8000
003F8000
003FFF80
003FFF80
003FFF80
003FFF80
003F8000
003F8000
003F8000
003F8000
003F8000
003F8000
003F8000
003F8000
003F8000
003F8000
ENDCHAR
STARTCHAR trademark
ENCODING 8482
SWIDTH 901 0
DWIDTH 31 0
BBX 30 13 0 12
BITMAP
FFFEF87C
FFFEFCFC
FFFEFCFC
FFFEFCFC
0FE0FDFC
0FE0FDFC
0FE0FFFC
0FE0FFFC
0FE0FFFC
0FE0FFFC
0FE0F5FC
0FE0F5FC
0FE0F1FC
ENDCHAR
STARTCHAR uni212A
ENCODING 8490
SWIDTH 753 0
DWIDTH 26 0
BBX 23 25 3 0
BITMAP
FE01F0
FE03E0
FE03C0
FE07C0
FE0F80
FE0F00
FE1F00
FE3E00
FE7C00
FE7C00
FEF800
FFFC00
FFFC00
FFFE00
FFFF00
FEFF00
FE7F80
FE7FC0
FE3FC0
FE1FE0
FE1FF0
FE0FF0
FE0FF8
FE07FC
FE03FE
ENDCHAR
STARTCHAR uni212B
ENCODING 8491
SWIDTH 773 0
DWIDTH 26 0
BBX 25 33 1 0
BITMAP
001C0000
003E0000
00360000
00360000
003E0000
001C0000
00000000
00000000
007F0000
007F8000
00FF8000
00FF8000
00FFC000
01FFC000
01FFE000
01EFE000
03CFE000
03CFF000
07C7F000
0787F000
0787F800
0F83F800
0F03FC00
0FFFFC00
1FFFFC00
1FFFFE00
1FFFFE00
3C00FE00
3C007F00
7C007F00
78003F80
78003F80
F0003F80
ENDCHAR
STARTCHAR uni2132
ENCODING 8498
SWIDTH 602 0
DWIDTH 20 0
BBX 17 25 3 0
BITMAP
003F80
003F80
003F80
003F80
003F80
003F80
003F80
003F80
003F80
003F80
3FFF80
3FFF80
3FFF80
3FFF80
003F80
003F80
003F80
003F80
003F80
003F80
003F80
FFFF80
FFFF80
FFFF80
FFFF80
ENDCHAR
STARTCHAR universal
ENCODING 8704
SWIDTH 773 0
DWIDTH 26 0
BBX 25 25 1 0
BITMAP
F0003F80
78003F80
78003F80
7C007F00
3C007F00
3C00FE00
1FFFFE00
1FFFFE00
1FFFFC00
0FFFFC00
0F03FC00
0F83F800
0787F800
0787F000
07C7F000
03CFF000
03CFE000
01EFE000
01FFE000
01FFC000
00FFC000
00FF8000
00FF8000
007F8000
007F0000
ENDCHAR
STARTCHAR existential
ENCODING 8707
SWIDTH 645 0
DWIDTH 22 0
BBX 18 25 3 0
BITMAP
7FFFC0
7FFFC0
7FFFC0
7FFFC0
001FC0
001FC0
001FC0
001FC0
001FC0
001FC0
1FFFC0
1FFFC0
1FFFC0
1FFFC0
001FC0
001FC0
001FC0
001FC0
001FC0
001FC0
001FC0
FFFFC0
FFFFC0
FFFFC0
FFFFC0
ENDCHAR
STARTCHAR uni2204
ENCODING 8708
SWIDTH 645 0
DWIDTH 22 0
BBX 20 32 2 -3
BITMAP
0001F0
0003F0
0003E0
0007E0
3FFFE0
3FFFE0
3FFFE0
3FFFE0
001FE0
003FE0
003FE0
007FE0
007FE0
00FFE0
0FFFE0
0FFFE0
0FFFE0
0FFFE0
03FFE0
03EFE0
07EFE0
07CFE0
0FCFE0
0F8FE0
1F8FE0
7FFFE0
7FFFE0
7FFFE0
7FFFE0
7C0000
FC0000
F80000
ENDCHAR
STARTCHAR minus
ENCODING 8722
SWIDTH 687 0
DWIDTH 23 0
BBX 20 4 2 8
BITMAP
FFFFF0
FFFFF0
FFFFF0
FFFFF0
ENDCHAR
STARTCHAR fraction
ENCODING 8725
SWIDTH 93 0
DWIDTH 3 0
BBX 24 25 -10 0
BITMAP
00003F
00007E
0000FE
0000FC
0001F8
0003F0
0007F0
0007E0
000FC0
001F80
003F80
003F00
007E00
00FC00
01FC00
01F800
03F000
07E000
0FE000
0FC000
1F8000
3F0000
7F0000
7E0000
FC0000
ENDCHAR
STARTCHAR periodcentered
ENCODING 8729
SWIDTH 343 0
DWIDTH 23 0
BBX 5 5 9 7
BITMAP
F8
F8
F8
F8
F8
ENDCHAR
STARTCHAR uni2236
ENCODING 8758
SWIDTH 343 0
DWIDTH 12 0
BBX 7 18 2 0
BITMAP
FE
FE
FE
FE
FE
FE
FE
00
00
00
00
FE
FE
FE
FE
FE
FE
FE
ENDCHAR
STARTCHAR uni2259
ENCODING 8793
SWIDTH 687 0
DWIDTH 23 0
BBX 20 19 2 3
BITMAP
01F800
01F800
03FC00
079E00
0F0F00
000000
FFFFF0
FFFFF0
FFFFF0
FFFFF0
000000
000000
000000
000000
000000
FFFFF0
FFFFF0
FFFFF0
FFFFF0
ENDCHAR
STARTCHAR uni225A
ENCODING 8794
SWIDTH 687 0
DWIDTH 23 0
BBX 20 19 2 3
BITMAP
0F0F00
079E00
03FC00
01F800
01F800
000000
FFFFF0
FFFFF0
FFFFF0
FFFFF0
000000
000000
000000
000000
000000
FFFFF0
FFFFF0
FFFFF0
FFFFF0
ENDCHAR
ENDFONT
